<svg width="540" height="72" viewBox="0 0 540 72" fill="none" xmlns="http://www.w3.org/2000/svg">
<g clip-path="url(#clip0_0_3617)">
<path d="M96.206 43V30.22H99.14V35.278H104.486V30.22H107.438V43H104.486V37.852H99.14V43H96.206ZM114.185 33.694C115.613 33.694 116.729 34.102 117.533 34.918C118.349 35.734 118.757 36.838 118.757 38.23C118.757 39.178 118.553 40.024 118.145 40.768C117.737 41.512 117.161 42.1 116.417 42.532C115.673 42.964 114.797 43.18 113.789 43.18C112.373 43.18 111.257 42.772 110.441 41.956C109.637 41.14 109.235 40.042 109.235 38.662C109.235 37.702 109.439 36.85 109.847 36.106C110.255 35.362 110.831 34.774 111.575 34.342C112.319 33.91 113.189 33.694 114.185 33.694ZM113.915 40.786C114.527 40.786 115.013 40.558 115.373 40.102C115.745 39.634 115.931 39.01 115.931 38.23C115.931 37.558 115.769 37.036 115.445 36.664C115.121 36.28 114.677 36.088 114.113 36.088C113.489 36.088 112.991 36.322 112.619 36.79C112.259 37.246 112.079 37.864 112.079 38.644C112.079 39.316 112.235 39.844 112.547 40.228C112.871 40.6 113.327 40.786 113.915 40.786ZM132.527 33.838H135.245L132.095 43H128.657L127.199 37.708L125.435 43H122.015L119.153 33.838H121.997L123.851 40.372L125.957 33.838H128.585L130.403 40.426L132.527 33.838ZM152.953 33.838H155.671L152.521 43H149.083L147.625 37.708L145.861 43H142.441L139.579 33.838H142.423L144.277 40.372L146.383 33.838H149.011L150.829 40.426L152.953 33.838ZM160.75 43.18C159.73 43.18 158.848 42.994 158.104 42.622C157.36 42.238 156.784 41.704 156.376 41.02C155.968 40.324 155.764 39.502 155.764 38.554C155.764 37.594 155.968 36.748 156.376 36.016C156.796 35.284 157.354 34.714 158.05 34.306C158.758 33.898 159.556 33.694 160.444 33.694C161.452 33.694 162.274 33.922 162.91 34.378C163.546 34.834 163.984 35.482 164.224 36.322C164.476 37.15 164.53 38.116 164.386 39.22H158.572C158.644 39.676 158.884 40.06 159.292 40.372C159.7 40.672 160.258 40.822 160.966 40.822C161.29 40.822 161.632 40.756 161.992 40.624C162.352 40.48 162.658 40.27 162.91 39.994L164.44 41.614C164.044 42.094 163.552 42.478 162.964 42.766C162.388 43.042 161.65 43.18 160.75 43.18ZM160.498 35.692C160.018 35.692 159.61 35.836 159.274 36.124C158.95 36.412 158.734 36.814 158.626 37.33H162.064C162.076 36.766 161.938 36.352 161.65 36.088C161.374 35.824 160.99 35.692 160.498 35.692ZM170.611 43V29.68H173.365L173.383 33.838L173.239 35.764C173.611 35.104 174.085 34.594 174.661 34.234C175.249 33.874 175.897 33.694 176.605 33.694C177.697 33.694 178.513 34.066 179.053 34.81C179.593 35.542 179.857 36.598 179.845 37.978L179.809 43H177.055L177.091 38.176C177.103 37.552 177.007 37.078 176.803 36.754C176.611 36.418 176.299 36.25 175.867 36.25C175.507 36.25 175.177 36.358 174.877 36.574C174.577 36.778 174.313 37.132 174.085 37.636C173.869 38.14 173.695 38.83 173.563 39.706C173.431 40.582 173.359 41.68 173.347 43H170.611ZM186.344 43.18C185.324 43.18 184.442 42.994 183.698 42.622C182.954 42.238 182.378 41.704 181.97 41.02C181.562 40.324 181.358 39.502 181.358 38.554C181.358 37.594 181.562 36.748 181.97 36.016C182.39 35.284 182.948 34.714 183.644 34.306C184.352 33.898 185.15 33.694 186.038 33.694C187.046 33.694 187.868 33.922 188.504 34.378C189.14 34.834 189.578 35.482 189.818 36.322C190.07 37.15 190.124 38.116 189.98 39.22H184.166C184.238 39.676 184.478 40.06 184.886 40.372C185.294 40.672 185.852 40.822 186.56 40.822C186.884 40.822 187.226 40.756 187.586 40.624C187.946 40.48 188.252 40.27 188.504 39.994L190.034 41.614C189.638 42.094 189.146 42.478 188.558 42.766C187.982 43.042 187.244 43.18 186.344 43.18ZM186.092 35.692C185.612 35.692 185.204 35.836 184.868 36.124C184.544 36.412 184.328 36.814 184.22 37.33H187.658C187.67 36.766 187.532 36.352 187.244 36.088C186.968 35.824 186.584 35.692 186.092 35.692ZM194.549 43.18C193.625 43.18 192.911 42.928 192.407 42.424C191.915 41.908 191.669 41.164 191.669 40.192V29.68H194.423V39.994C194.423 40.546 194.681 40.822 195.197 40.822C195.473 40.822 195.707 40.756 195.899 40.624L196.565 42.586C196.361 42.754 196.079 42.892 195.719 43C195.359 43.12 194.969 43.18 194.549 43.18ZM197.224 46.6V33.838H199.996L199.906 35.242C200.566 34.21 201.544 33.694 202.84 33.694C203.656 33.694 204.352 33.88 204.928 34.252C205.504 34.624 205.942 35.14 206.242 35.8C206.542 36.46 206.692 37.216 206.692 38.068C206.692 39.088 206.482 39.982 206.062 40.75C205.642 41.518 205.078 42.118 204.37 42.55C203.662 42.97 202.87 43.18 201.994 43.18C201.574 43.18 201.19 43.12 200.842 43C200.506 42.88 200.206 42.712 199.942 42.496L199.978 43V46.6H197.224ZM201.706 40.786C202.366 40.786 202.888 40.54 203.272 40.048C203.656 39.544 203.848 38.908 203.848 38.14C203.848 37.492 203.698 36.988 203.398 36.628C203.11 36.268 202.714 36.088 202.21 36.088C201.598 36.088 201.07 36.34 200.626 36.844C200.194 37.348 199.978 38.008 199.978 38.824C199.978 39.424 200.134 39.904 200.446 40.264C200.758 40.612 201.178 40.786 201.706 40.786ZM221.886 29.68V43H219.114L219.204 41.65C218.544 42.67 217.566 43.18 216.27 43.18C215.454 43.18 214.758 42.994 214.182 42.622C213.606 42.25 213.168 41.734 212.868 41.074C212.568 40.414 212.418 39.658 212.418 38.806C212.418 37.786 212.628 36.892 213.048 36.124C213.468 35.356 214.032 34.762 214.74 34.342C215.448 33.91 216.24 33.694 217.116 33.694C217.524 33.694 217.902 33.754 218.25 33.874C218.598 33.994 218.898 34.162 219.15 34.378L219.132 33.838V29.68H221.886ZM217.386 36.088C216.726 36.088 216.204 36.334 215.82 36.826C215.448 37.318 215.262 37.948 215.262 38.716C215.262 39.376 215.406 39.886 215.694 40.246C215.994 40.606 216.396 40.786 216.9 40.786C217.512 40.786 218.034 40.534 218.466 40.03C218.91 39.526 219.132 38.866 219.132 38.05C219.132 37.438 218.976 36.958 218.664 36.61C218.352 36.262 217.926 36.088 217.386 36.088ZM230.295 36.502C230.055 36.406 229.731 36.358 229.323 36.358C228.699 36.358 228.201 36.58 227.829 37.024C227.457 37.456 227.187 38.164 227.019 39.148C226.851 40.12 226.767 41.404 226.767 43H224.031V37.06L223.995 33.838H226.749L226.623 36.124C226.947 35.248 227.379 34.624 227.919 34.252C228.471 33.88 229.059 33.694 229.683 33.694C229.887 33.694 230.073 33.706 230.241 33.73C230.421 33.754 230.601 33.796 230.781 33.856L230.295 36.502ZM234.449 33.838V43H231.695V33.838H234.449ZM233.063 32.758C232.535 32.758 232.115 32.596 231.803 32.272C231.491 31.948 231.335 31.564 231.335 31.12C231.335 30.676 231.485 30.292 231.785 29.968C232.097 29.644 232.523 29.482 233.063 29.482C233.591 29.482 234.011 29.644 234.323 29.968C234.635 30.292 234.791 30.676 234.791 31.12C234.791 31.564 234.635 31.948 234.323 32.272C234.011 32.596 233.591 32.758 233.063 32.758ZM242.918 33.838H245.654L242.288 43H238.364L235.484 33.838H238.472L240.488 40.732L242.918 33.838ZM250.609 43.18C249.589 43.18 248.707 42.994 247.963 42.622C247.219 42.238 246.643 41.704 246.235 41.02C245.827 40.324 245.623 39.502 245.623 38.554C245.623 37.594 245.827 36.748 246.235 36.016C246.655 35.284 247.213 34.714 247.909 34.306C248.617 33.898 249.415 33.694 250.303 33.694C251.311 33.694 252.133 33.922 252.769 34.378C253.405 34.834 253.843 35.482 254.083 36.322C254.335 37.15 254.389 38.116 254.245 39.22H248.431C248.503 39.676 248.743 40.06 249.151 40.372C249.559 40.672 250.117 40.822 250.825 40.822C251.149 40.822 251.491 40.756 251.851 40.624C252.211 40.48 252.517 40.27 252.769 39.994L254.299 41.614C253.903 42.094 253.411 42.478 252.823 42.766C252.247 43.042 251.509 43.18 250.609 43.18ZM250.357 35.692C249.877 35.692 249.469 35.836 249.133 36.124C248.809 36.412 248.593 36.814 248.485 37.33H251.923C251.935 36.766 251.797 36.352 251.509 36.088C251.233 35.824 250.849 35.692 250.357 35.692ZM263.224 33.838V43H260.47V33.838H263.224ZM261.838 32.758C261.31 32.758 260.89 32.596 260.578 32.272C260.266 31.948 260.11 31.564 260.11 31.12C260.11 30.676 260.26 30.292 260.56 29.968C260.872 29.644 261.298 29.482 261.838 29.482C262.366 29.482 262.786 29.644 263.098 29.968C263.41 30.292 263.566 30.676 263.566 31.12C263.566 31.564 263.41 31.948 263.098 32.272C262.786 32.596 262.366 32.758 261.838 32.758ZM265.322 43V33.838H268.058L267.932 35.8C268.304 35.128 268.778 34.612 269.354 34.252C269.942 33.88 270.596 33.694 271.316 33.694C272.408 33.694 273.224 34.066 273.764 34.81C274.304 35.542 274.568 36.598 274.556 37.978L274.52 43H271.766L271.802 38.176C271.814 37.552 271.718 37.078 271.514 36.754C271.322 36.418 271.01 36.25 270.578 36.25C270.218 36.25 269.888 36.358 269.588 36.574C269.288 36.778 269.024 37.132 268.796 37.636C268.58 38.14 268.406 38.83 268.274 39.706C268.142 40.582 268.07 41.68 268.058 43H265.322ZM276.537 43V33.838H279.273L279.147 35.8C279.519 35.128 279.993 34.612 280.569 34.252C281.157 33.88 281.811 33.694 282.531 33.694C283.623 33.694 284.439 34.066 284.979 34.81C285.519 35.542 285.783 36.598 285.771 37.978L285.735 43H282.981L283.017 38.176C283.029 37.552 282.933 37.078 282.729 36.754C282.537 36.418 282.225 36.25 281.793 36.25C281.433 36.25 281.103 36.358 280.803 36.574C280.503 36.778 280.239 37.132 280.011 37.636C279.795 38.14 279.621 38.83 279.489 39.706C279.357 40.582 279.285 41.68 279.273 43H276.537ZM292.233 33.694C293.661 33.694 294.777 34.102 295.581 34.918C296.397 35.734 296.805 36.838 296.805 38.23C296.805 39.178 296.601 40.024 296.193 40.768C295.785 41.512 295.209 42.1 294.465 42.532C293.721 42.964 292.845 43.18 291.837 43.18C290.421 43.18 289.305 42.772 288.489 41.956C287.685 41.14 287.283 40.042 287.283 38.662C287.283 37.702 287.487 36.85 287.895 36.106C288.303 35.362 288.879 34.774 289.623 34.342C290.367 33.91 291.237 33.694 292.233 33.694ZM291.963 40.786C292.575 40.786 293.061 40.558 293.421 40.102C293.793 39.634 293.979 39.01 293.979 38.23C293.979 37.558 293.817 37.036 293.493 36.664C293.169 36.28 292.725 36.088 292.161 36.088C291.537 36.088 291.039 36.322 290.667 36.79C290.307 37.246 290.127 37.864 290.127 38.644C290.127 39.316 290.283 39.844 290.595 40.228C290.919 40.6 291.375 40.786 291.963 40.786ZM304.6 33.838H307.336L303.97 43H300.046L297.166 33.838H300.154L302.17 40.732L304.6 33.838ZM316.773 33.874V43H314.001L314.091 41.632C313.431 42.664 312.453 43.18 311.157 43.18C310.341 43.18 309.645 42.994 309.069 42.622C308.493 42.25 308.055 41.734 307.755 41.074C307.455 40.414 307.305 39.658 307.305 38.806C307.305 37.786 307.515 36.892 307.935 36.124C308.355 35.356 308.919 34.762 309.627 34.342C310.335 33.91 311.127 33.694 312.003 33.694C312.579 33.694 313.089 33.814 313.533 34.054C313.977 34.282 314.319 34.588 314.559 34.972L314.793 33.874H316.773ZM312.273 36.088C311.613 36.088 311.091 36.334 310.707 36.826C310.335 37.318 310.149 37.948 310.149 38.716C310.149 39.376 310.293 39.886 310.581 40.246C310.881 40.606 311.283 40.786 311.787 40.786C312.399 40.786 312.921 40.534 313.353 40.03C313.797 39.526 314.019 38.866 314.019 38.05C314.019 37.438 313.863 36.958 313.551 36.61C313.239 36.262 312.813 36.088 312.273 36.088ZM323.022 43.18C321.894 43.18 321 42.868 320.34 42.244C319.68 41.608 319.356 40.774 319.368 39.742L319.44 36.124H317.928V33.838H319.476L319.494 31.966H322.23L322.212 33.838H325.074V36.124H322.176L322.122 39.436C322.122 39.868 322.236 40.204 322.464 40.444C322.692 40.684 323.034 40.804 323.49 40.804C323.754 40.804 324.006 40.774 324.246 40.714C324.498 40.642 324.756 40.51 325.02 40.318L325.812 42.424C325.2 42.928 324.27 43.18 323.022 43.18ZM329.353 33.838V43H326.599V33.838H329.353ZM327.967 32.758C327.439 32.758 327.019 32.596 326.707 32.272C326.395 31.948 326.239 31.564 326.239 31.12C326.239 30.676 326.389 30.292 326.689 29.968C327.001 29.644 327.427 29.482 327.967 29.482C328.495 29.482 328.915 29.644 329.227 29.968C329.539 30.292 329.695 30.676 329.695 31.12C329.695 31.564 329.539 31.948 329.227 32.272C328.915 32.596 328.495 32.758 327.967 32.758ZM335.933 33.694C337.361 33.694 338.477 34.102 339.281 34.918C340.097 35.734 340.505 36.838 340.505 38.23C340.505 39.178 340.301 40.024 339.893 40.768C339.485 41.512 338.909 42.1 338.165 42.532C337.421 42.964 336.545 43.18 335.537 43.18C334.121 43.18 333.005 42.772 332.189 41.956C331.385 41.14 330.983 40.042 330.983 38.662C330.983 37.702 331.187 36.85 331.595 36.106C332.003 35.362 332.579 34.774 333.323 34.342C334.067 33.91 334.937 33.694 335.933 33.694ZM335.663 40.786C336.275 40.786 336.761 40.558 337.121 40.102C337.493 39.634 337.679 39.01 337.679 38.23C337.679 37.558 337.517 37.036 337.193 36.664C336.869 36.28 336.425 36.088 335.861 36.088C335.237 36.088 334.739 36.322 334.367 36.79C334.007 37.246 333.827 37.864 333.827 38.644C333.827 39.316 333.983 39.844 334.295 40.228C334.619 40.6 335.075 40.786 335.663 40.786ZM342.173 43V33.838H344.909L344.783 35.8C345.155 35.128 345.629 34.612 346.205 34.252C346.793 33.88 347.447 33.694 348.167 33.694C349.259 33.694 350.075 34.066 350.615 34.81C351.155 35.542 351.419 36.598 351.407 37.978L351.371 43H348.617L348.653 38.176C348.665 37.552 348.569 37.078 348.365 36.754C348.173 36.418 347.861 36.25 347.429 36.25C347.069 36.25 346.739 36.358 346.439 36.574C346.139 36.778 345.875 37.132 345.647 37.636C345.431 38.14 345.257 38.83 345.125 39.706C344.993 40.582 344.921 41.68 344.909 43H342.173Z" fill="white"/>
</g>
<circle cx="44" cy="44" r="28" fill="#2C6269"/>
<path fill-rule="evenodd" clip-rule="evenodd" d="M44.3333 4.6667C44.3333 2.093 46.4263 0 49 0C51.5737 0 53.6667 2.093 53.6667 4.6667C53.6667 7.24041 51.5737 9.33341 49 9.33341C48.1355 9.33341 47.3252 9.09726 46.6303 8.68608L39.0194 16.297C39.4306 16.992 39.6667 17.8022 39.6667 18.6667C39.6667 21.2404 37.5737 23.3334 35 23.3334C32.4263 23.3334 30.3333 21.2404 30.3333 18.6667C30.3333 18.4032 30.3552 18.1447 30.3974 17.893L25.0246 16.3608C24.2129 17.7396 22.7129 18.6667 21 18.6667C19.9493 18.6667 18.9788 18.3179 18.1981 17.73L11.0811 23.4046C11.4541 24.075 11.6667 24.8465 11.6667 25.6667C11.6667 28.2404 9.5737 30.3334 7 30.3334C4.4263 30.3334 2.3333 28.2404 2.3333 25.6667C2.3333 23.093 4.4263 21 7 21C7.90488 21 8.75035 21.2587 9.46631 21.7061L16.7404 15.9062C16.4788 15.3239 16.3333 14.6787 16.3333 14C16.3333 11.4263 18.4263 9.3333 21 9.3333C23.5737 9.3333 25.6667 11.4263 25.6667 14C25.6667 14.0389 25.6662 14.0777 25.6653 14.1165L31.3656 15.742C32.2217 14.6803 33.5327 14 35 14C35.8645 14 36.6748 14.2361 37.3697 14.6473L44.9806 7.03637C44.5694 6.34145 44.3333 5.5312 44.3333 4.6667ZM19.2225 15.5101C19.209 15.491 19.1948 15.4722 19.18 15.4537C19.1649 15.4348 19.1494 15.4164 19.1334 15.3987C18.8404 15.0086 18.6667 14.524 18.6667 14C18.6667 12.7143 19.712 11.6667 21 11.6667C22.288 11.6667 23.3333 12.7144 23.3333 14C23.3333 15.2857 22.288 16.3333 21 16.3333C20.2882 16.3333 19.6506 16.0133 19.2225 15.5101ZM8.61291 23.982C8.1938 23.5805 7.62552 23.3334 7 23.3334C5.712 23.3334 4.6667 24.381 4.6667 25.6667C4.6667 26.9523 5.712 28 7 28C8.288 28 9.3333 26.9523 9.3333 25.6667C9.3333 25.0421 9.08657 24.4737 8.68515 24.0543C8.66023 24.0314 8.63612 24.0073 8.61291 23.982ZM47.3975 6.3613C47.3831 6.34522 47.3681 6.32945 47.3527 6.314C47.3373 6.29859 47.3215 6.28369 47.3055 6.26933C46.9096 5.85087 46.6667 5.28643 46.6667 4.6667C46.6667 3.381 47.712 2.33341 49 2.33341C50.288 2.33341 51.3333 3.38111 51.3333 4.6667C51.3333 5.9523 50.288 7 49 7C48.3796 7 47.8155 6.75694 47.3975 6.3613ZM52.5 18.6667C53.144 18.6667 53.6667 19.1893 53.6667 19.8334V53.6667H54.8333C55.4773 53.6667 56 54.1893 56.0001 54.8333C56.0001 55.4773 55.4774 56 54.8334 56H52.5159L52.5 56.0001H45.5L45.4841 56H38.5159L38.5 56.0001H31.5L31.4841 56H24.5159L24.5 56.0001H17.5L17.4841 56H10.5H3.5H1.1667C0.522703 56 0 55.4773 0 54.8333C0 54.1893 0.522703 53.6667 1.1667 53.6667H2.3333V40.8334C2.3333 40.1894 2.856 39.6667 3.5 39.6667H10.5C11.144 39.6667 11.6667 40.1893 11.6667 40.8333V53.6667H16.3333V29.1667C16.3333 28.5227 16.856 28 17.5 28H24.5C25.144 28 25.6667 28.5227 25.6667 29.1667V53.6667H30.3333V33.8334C30.3333 33.1894 30.856 32.6667 31.5 32.6667H38.5C39.144 32.6667 39.6667 33.1893 39.6667 33.8334V53.6667H44.3333V19.8334C44.3333 19.1894 44.856 18.6667 45.5 18.6667H52.5ZM51.3333 21V53.6667H46.6666V21H51.3333ZM37.3333 53.6667V35H32.6666V53.6667H37.3333ZM18.6666 30.3333H23.3333V53.6667H18.6666V30.3333ZM9.33341 53.6667V42H4.6667V53.6667H9.3333H9.33341ZM35 21C33.712 21 32.6667 19.9523 32.6667 18.6667C32.6667 17.381 33.712 16.3334 35 16.3334C36.288 16.3334 37.3333 17.3811 37.3333 18.6667C37.3333 19.9523 36.288 21 35 21Z" fill="#79C8C7"/>
<defs>
<clipPath id="clip0_0_3617">
<rect width="445" height="28" fill="white" transform="translate(95 22)"/>
</clipPath>
</defs>
</svg>
