<svg width="540" height="72" viewBox="0 0 540 72" fill="none" xmlns="http://www.w3.org/2000/svg">
<g clip-path="url(#clip0_0_3574)">
<path d="M106.052 30.22L105.674 32.794H101.804V43H98.852V32.794H94.802V30.22H106.052ZM106.714 43V29.68H109.468L109.486 33.838L109.342 35.764C109.714 35.104 110.188 34.594 110.764 34.234C111.352 33.874 112 33.694 112.708 33.694C113.8 33.694 114.616 34.066 115.156 34.81C115.696 35.542 115.96 36.598 115.948 37.978L115.912 43H113.158L113.194 38.176C113.206 37.552 113.11 37.078 112.906 36.754C112.714 36.418 112.402 36.25 111.97 36.25C111.61 36.25 111.28 36.358 110.98 36.574C110.68 36.778 110.416 37.132 110.188 37.636C109.972 38.14 109.798 38.83 109.666 39.706C109.534 40.582 109.462 41.68 109.45 43H106.714ZM122.447 43.18C121.427 43.18 120.545 42.994 119.801 42.622C119.057 42.238 118.481 41.704 118.073 41.02C117.665 40.324 117.461 39.502 117.461 38.554C117.461 37.594 117.665 36.748 118.073 36.016C118.493 35.284 119.051 34.714 119.747 34.306C120.455 33.898 121.253 33.694 122.141 33.694C123.149 33.694 123.971 33.922 124.607 34.378C125.243 34.834 125.681 35.482 125.921 36.322C126.173 37.15 126.227 38.116 126.083 39.22H120.269C120.341 39.676 120.581 40.06 120.989 40.372C121.397 40.672 121.955 40.822 122.663 40.822C122.987 40.822 123.329 40.756 123.689 40.624C124.049 40.48 124.355 40.27 124.607 39.994L126.137 41.614C125.741 42.094 125.249 42.478 124.661 42.766C124.085 43.042 123.347 43.18 122.447 43.18ZM122.195 35.692C121.715 35.692 121.307 35.836 120.971 36.124C120.647 36.412 120.431 36.814 120.323 37.33H123.761C123.773 36.766 123.635 36.352 123.347 36.088C123.071 35.824 122.687 35.692 122.195 35.692ZM141.308 33.874V46.6H138.554V43L138.626 41.632C137.966 42.664 136.988 43.18 135.692 43.18C134.876 43.18 134.18 42.994 133.604 42.622C133.028 42.25 132.59 41.734 132.29 41.074C131.99 40.414 131.84 39.658 131.84 38.806C131.84 37.786 132.05 36.892 132.47 36.124C132.89 35.356 133.454 34.762 134.162 34.342C134.87 33.91 135.662 33.694 136.538 33.694C137.114 33.694 137.618 33.814 138.05 34.054C138.494 34.282 138.842 34.588 139.094 34.972L139.328 33.874H141.308ZM136.808 36.088C136.148 36.088 135.626 36.334 135.242 36.826C134.87 37.318 134.684 37.948 134.684 38.716C134.684 39.376 134.828 39.886 135.116 40.246C135.416 40.606 135.818 40.786 136.322 40.786C136.934 40.786 137.456 40.534 137.888 40.03C138.332 39.526 138.554 38.866 138.554 38.05C138.554 37.438 138.398 36.958 138.086 36.61C137.774 36.262 137.348 36.088 136.808 36.088ZM146.459 43.18C145.403 43.18 144.605 42.82 144.065 42.1C143.525 41.38 143.261 40.378 143.273 39.094L143.309 33.838H146.063L146.027 38.878C146.027 39.418 146.123 39.844 146.315 40.156C146.507 40.468 146.807 40.624 147.215 40.624C147.563 40.624 147.881 40.516 148.169 40.3C148.457 40.084 148.709 39.724 148.925 39.22C149.141 38.716 149.309 38.026 149.429 37.15C149.561 36.274 149.633 35.17 149.645 33.838H152.309V43H149.555L149.681 41.236C149.321 41.86 148.865 42.34 148.313 42.676C147.761 43.012 147.143 43.18 146.459 43.18ZM163.421 33.874V43H160.649L160.739 41.632C160.079 42.664 159.101 43.18 157.805 43.18C156.989 43.18 156.293 42.994 155.717 42.622C155.141 42.25 154.703 41.734 154.403 41.074C154.103 40.414 153.953 39.658 153.953 38.806C153.953 37.786 154.163 36.892 154.583 36.124C155.003 35.356 155.567 34.762 156.275 34.342C156.983 33.91 157.775 33.694 158.651 33.694C159.227 33.694 159.737 33.814 160.181 34.054C160.625 34.282 160.967 34.588 161.207 34.972L161.441 33.874H163.421ZM158.921 36.088C158.261 36.088 157.739 36.334 157.355 36.826C156.983 37.318 156.797 37.948 156.797 38.716C156.797 39.376 156.941 39.886 157.229 40.246C157.529 40.606 157.931 40.786 158.435 40.786C159.047 40.786 159.569 40.534 160.001 40.03C160.445 39.526 160.667 38.866 160.667 38.05C160.667 37.438 160.511 36.958 160.199 36.61C159.887 36.262 159.461 36.088 158.921 36.088ZM168.428 43.18C167.504 43.18 166.79 42.928 166.286 42.424C165.794 41.908 165.548 41.164 165.548 40.192V29.68H168.302V39.994C168.302 40.546 168.56 40.822 169.076 40.822C169.352 40.822 169.586 40.756 169.778 40.624L170.444 42.586C170.24 42.754 169.958 42.892 169.598 43C169.238 43.12 168.848 43.18 168.428 43.18ZM173.857 33.838V43H171.103V33.838H173.857ZM172.471 32.758C171.943 32.758 171.523 32.596 171.211 32.272C170.899 31.948 170.743 31.564 170.743 31.12C170.743 30.676 170.893 30.292 171.193 29.968C171.505 29.644 171.931 29.482 172.471 29.482C172.999 29.482 173.419 29.644 173.731 29.968C174.043 30.292 174.199 30.676 174.199 31.12C174.199 31.564 174.043 31.948 173.731 32.272C173.419 32.596 172.999 32.758 172.471 32.758ZM180.077 43.18C178.949 43.18 178.055 42.868 177.395 42.244C176.735 41.608 176.411 40.774 176.423 39.742L176.495 36.124H174.983V33.838H176.531L176.549 31.966H179.285L179.267 33.838H182.129V36.124H179.231L179.177 39.436C179.177 39.868 179.291 40.204 179.519 40.444C179.747 40.684 180.089 40.804 180.545 40.804C180.809 40.804 181.061 40.774 181.301 40.714C181.553 40.642 181.811 40.51 182.075 40.318L182.867 42.424C182.255 42.928 181.325 43.18 180.077 43.18ZM186.86 46.78C186.488 46.78 186.092 46.75 185.672 46.69C185.252 46.642 184.844 46.564 184.448 46.456C184.064 46.348 183.74 46.204 183.476 46.024L184.124 43.684C184.544 43.888 184.982 44.05 185.438 44.17C185.906 44.302 186.434 44.368 187.022 44.368C188.018 44.368 188.726 44.14 189.146 43.684C189.578 43.228 189.824 42.514 189.884 41.542L189.938 40.804C189.566 41.44 189.098 41.938 188.534 42.298C187.97 42.646 187.334 42.82 186.626 42.82C185.546 42.82 184.736 42.46 184.196 41.74C183.656 41.02 183.392 40.012 183.404 38.716L183.44 33.838H186.194L186.158 38.518C186.158 39.058 186.254 39.484 186.446 39.796C186.638 40.108 186.95 40.264 187.382 40.264C187.874 40.264 188.3 40.066 188.66 39.67C189.02 39.274 189.302 38.614 189.506 37.69C189.71 36.754 189.824 35.47 189.848 33.838H192.512V41.218C192.512 43.138 192.002 44.542 190.982 45.43C189.974 46.33 188.6 46.78 186.86 46.78ZM203.64 33.694C205.068 33.694 206.184 34.102 206.988 34.918C207.804 35.734 208.212 36.838 208.212 38.23C208.212 39.178 208.008 40.024 207.6 40.768C207.192 41.512 206.616 42.1 205.872 42.532C205.128 42.964 204.252 43.18 203.244 43.18C201.828 43.18 200.712 42.772 199.896 41.956C199.092 41.14 198.69 40.042 198.69 38.662C198.69 37.702 198.894 36.85 199.302 36.106C199.71 35.362 200.286 34.774 201.03 34.342C201.774 33.91 202.644 33.694 203.64 33.694ZM203.37 40.786C203.982 40.786 204.468 40.558 204.828 40.102C205.2 39.634 205.386 39.01 205.386 38.23C205.386 37.558 205.224 37.036 204.9 36.664C204.576 36.28 204.132 36.088 203.568 36.088C202.944 36.088 202.446 36.322 202.074 36.79C201.714 37.246 201.534 37.864 201.534 38.644C201.534 39.316 201.69 39.844 202.002 40.228C202.326 40.6 202.782 40.786 203.37 40.786ZM210.384 43V36.124H208.692V33.838H210.384V33.55C210.384 32.722 210.564 32.008 210.924 31.408C211.284 30.796 211.77 30.328 212.382 30.004C213.006 29.668 213.708 29.5 214.488 29.5C215.412 29.5 216.162 29.728 216.738 30.184C217.314 30.64 217.668 31.342 217.8 32.29L215.442 32.578C215.406 32.338 215.298 32.152 215.118 32.02C214.938 31.888 214.71 31.822 214.434 31.822C214.014 31.822 213.684 31.954 213.444 32.218C213.216 32.47 213.102 32.836 213.102 33.316V33.838H215.568V36.124H213.138V43H210.384ZM225.718 33.694C227.146 33.694 228.262 34.102 229.066 34.918C229.882 35.734 230.29 36.838 230.29 38.23C230.29 39.178 230.086 40.024 229.678 40.768C229.27 41.512 228.694 42.1 227.95 42.532C227.206 42.964 226.33 43.18 225.322 43.18C223.906 43.18 222.79 42.772 221.974 41.956C221.17 41.14 220.768 40.042 220.768 38.662C220.768 37.702 220.972 36.85 221.38 36.106C221.788 35.362 222.364 34.774 223.108 34.342C223.852 33.91 224.722 33.694 225.718 33.694ZM225.448 40.786C226.06 40.786 226.546 40.558 226.906 40.102C227.278 39.634 227.464 39.01 227.464 38.23C227.464 37.558 227.302 37.036 226.978 36.664C226.654 36.28 226.21 36.088 225.646 36.088C225.022 36.088 224.524 36.322 224.152 36.79C223.792 37.246 223.612 37.864 223.612 38.644C223.612 39.316 223.768 39.844 224.08 40.228C224.404 40.6 224.86 40.786 225.448 40.786ZM234.982 43.18C233.926 43.18 233.128 42.82 232.588 42.1C232.048 41.38 231.784 40.378 231.796 39.094L231.832 33.838H234.586L234.55 38.878C234.55 39.418 234.646 39.844 234.838 40.156C235.03 40.468 235.33 40.624 235.738 40.624C236.086 40.624 236.404 40.516 236.692 40.3C236.98 40.084 237.232 39.724 237.448 39.22C237.664 38.716 237.832 38.026 237.952 37.15C238.084 36.274 238.156 35.17 238.168 33.838H240.832V43H238.078L238.204 41.236C237.844 41.86 237.388 42.34 236.836 42.676C236.284 43.012 235.666 43.18 234.982 43.18ZM249.227 36.502C248.987 36.406 248.663 36.358 248.255 36.358C247.631 36.358 247.133 36.58 246.761 37.024C246.389 37.456 246.119 38.164 245.951 39.148C245.783 40.12 245.699 41.404 245.699 43H242.963V37.06L242.927 33.838H245.681L245.555 36.124C245.879 35.248 246.311 34.624 246.851 34.252C247.403 33.88 247.991 33.694 248.615 33.694C248.819 33.694 249.005 33.706 249.173 33.73C249.353 33.754 249.533 33.796 249.713 33.856L249.227 36.502ZM259.284 43.18C258.156 43.18 257.262 42.868 256.602 42.244C255.942 41.608 255.618 40.774 255.63 39.742L255.702 36.124H254.19V33.838H255.738L255.756 31.966H258.492L258.474 33.838H261.336V36.124H258.438L258.384 39.436C258.384 39.868 258.498 40.204 258.726 40.444C258.954 40.684 259.296 40.804 259.752 40.804C260.016 40.804 260.268 40.774 260.508 40.714C260.76 40.642 261.018 40.51 261.282 40.318L262.074 42.424C261.462 42.928 260.532 43.18 259.284 43.18ZM271.685 33.874V43H268.913L269.003 41.632C268.343 42.664 267.365 43.18 266.069 43.18C265.253 43.18 264.557 42.994 263.981 42.622C263.405 42.25 262.967 41.734 262.667 41.074C262.367 40.414 262.217 39.658 262.217 38.806C262.217 37.786 262.427 36.892 262.847 36.124C263.267 35.356 263.831 34.762 264.539 34.342C265.247 33.91 266.039 33.694 266.915 33.694C267.491 33.694 268.001 33.814 268.445 34.054C268.889 34.282 269.231 34.588 269.471 34.972L269.705 33.874H271.685ZM267.185 36.088C266.525 36.088 266.003 36.334 265.619 36.826C265.247 37.318 265.061 37.948 265.061 38.716C265.061 39.376 265.205 39.886 265.493 40.246C265.793 40.606 266.195 40.786 266.699 40.786C267.311 40.786 267.833 40.534 268.265 40.03C268.709 39.526 268.931 38.866 268.931 38.05C268.931 37.438 268.775 36.958 268.463 36.61C268.151 36.262 267.725 36.088 267.185 36.088ZM276.692 43.18C275.768 43.18 275.054 42.928 274.55 42.424C274.058 41.908 273.812 41.164 273.812 40.192V29.68H276.566V39.994C276.566 40.546 276.824 40.822 277.34 40.822C277.616 40.822 277.85 40.756 278.042 40.624L278.708 42.586C278.504 42.754 278.222 42.892 277.862 43C277.502 43.12 277.112 43.18 276.692 43.18ZM283.797 43.18C282.777 43.18 281.895 42.994 281.151 42.622C280.407 42.238 279.831 41.704 279.423 41.02C279.015 40.324 278.811 39.502 278.811 38.554C278.811 37.594 279.015 36.748 279.423 36.016C279.843 35.284 280.401 34.714 281.097 34.306C281.805 33.898 282.603 33.694 283.491 33.694C284.499 33.694 285.321 33.922 285.957 34.378C286.593 34.834 287.031 35.482 287.271 36.322C287.523 37.15 287.577 38.116 287.433 39.22H281.619C281.691 39.676 281.931 40.06 282.339 40.372C282.747 40.672 283.305 40.822 284.013 40.822C284.337 40.822 284.679 40.756 285.039 40.624C285.399 40.48 285.705 40.27 285.957 39.994L287.487 41.614C287.091 42.094 286.599 42.478 286.011 42.766C285.435 43.042 284.697 43.18 283.797 43.18ZM283.545 35.692C283.065 35.692 282.657 35.836 282.321 36.124C281.997 36.412 281.781 36.814 281.673 37.33H285.111C285.123 36.766 284.985 36.352 284.697 36.088C284.421 35.824 284.037 35.692 283.545 35.692ZM289.123 43V33.838H291.859L291.733 35.8C292.105 35.128 292.579 34.612 293.155 34.252C293.743 33.88 294.397 33.694 295.117 33.694C296.209 33.694 297.025 34.066 297.565 34.81C298.105 35.542 298.369 36.598 298.357 37.978L298.321 43H295.567L295.603 38.176C295.615 37.552 295.519 37.078 295.315 36.754C295.123 36.418 294.811 36.25 294.379 36.25C294.019 36.25 293.689 36.358 293.389 36.574C293.089 36.778 292.825 37.132 292.597 37.636C292.381 38.14 292.207 38.83 292.075 39.706C291.943 40.582 291.871 41.68 291.859 43H289.123ZM304.459 43.18C303.331 43.18 302.437 42.868 301.777 42.244C301.117 41.608 300.793 40.774 300.805 39.742L300.877 36.124H299.365V33.838H300.913L300.931 31.966H303.667L303.649 33.838H306.511V36.124H303.613L303.559 39.436C303.559 39.868 303.673 40.204 303.901 40.444C304.129 40.684 304.471 40.804 304.927 40.804C305.191 40.804 305.443 40.774 305.683 40.714C305.935 40.642 306.193 40.51 306.457 40.318L307.249 42.424C306.637 42.928 305.707 43.18 304.459 43.18ZM312.572 43V33.838H315.308L315.182 35.8C315.554 35.128 316.028 34.612 316.604 34.252C317.192 33.88 317.846 33.694 318.566 33.694C319.658 33.694 320.474 34.066 321.014 34.81C321.554 35.542 321.818 36.598 321.806 37.978L321.77 43H319.016L319.052 38.176C319.064 37.552 318.968 37.078 318.764 36.754C318.572 36.418 318.26 36.25 317.828 36.25C317.468 36.25 317.138 36.358 316.838 36.574C316.538 36.778 316.274 37.132 316.046 37.636C315.83 38.14 315.656 38.83 315.524 39.706C315.392 40.582 315.32 41.68 315.308 43H312.572ZM328.305 43.18C327.285 43.18 326.403 42.994 325.659 42.622C324.915 42.238 324.339 41.704 323.931 41.02C323.523 40.324 323.319 39.502 323.319 38.554C323.319 37.594 323.523 36.748 323.931 36.016C324.351 35.284 324.909 34.714 325.605 34.306C326.313 33.898 327.111 33.694 327.999 33.694C329.007 33.694 329.829 33.922 330.465 34.378C331.101 34.834 331.539 35.482 331.779 36.322C332.031 37.15 332.085 38.116 331.941 39.22H326.127C326.199 39.676 326.439 40.06 326.847 40.372C327.255 40.672 327.813 40.822 328.521 40.822C328.845 40.822 329.187 40.756 329.547 40.624C329.907 40.48 330.213 40.27 330.465 39.994L331.995 41.614C331.599 42.094 331.107 42.478 330.519 42.766C329.943 43.042 329.205 43.18 328.305 43.18ZM328.053 35.692C327.573 35.692 327.165 35.836 326.829 36.124C326.505 36.412 326.289 36.814 326.181 37.33H329.619C329.631 36.766 329.493 36.352 329.205 36.088C328.929 35.824 328.545 35.692 328.053 35.692ZM337.664 43.18C336.536 43.18 335.642 42.868 334.982 42.244C334.322 41.608 333.998 40.774 334.01 39.742L334.082 36.124H332.57V33.838H334.118L334.136 31.966H336.872L336.854 33.838H339.716V36.124H336.818L336.764 39.436C336.764 39.868 336.878 40.204 337.106 40.444C337.334 40.684 337.676 40.804 338.132 40.804C338.396 40.804 338.648 40.774 338.888 40.714C339.14 40.642 339.398 40.51 339.662 40.318L340.454 42.424C339.842 42.928 338.912 43.18 337.664 43.18ZM353.537 33.838H356.255L353.105 43H349.667L348.209 37.708L346.445 43H343.025L340.163 33.838H343.007L344.861 40.372L346.967 33.838H349.595L351.413 40.426L353.537 33.838ZM361.298 33.694C362.726 33.694 363.842 34.102 364.646 34.918C365.462 35.734 365.87 36.838 365.87 38.23C365.87 39.178 365.666 40.024 365.258 40.768C364.85 41.512 364.274 42.1 363.53 42.532C362.786 42.964 361.91 43.18 360.902 43.18C359.486 43.18 358.37 42.772 357.554 41.956C356.75 41.14 356.348 40.042 356.348 38.662C356.348 37.702 356.552 36.85 356.96 36.106C357.368 35.362 357.944 34.774 358.688 34.342C359.432 33.91 360.302 33.694 361.298 33.694ZM361.028 40.786C361.64 40.786 362.126 40.558 362.486 40.102C362.858 39.634 363.044 39.01 363.044 38.23C363.044 37.558 362.882 37.036 362.558 36.664C362.234 36.28 361.79 36.088 361.226 36.088C360.602 36.088 360.104 36.322 359.732 36.79C359.372 37.246 359.192 37.864 359.192 38.644C359.192 39.316 359.348 39.844 359.66 40.228C359.984 40.6 360.44 40.786 361.028 40.786ZM373.821 36.502C373.581 36.406 373.257 36.358 372.849 36.358C372.225 36.358 371.727 36.58 371.355 37.024C370.983 37.456 370.713 38.164 370.545 39.148C370.377 40.12 370.293 41.404 370.293 43H367.557V37.06L367.521 33.838H370.275L370.149 36.124C370.473 35.248 370.905 34.624 371.445 34.252C371.997 33.88 372.585 33.694 373.209 33.694C373.413 33.694 373.599 33.706 373.767 33.73C373.947 33.754 374.127 33.796 374.307 33.856L373.821 36.502ZM375.22 43V29.68H377.974V37.492L381.376 33.838H384.652L380.512 38.266C380.788 38.434 381.016 38.656 381.196 38.932L381.898 40.03C382.27 40.606 382.792 40.894 383.464 40.894C383.824 40.894 384.166 40.804 384.49 40.624L385.084 42.658C384.748 42.85 384.4 42.988 384.04 43.072C383.692 43.156 383.32 43.192 382.924 43.18C382.144 43.168 381.496 43.024 380.98 42.748C380.476 42.472 380.02 42.004 379.612 41.344L378.91 40.246C378.742 39.982 378.586 39.766 378.442 39.598C378.298 39.43 378.142 39.298 377.974 39.202V43H375.22Z" fill="white"/>
</g>
<circle cx="44" cy="44" r="28" fill="#2C6269"/>
<path fill-rule="evenodd" clip-rule="evenodd" d="M14.496 0H28.496C34.1567 0 38.7627 4.606 38.7627 10.2666V10.2667V14.9333C40.8217 14.9333 42.496 16.6078 42.496 18.6667C42.496 20.7256 40.8217 22.4 38.7627 22.4H38.5502C38.2615 26.0674 36.1978 29.2747 33.1626 31.101V32.6667H36.112C38.6031 32.6667 40.6294 34.693 40.6293 37.1842C40.63 37.2541 40.6291 37.3238 40.6266 37.3934L40.7479 37.4014C44.9638 37.9624 48.096 41.5427 48.0961 45.7333V56H46.2294V45.7334C46.2294 42.4733 43.7934 39.6891 40.5613 39.258L40.1566 39.2323C40.0736 39.3986 39.98 39.5606 39.8761 39.7172L35.0293 46.9513V56H33.1626V42.9565C31.5588 44.1449 29.6055 44.8 27.5627 44.8C25.5195 44.8 23.5664 44.1451 21.9627 42.9571V56H20.096V46.9507L15.2512 39.7198C15.1466 39.5623 15.0525 39.3996 14.9691 39.2326L14.5026 39.2634C11.332 39.689 8.896 42.4732 8.896 45.7333V56H7.0293V45.7333C7.0293 41.5426 10.1616 37.9633 14.3167 37.407L14.4985 37.3946C14.4956 37.3215 14.4946 37.2481 14.4952 37.1746C14.4952 34.6929 16.5214 32.6666 19.0125 32.6666H21.9627V31.1315C19.2935 29.5509 17.3031 26.8626 16.7203 23.577C16.6624 23.2503 16.6185 22.9208 16.5905 22.5904L16.5759 22.4H16.3627C14.3037 22.4 12.6294 20.7255 12.6294 18.6666C12.6294 16.6077 14.3037 14.9333 16.3627 14.9333H16.3641L16.3628 10.5691C14.1573 9.51877 12.6294 7.26788 12.6294 4.66659C12.6294 4.15144 13.0475 3.7333 13.5627 3.7333H14.0639C13.7447 3.18358 13.5627 2.54603 13.5627 1.86659V0.933297C13.5627 0.418141 13.9808 0 14.496 0ZM33.1626 35.672V34.5334H36.112C37.5736 34.5334 38.7627 35.7234 38.7627 37.1934C38.7683 37.7264 38.6153 38.2415 38.3231 38.6811L35.0293 43.5973V37.5387C35.0294 37.0226 34.6121 36.6053 34.096 36.6053H33.9373C33.4893 36.5287 33.1589 36.1377 33.1626 35.672ZM29.5135 32.4996C30.1284 32.3806 30.7238 32.2126 31.2959 32V35.6636C31.2866 36.8807 32.0566 37.9363 33.1626 38.3254V40.4479C31.7317 42.032 29.7088 42.9333 27.5627 42.9333C25.4165 42.9333 23.3937 42.0319 21.9627 40.4494V38.3264C23.0678 37.9373 23.8377 36.8826 23.8294 35.672V32.0136C25.0094 32.4416 26.2731 32.6723 27.5731 32.6723C28.2124 32.6723 28.8621 32.6153 29.5135 32.4996ZM20.096 37.5387V43.5959L16.8043 38.6829C16.5103 38.2414 16.3572 37.7253 16.3628 37.1839C16.3627 35.7224 17.5517 34.5333 19.0134 34.5333H21.9627V35.6786C21.9655 36.1377 21.636 36.5288 21.188 36.6054H21.0293C20.5141 36.6054 20.096 37.0226 20.096 37.5387ZM35.1288 11.1999H36.8963L36.8972 14.0611C36.1836 13.4162 35.4006 12.4564 35.1288 11.1999ZM33.2297 11.1999C33.6439 14.0413 35.8705 15.7542 36.8979 16.4045L36.8988 19.5273L36.7019 22.0715C36.4424 26.3238 33.34 29.8584 29.1727 30.6647C24.2037 31.5467 19.4399 28.2213 18.557 23.2503C18.5094 22.9796 18.473 22.7071 18.4506 22.4401L18.2294 19.6V16.4032C19.2576 15.752 21.4817 14.0394 21.8956 11.1999H33.2297ZM16.3627 16.8H16.3647L16.3655 19.6719L16.432 20.5333H16.3627C15.3333 20.5333 14.496 19.6961 14.496 18.6666C14.496 17.6372 15.3333 16.8 16.3627 16.8ZM19.9966 11.1999C19.7249 12.4555 18.9427 13.4148 18.2294 14.0597V11.1334C18.5343 11.1772 18.8459 11.1999 19.1627 11.1999H19.9966ZM38.7627 19.6V16.8C39.7921 16.8 40.6294 17.6372 40.6294 18.6667C40.6294 19.6961 39.7923 20.5334 38.7627 20.5334H38.6914L38.7627 19.6ZM14.5903 5.6C15.0234 7.72702 16.9097 9.3333 19.1627 9.3333V9.33341H36.8437C36.378 5.13898 32.8127 1.8667 28.496 1.8667H15.4293C15.4293 2.89625 16.2666 3.73341 17.296 3.73341C17.8112 3.73341 18.2293 4.15155 18.2293 4.6667C18.2293 5.18186 17.8112 5.6 17.296 5.6H14.5903ZM23.8294 17.7333C23.8294 18.7642 22.9937 19.6 21.9627 19.6C20.9318 19.6 20.096 18.7642 20.096 17.7333C20.096 16.7023 20.9318 15.8666 21.9627 15.8666C22.9937 15.8666 23.8294 16.7023 23.8294 17.7333ZM33.1627 19.6C34.1937 19.6 35.0294 18.7642 35.0294 17.7333C35.0294 16.7023 34.1937 15.8666 33.1627 15.8666C32.1318 15.8666 31.296 16.7023 31.296 17.7333C31.296 18.7642 32.1318 19.6 33.1627 19.6ZM27.0746 20.5333L28.4288 17.1472L26.6957 16.4537L24.829 21.1204C24.7141 21.4079 24.7497 21.7346 24.9233 21.9903C25.0968 22.246 25.3863 22.4 25.6961 22.4H28.4961V20.5333H27.0746ZM25.8547 24.2667C27.3079 24.2657 28.6743 23.7001 29.7028 22.6726L31.0226 23.9933C29.6421 25.3727 27.8063 26.1324 25.8547 26.1334H25.696V24.2667H25.8547ZM17.2961 47.6C17.2961 47.0839 17.7142 46.6667 18.2294 46.6667C18.7446 46.6667 19.1627 47.0839 19.1627 47.6V53.2C19.1627 53.7161 18.7446 54.1333 18.2294 54.1333C17.7142 54.1333 17.2961 53.7161 17.2961 53.2V47.6ZM35.9627 47.6C35.9627 47.0839 36.3799 46.6667 36.896 46.6667C37.4121 46.6667 37.8294 47.0839 37.8293 47.6V53.2C37.8293 53.7161 37.4121 54.1333 36.896 54.1333C36.3799 54.1333 35.9627 53.7161 35.9627 53.2V47.6Z" fill="#79C8C7"/>
<defs>
<clipPath id="clip0_0_3574">
<rect width="445" height="28" fill="white" transform="translate(95 22)"/>
</clipPath>
</defs>
</svg>
