<svg width="540" height="72" viewBox="0 0 540 72" fill="none" xmlns="http://www.w3.org/2000/svg">
<g clip-path="url(#clip0_0_3603)">
<path d="M104.576 30.22H107.492L107.528 37.132C107.528 38.344 107.3 39.406 106.844 40.318C106.388 41.23 105.74 41.938 104.9 42.442C104.06 42.934 103.07 43.18 101.93 43.18C100.034 43.18 98.594 42.712 97.61 41.776C96.638 40.84 96.152 39.442 96.152 37.582V30.22H99.086V37.348C99.086 38.488 99.332 39.31 99.824 39.814C100.316 40.318 101.006 40.57 101.894 40.57C102.77 40.57 103.442 40.282 103.91 39.706C104.39 39.118 104.624 38.206 104.612 36.97L104.576 30.22ZM113.086 43.18C111.754 43.18 110.746 42.934 110.062 42.442C109.378 41.938 108.976 41.278 108.856 40.462L111.142 39.886C111.214 40.234 111.412 40.516 111.736 40.732C112.06 40.936 112.504 41.038 113.068 41.038C113.968 41.038 114.418 40.828 114.418 40.408C114.418 40.192 114.286 40.03 114.022 39.922C113.77 39.802 113.356 39.688 112.78 39.58C111.7 39.388 110.86 39.082 110.26 38.662C109.672 38.242 109.378 37.6 109.378 36.736C109.378 36.148 109.546 35.626 109.882 35.17C110.218 34.714 110.68 34.354 111.268 34.09C111.856 33.826 112.534 33.694 113.302 33.694C114.298 33.694 115.12 33.928 115.768 34.396C116.428 34.864 116.818 35.44 116.938 36.124L114.688 36.736C114.604 36.472 114.436 36.256 114.184 36.088C113.944 35.92 113.614 35.836 113.194 35.836C112.798 35.836 112.504 35.902 112.312 36.034C112.132 36.166 112.042 36.322 112.042 36.502C112.042 36.718 112.168 36.892 112.42 37.024C112.672 37.144 113.116 37.27 113.752 37.402C114.4 37.522 114.97 37.69 115.462 37.906C115.966 38.11 116.356 38.398 116.632 38.77C116.92 39.13 117.064 39.622 117.064 40.246C117.064 40.834 116.89 41.35 116.542 41.794C116.206 42.238 115.738 42.58 115.138 42.82C114.538 43.06 113.854 43.18 113.086 43.18ZM127.457 33.874V43H124.685L124.775 41.632C124.115 42.664 123.137 43.18 121.841 43.18C121.025 43.18 120.329 42.994 119.753 42.622C119.177 42.25 118.739 41.734 118.439 41.074C118.139 40.414 117.989 39.658 117.989 38.806C117.989 37.786 118.199 36.892 118.619 36.124C119.039 35.356 119.603 34.762 120.311 34.342C121.019 33.91 121.811 33.694 122.687 33.694C123.263 33.694 123.773 33.814 124.217 34.054C124.661 34.282 125.003 34.588 125.243 34.972L125.477 33.874H127.457ZM122.957 36.088C122.297 36.088 121.775 36.334 121.391 36.826C121.019 37.318 120.833 37.948 120.833 38.716C120.833 39.376 120.977 39.886 121.265 40.246C121.565 40.606 121.967 40.786 122.471 40.786C123.083 40.786 123.605 40.534 124.037 40.03C124.481 39.526 124.703 38.866 124.703 38.05C124.703 37.438 124.547 36.958 124.235 36.61C123.923 36.262 123.497 36.088 122.957 36.088ZM132.913 46.78C132.553 46.78 132.157 46.75 131.725 46.69C131.305 46.642 130.903 46.564 130.519 46.456C130.135 46.348 129.805 46.204 129.529 46.024L130.195 43.684C130.591 43.888 131.023 44.05 131.491 44.17C131.971 44.302 132.499 44.368 133.075 44.368C134.083 44.368 134.797 44.14 135.217 43.684C135.637 43.228 135.877 42.514 135.937 41.542L135.955 41.38C135.307 42.34 134.347 42.82 133.075 42.82C132.235 42.82 131.521 42.646 130.933 42.298C130.345 41.95 129.895 41.464 129.583 40.84C129.271 40.216 129.115 39.496 129.115 38.68C129.115 37.696 129.319 36.832 129.727 36.088C130.147 35.344 130.711 34.762 131.419 34.342C132.127 33.91 132.931 33.694 133.831 33.694C134.431 33.694 134.953 33.814 135.397 34.054C135.853 34.282 136.201 34.588 136.441 34.972L136.675 33.874H138.655V41.218C138.655 42.466 138.415 43.498 137.935 44.314C137.467 45.142 136.801 45.76 135.937 46.168C135.085 46.576 134.077 46.78 132.913 46.78ZM134.119 36.088C133.447 36.088 132.919 36.316 132.535 36.772C132.151 37.228 131.959 37.804 131.959 38.5C131.959 39.112 132.109 39.586 132.409 39.922C132.721 40.258 133.141 40.426 133.669 40.426C134.089 40.426 134.467 40.318 134.803 40.102C135.139 39.886 135.403 39.586 135.595 39.202C135.799 38.818 135.901 38.38 135.901 37.888C135.901 37.336 135.739 36.898 135.415 36.574C135.091 36.25 134.659 36.088 134.119 36.088ZM145.299 43.18C144.279 43.18 143.397 42.994 142.653 42.622C141.909 42.238 141.333 41.704 140.925 41.02C140.517 40.324 140.313 39.502 140.313 38.554C140.313 37.594 140.517 36.748 140.925 36.016C141.345 35.284 141.903 34.714 142.599 34.306C143.307 33.898 144.105 33.694 144.993 33.694C146.001 33.694 146.823 33.922 147.459 34.378C148.095 34.834 148.533 35.482 148.773 36.322C149.025 37.15 149.079 38.116 148.935 39.22H143.121C143.193 39.676 143.433 40.06 143.841 40.372C144.249 40.672 144.807 40.822 145.515 40.822C145.839 40.822 146.181 40.756 146.541 40.624C146.901 40.48 147.207 40.27 147.459 39.994L148.989 41.614C148.593 42.094 148.101 42.478 147.513 42.766C146.937 43.042 146.199 43.18 145.299 43.18ZM145.047 35.692C144.567 35.692 144.159 35.836 143.823 36.124C143.499 36.412 143.283 36.814 143.175 37.33H146.613C146.625 36.766 146.487 36.352 146.199 36.088C145.923 35.824 145.539 35.692 145.047 35.692ZM159.948 43.144C158.964 43.144 158.088 42.982 157.32 42.658C156.564 42.322 155.97 41.866 155.538 41.29C155.106 40.702 154.89 40.03 154.89 39.274C154.89 38.434 155.082 37.75 155.466 37.222C155.862 36.682 156.33 36.226 156.87 35.854C156.138 35.05 155.772 34.204 155.772 33.316C155.772 32.68 155.934 32.122 156.258 31.642C156.594 31.15 157.05 30.766 157.626 30.49C158.214 30.214 158.886 30.076 159.642 30.076C160.686 30.076 161.52 30.334 162.144 30.85C162.78 31.354 163.098 32.044 163.098 32.92C163.098 33.508 162.984 33.994 162.756 34.378C162.528 34.762 162.228 35.086 161.856 35.35C161.496 35.614 161.112 35.848 160.704 36.052L163.854 39.094C164.178 38.59 164.412 38.002 164.556 37.33H163.098V35.062H168.336V37.33H166.86C166.656 38.542 166.206 39.604 165.51 40.516C165.942 40.768 166.428 40.894 166.968 40.894C167.196 40.894 167.4 40.87 167.58 40.822C167.772 40.762 167.97 40.678 168.174 40.57L168.804 42.55C168.156 42.994 167.37 43.204 166.446 43.18C165.342 43.156 164.364 42.844 163.512 42.244C163.008 42.532 162.456 42.754 161.856 42.91C161.256 43.066 160.62 43.144 159.948 43.144ZM158.418 33.244C158.418 33.436 158.472 33.628 158.58 33.82C158.688 34.012 158.904 34.276 159.228 34.612C159.66 34.384 160.02 34.144 160.308 33.892C160.608 33.64 160.758 33.334 160.758 32.974C160.758 32.662 160.65 32.44 160.434 32.308C160.23 32.164 159.978 32.092 159.678 32.092C159.294 32.092 158.988 32.194 158.76 32.398C158.532 32.59 158.418 32.872 158.418 33.244ZM157.716 38.95C157.716 39.55 157.962 40.03 158.454 40.39C158.946 40.738 159.6 40.912 160.416 40.912C160.908 40.912 161.37 40.84 161.802 40.696L158.4 37.366C158.196 37.558 158.028 37.786 157.896 38.05C157.776 38.302 157.716 38.602 157.716 38.95ZM177.496 33.838V43H174.742V33.838H177.496ZM176.11 32.758C175.582 32.758 175.162 32.596 174.85 32.272C174.538 31.948 174.382 31.564 174.382 31.12C174.382 30.676 174.532 30.292 174.832 29.968C175.144 29.644 175.57 29.482 176.11 29.482C176.638 29.482 177.058 29.644 177.37 29.968C177.682 30.292 177.838 30.676 177.838 31.12C177.838 31.564 177.682 31.948 177.37 32.272C177.058 32.596 176.638 32.758 176.11 32.758ZM179.593 43V33.838H182.329L182.221 35.728C182.605 35.02 183.085 34.504 183.661 34.18C184.237 33.856 184.849 33.694 185.497 33.694C186.133 33.694 186.703 33.856 187.207 34.18C187.711 34.492 188.095 35.002 188.359 35.71C188.767 35.026 189.283 34.522 189.907 34.198C190.543 33.862 191.185 33.694 191.833 33.694C192.913 33.694 193.723 34.066 194.263 34.81C194.803 35.542 195.067 36.598 195.055 37.978L195.019 43H192.265L192.301 38.032C192.301 37.48 192.199 37.048 191.995 36.736C191.791 36.412 191.479 36.25 191.059 36.25C190.735 36.25 190.429 36.352 190.141 36.556C189.865 36.76 189.619 37.114 189.403 37.618C189.187 38.122 189.013 38.812 188.881 39.688C188.761 40.564 188.689 41.668 188.665 43H185.929V38.032C185.929 37.48 185.833 37.048 185.641 36.736C185.449 36.412 185.143 36.25 184.723 36.25C184.399 36.25 184.093 36.352 183.805 36.556C183.529 36.76 183.283 37.114 183.067 37.618C182.851 38.122 182.677 38.812 182.545 39.688C182.413 40.564 182.341 41.668 182.329 43H179.593ZM197.013 46.6V33.838H199.785L199.695 35.242C200.355 34.21 201.333 33.694 202.629 33.694C203.445 33.694 204.141 33.88 204.717 34.252C205.293 34.624 205.731 35.14 206.031 35.8C206.331 36.46 206.481 37.216 206.481 38.068C206.481 39.088 206.271 39.982 205.851 40.75C205.431 41.518 204.867 42.118 204.159 42.55C203.451 42.97 202.659 43.18 201.783 43.18C201.363 43.18 200.979 43.12 200.631 43C200.295 42.88 199.995 42.712 199.731 42.496L199.767 43V46.6H197.013ZM201.495 40.786C202.155 40.786 202.677 40.54 203.061 40.048C203.445 39.544 203.637 38.908 203.637 38.14C203.637 37.492 203.487 36.988 203.187 36.628C202.899 36.268 202.503 36.088 201.999 36.088C201.387 36.088 200.859 36.34 200.415 36.844C199.983 37.348 199.767 38.008 199.767 38.824C199.767 39.424 199.923 39.904 200.235 40.264C200.547 40.612 200.967 40.786 201.495 40.786ZM211.02 43.18C210.096 43.18 209.382 42.928 208.878 42.424C208.386 41.908 208.14 41.164 208.14 40.192V29.68H210.894V39.994C210.894 40.546 211.152 40.822 211.668 40.822C211.944 40.822 212.178 40.756 212.37 40.624L213.036 42.586C212.832 42.754 212.55 42.892 212.19 43C211.83 43.12 211.44 43.18 211.02 43.18ZM218.125 43.18C217.105 43.18 216.223 42.994 215.479 42.622C214.735 42.238 214.159 41.704 213.751 41.02C213.343 40.324 213.139 39.502 213.139 38.554C213.139 37.594 213.343 36.748 213.751 36.016C214.171 35.284 214.729 34.714 215.425 34.306C216.133 33.898 216.931 33.694 217.819 33.694C218.827 33.694 219.649 33.922 220.285 34.378C220.921 34.834 221.359 35.482 221.599 36.322C221.851 37.15 221.905 38.116 221.761 39.22H215.947C216.019 39.676 216.259 40.06 216.667 40.372C217.075 40.672 217.633 40.822 218.341 40.822C218.665 40.822 219.007 40.756 219.367 40.624C219.727 40.48 220.033 40.27 220.285 39.994L221.815 41.614C221.419 42.094 220.927 42.478 220.339 42.766C219.763 43.042 219.025 43.18 218.125 43.18ZM217.873 35.692C217.393 35.692 216.985 35.836 216.649 36.124C216.325 36.412 216.109 36.814 216.001 37.33H219.439C219.451 36.766 219.313 36.352 219.025 36.088C218.749 35.824 218.365 35.692 217.873 35.692ZM223.451 43V33.838H226.187L226.079 35.728C226.463 35.02 226.943 34.504 227.519 34.18C228.095 33.856 228.707 33.694 229.355 33.694C229.991 33.694 230.561 33.856 231.065 34.18C231.569 34.492 231.953 35.002 232.217 35.71C232.625 35.026 233.141 34.522 233.765 34.198C234.401 33.862 235.043 33.694 235.691 33.694C236.771 33.694 237.581 34.066 238.121 34.81C238.661 35.542 238.925 36.598 238.913 37.978L238.877 43H236.123L236.159 38.032C236.159 37.48 236.057 37.048 235.853 36.736C235.649 36.412 235.337 36.25 234.917 36.25C234.593 36.25 234.287 36.352 233.999 36.556C233.723 36.76 233.477 37.114 233.261 37.618C233.045 38.122 232.871 38.812 232.739 39.688C232.619 40.564 232.547 41.668 232.523 43H229.787V38.032C229.787 37.48 229.691 37.048 229.499 36.736C229.307 36.412 229.001 36.25 228.581 36.25C228.257 36.25 227.951 36.352 227.663 36.556C227.387 36.76 227.141 37.114 226.925 37.618C226.709 38.122 226.535 38.812 226.403 39.688C226.271 40.564 226.199 41.668 226.187 43H223.451ZM245.389 43.18C244.369 43.18 243.487 42.994 242.743 42.622C241.999 42.238 241.423 41.704 241.015 41.02C240.607 40.324 240.403 39.502 240.403 38.554C240.403 37.594 240.607 36.748 241.015 36.016C241.435 35.284 241.993 34.714 242.689 34.306C243.397 33.898 244.195 33.694 245.083 33.694C246.091 33.694 246.913 33.922 247.549 34.378C248.185 34.834 248.623 35.482 248.863 36.322C249.115 37.15 249.169 38.116 249.025 39.22H243.211C243.283 39.676 243.523 40.06 243.931 40.372C244.339 40.672 244.897 40.822 245.605 40.822C245.929 40.822 246.271 40.756 246.631 40.624C246.991 40.48 247.297 40.27 247.549 39.994L249.079 41.614C248.683 42.094 248.191 42.478 247.603 42.766C247.027 43.042 246.289 43.18 245.389 43.18ZM245.137 35.692C244.657 35.692 244.249 35.836 243.913 36.124C243.589 36.412 243.373 36.814 243.265 37.33H246.703C246.715 36.766 246.577 36.352 246.289 36.088C246.013 35.824 245.629 35.692 245.137 35.692ZM250.714 43V33.838H253.45L253.324 35.8C253.696 35.128 254.17 34.612 254.746 34.252C255.334 33.88 255.988 33.694 256.708 33.694C257.8 33.694 258.616 34.066 259.156 34.81C259.696 35.542 259.96 36.598 259.948 37.978L259.912 43H257.158L257.194 38.176C257.206 37.552 257.11 37.078 256.906 36.754C256.714 36.418 256.402 36.25 255.97 36.25C255.61 36.25 255.28 36.358 254.98 36.574C254.68 36.778 254.416 37.132 254.188 37.636C253.972 38.14 253.798 38.83 253.666 39.706C253.534 40.582 253.462 41.68 253.45 43H250.714ZM266.051 43.18C264.923 43.18 264.029 42.868 263.369 42.244C262.709 41.608 262.385 40.774 262.397 39.742L262.469 36.124H260.957V33.838H262.505L262.523 31.966H265.259L265.241 33.838H268.103V36.124H265.205L265.151 39.436C265.151 39.868 265.265 40.204 265.493 40.444C265.721 40.684 266.063 40.804 266.519 40.804C266.783 40.804 267.035 40.774 267.275 40.714C267.527 40.642 267.785 40.51 268.049 40.318L268.841 42.424C268.229 42.928 267.299 43.18 266.051 43.18ZM278.453 33.874V43H275.681L275.771 41.632C275.111 42.664 274.133 43.18 272.837 43.18C272.021 43.18 271.325 42.994 270.749 42.622C270.173 42.25 269.735 41.734 269.435 41.074C269.135 40.414 268.985 39.658 268.985 38.806C268.985 37.786 269.195 36.892 269.615 36.124C270.035 35.356 270.599 34.762 271.307 34.342C272.015 33.91 272.807 33.694 273.683 33.694C274.259 33.694 274.769 33.814 275.213 34.054C275.657 34.282 275.999 34.588 276.239 34.972L276.473 33.874H278.453ZM273.953 36.088C273.293 36.088 272.771 36.334 272.387 36.826C272.015 37.318 271.829 37.948 271.829 38.716C271.829 39.376 271.973 39.886 272.261 40.246C272.561 40.606 272.963 40.786 273.467 40.786C274.079 40.786 274.601 40.534 275.033 40.03C275.477 39.526 275.699 38.866 275.699 38.05C275.699 37.438 275.543 36.958 275.231 36.61C274.919 36.262 274.493 36.088 273.953 36.088ZM284.702 43.18C283.574 43.18 282.68 42.868 282.02 42.244C281.36 41.608 281.036 40.774 281.048 39.742L281.12 36.124H279.608V33.838H281.156L281.174 31.966H283.91L283.892 33.838H286.754V36.124H283.856L283.802 39.436C283.802 39.868 283.916 40.204 284.144 40.444C284.372 40.684 284.714 40.804 285.17 40.804C285.434 40.804 285.686 40.774 285.926 40.714C286.178 40.642 286.436 40.51 286.7 40.318L287.492 42.424C286.88 42.928 285.95 43.18 284.702 43.18ZM291.033 33.838V43H288.279V33.838H291.033ZM289.647 32.758C289.119 32.758 288.699 32.596 288.387 32.272C288.075 31.948 287.919 31.564 287.919 31.12C287.919 30.676 288.069 30.292 288.369 29.968C288.681 29.644 289.107 29.482 289.647 29.482C290.175 29.482 290.595 29.644 290.907 29.968C291.219 30.292 291.375 30.676 291.375 31.12C291.375 31.564 291.219 31.948 290.907 32.272C290.595 32.596 290.175 32.758 289.647 32.758ZM297.612 33.694C299.04 33.694 300.156 34.102 300.96 34.918C301.776 35.734 302.184 36.838 302.184 38.23C302.184 39.178 301.98 40.024 301.572 40.768C301.164 41.512 300.588 42.1 299.844 42.532C299.1 42.964 298.224 43.18 297.216 43.18C295.8 43.18 294.684 42.772 293.868 41.956C293.064 41.14 292.662 40.042 292.662 38.662C292.662 37.702 292.866 36.85 293.274 36.106C293.682 35.362 294.258 34.774 295.002 34.342C295.746 33.91 296.616 33.694 297.612 33.694ZM297.342 40.786C297.954 40.786 298.44 40.558 298.8 40.102C299.172 39.634 299.358 39.01 299.358 38.23C299.358 37.558 299.196 37.036 298.872 36.664C298.548 36.28 298.104 36.088 297.54 36.088C296.916 36.088 296.418 36.322 296.046 36.79C295.686 37.246 295.506 37.864 295.506 38.644C295.506 39.316 295.662 39.844 295.974 40.228C296.298 40.6 296.754 40.786 297.342 40.786ZM303.853 43V33.838H306.589L306.463 35.8C306.835 35.128 307.309 34.612 307.885 34.252C308.473 33.88 309.127 33.694 309.847 33.694C310.939 33.694 311.755 34.066 312.295 34.81C312.835 35.542 313.099 36.598 313.087 37.978L313.051 43H310.297L310.333 38.176C310.345 37.552 310.249 37.078 310.045 36.754C309.853 36.418 309.541 36.25 309.109 36.25C308.749 36.25 308.419 36.358 308.119 36.574C307.819 36.778 307.555 37.132 307.327 37.636C307.111 38.14 306.937 38.83 306.805 39.706C306.673 40.582 306.601 41.68 306.589 43H303.853ZM324.085 33.694C325.513 33.694 326.629 34.102 327.433 34.918C328.249 35.734 328.657 36.838 328.657 38.23C328.657 39.178 328.453 40.024 328.045 40.768C327.637 41.512 327.061 42.1 326.317 42.532C325.573 42.964 324.697 43.18 323.689 43.18C322.273 43.18 321.157 42.772 320.341 41.956C319.537 41.14 319.135 40.042 319.135 38.662C319.135 37.702 319.339 36.85 319.747 36.106C320.155 35.362 320.731 34.774 321.475 34.342C322.219 33.91 323.089 33.694 324.085 33.694ZM323.815 40.786C324.427 40.786 324.913 40.558 325.273 40.102C325.645 39.634 325.831 39.01 325.831 38.23C325.831 37.558 325.669 37.036 325.345 36.664C325.021 36.28 324.577 36.088 324.013 36.088C323.389 36.088 322.891 36.322 322.519 36.79C322.159 37.246 321.979 37.864 321.979 38.644C321.979 39.316 322.135 39.844 322.447 40.228C322.771 40.6 323.227 40.786 323.815 40.786ZM330.83 43V36.124H329.138V33.838H330.83V33.55C330.83 32.722 331.01 32.008 331.37 31.408C331.73 30.796 332.216 30.328 332.828 30.004C333.452 29.668 334.154 29.5 334.934 29.5C335.858 29.5 336.608 29.728 337.184 30.184C337.76 30.64 338.114 31.342 338.246 32.29L335.888 32.578C335.852 32.338 335.744 32.152 335.564 32.02C335.384 31.888 335.156 31.822 334.88 31.822C334.46 31.822 334.13 31.954 333.89 32.218C333.662 32.47 333.548 32.836 333.548 33.316V33.838H336.014V36.124H333.584V43H330.83ZM346.163 33.694C347.591 33.694 348.707 34.102 349.511 34.918C350.327 35.734 350.735 36.838 350.735 38.23C350.735 39.178 350.531 40.024 350.123 40.768C349.715 41.512 349.139 42.1 348.395 42.532C347.651 42.964 346.775 43.18 345.767 43.18C344.351 43.18 343.235 42.772 342.419 41.956C341.615 41.14 341.213 40.042 341.213 38.662C341.213 37.702 341.417 36.85 341.825 36.106C342.233 35.362 342.809 34.774 343.553 34.342C344.297 33.91 345.167 33.694 346.163 33.694ZM345.893 40.786C346.505 40.786 346.991 40.558 347.351 40.102C347.723 39.634 347.909 39.01 347.909 38.23C347.909 37.558 347.747 37.036 347.423 36.664C347.099 36.28 346.655 36.088 346.091 36.088C345.467 36.088 344.969 36.322 344.597 36.79C344.237 37.246 344.057 37.864 344.057 38.644C344.057 39.316 344.213 39.844 344.525 40.228C344.849 40.6 345.305 40.786 345.893 40.786ZM355.428 43.18C354.372 43.18 353.574 42.82 353.034 42.1C352.494 41.38 352.23 40.378 352.242 39.094L352.278 33.838H355.032L354.996 38.878C354.996 39.418 355.092 39.844 355.284 40.156C355.476 40.468 355.776 40.624 356.184 40.624C356.532 40.624 356.85 40.516 357.138 40.3C357.426 40.084 357.678 39.724 357.894 39.22C358.11 38.716 358.278 38.026 358.398 37.15C358.53 36.274 358.602 35.17 358.614 33.838H361.278V43H358.524L358.65 41.236C358.29 41.86 357.834 42.34 357.282 42.676C356.73 43.012 356.112 43.18 355.428 43.18ZM369.672 36.502C369.432 36.406 369.108 36.358 368.7 36.358C368.076 36.358 367.578 36.58 367.206 37.024C366.834 37.456 366.564 38.164 366.396 39.148C366.228 40.12 366.144 41.404 366.144 43H363.408V37.06L363.372 33.838H366.126L366 36.124C366.324 35.248 366.756 34.624 367.296 34.252C367.848 33.88 368.436 33.694 369.06 33.694C369.264 33.694 369.45 33.706 369.618 33.73C369.798 33.754 369.978 33.796 370.158 33.856L369.672 36.502ZM378.973 43.18C377.641 43.18 376.633 42.934 375.949 42.442C375.265 41.938 374.863 41.278 374.743 40.462L377.029 39.886C377.101 40.234 377.299 40.516 377.623 40.732C377.947 40.936 378.391 41.038 378.955 41.038C379.855 41.038 380.305 40.828 380.305 40.408C380.305 40.192 380.173 40.03 379.909 39.922C379.657 39.802 379.243 39.688 378.667 39.58C377.587 39.388 376.747 39.082 376.147 38.662C375.559 38.242 375.265 37.6 375.265 36.736C375.265 36.148 375.433 35.626 375.769 35.17C376.105 34.714 376.567 34.354 377.155 34.09C377.743 33.826 378.421 33.694 379.189 33.694C380.185 33.694 381.007 33.928 381.655 34.396C382.315 34.864 382.705 35.44 382.825 36.124L380.575 36.736C380.491 36.472 380.323 36.256 380.071 36.088C379.831 35.92 379.501 35.836 379.081 35.836C378.685 35.836 378.391 35.902 378.199 36.034C378.019 36.166 377.929 36.322 377.929 36.502C377.929 36.718 378.055 36.892 378.307 37.024C378.559 37.144 379.003 37.27 379.639 37.402C380.287 37.522 380.857 37.69 381.349 37.906C381.853 38.11 382.243 38.398 382.519 38.77C382.807 39.13 382.951 39.622 382.951 40.246C382.951 40.834 382.777 41.35 382.429 41.794C382.093 42.238 381.625 42.58 381.025 42.82C380.425 43.06 379.741 43.18 378.973 43.18ZM388.825 33.694C390.253 33.694 391.369 34.102 392.173 34.918C392.989 35.734 393.397 36.838 393.397 38.23C393.397 39.178 393.193 40.024 392.785 40.768C392.377 41.512 391.801 42.1 391.057 42.532C390.313 42.964 389.437 43.18 388.429 43.18C387.013 43.18 385.897 42.772 385.081 41.956C384.277 41.14 383.875 40.042 383.875 38.662C383.875 37.702 384.079 36.85 384.487 36.106C384.895 35.362 385.471 34.774 386.215 34.342C386.959 33.91 387.829 33.694 388.825 33.694ZM388.555 40.786C389.167 40.786 389.653 40.558 390.013 40.102C390.385 39.634 390.571 39.01 390.571 38.23C390.571 37.558 390.409 37.036 390.085 36.664C389.761 36.28 389.317 36.088 388.753 36.088C388.129 36.088 387.631 36.322 387.259 36.79C386.899 37.246 386.719 37.864 386.719 38.644C386.719 39.316 386.875 39.844 387.187 40.228C387.511 40.6 387.967 40.786 388.555 40.786ZM395.57 43V36.124H393.878V33.838H395.57V33.55C395.57 32.722 395.75 32.008 396.11 31.408C396.47 30.796 396.956 30.328 397.568 30.004C398.192 29.668 398.894 29.5 399.674 29.5C400.598 29.5 401.348 29.728 401.924 30.184C402.5 30.64 402.854 31.342 402.986 32.29L400.628 32.578C400.592 32.338 400.484 32.152 400.304 32.02C400.124 31.888 399.896 31.822 399.62 31.822C399.2 31.822 398.87 31.954 398.63 32.218C398.402 32.47 398.288 32.836 398.288 33.316V33.838H400.754V36.124H398.324V43H395.57ZM406.184 43.18C405.056 43.18 404.162 42.868 403.502 42.244C402.842 41.608 402.518 40.774 402.53 39.742L402.602 36.124H401.09V33.838H402.638L402.656 31.966H405.392L405.374 33.838H408.236V36.124H405.338L405.284 39.436C405.284 39.868 405.398 40.204 405.626 40.444C405.854 40.684 406.196 40.804 406.652 40.804C406.916 40.804 407.168 40.774 407.408 40.714C407.66 40.642 407.918 40.51 408.182 40.318L408.974 42.424C408.362 42.928 407.432 43.18 406.184 43.18ZM422.056 33.838H424.774L421.624 43H418.186L416.728 37.708L414.964 43H411.544L408.682 33.838H411.526L413.38 40.372L415.486 33.838H418.114L419.932 40.426L422.056 33.838ZM434.335 33.874V43H431.563L431.653 41.632C430.993 42.664 430.015 43.18 428.719 43.18C427.903 43.18 427.207 42.994 426.631 42.622C426.055 42.25 425.617 41.734 425.317 41.074C425.017 40.414 424.867 39.658 424.867 38.806C424.867 37.786 425.077 36.892 425.497 36.124C425.917 35.356 426.481 34.762 427.189 34.342C427.897 33.91 428.689 33.694 429.565 33.694C430.141 33.694 430.651 33.814 431.095 34.054C431.539 34.282 431.881 34.588 432.121 34.972L432.355 33.874H434.335ZM429.835 36.088C429.175 36.088 428.653 36.334 428.269 36.826C427.897 37.318 427.711 37.948 427.711 38.716C427.711 39.376 427.855 39.886 428.143 40.246C428.443 40.606 428.845 40.786 429.349 40.786C429.961 40.786 430.483 40.534 430.915 40.03C431.359 39.526 431.581 38.866 431.581 38.05C431.581 37.438 431.425 36.958 431.113 36.61C430.801 36.262 430.375 36.088 429.835 36.088ZM442.744 36.502C442.504 36.406 442.18 36.358 441.772 36.358C441.148 36.358 440.65 36.58 440.278 37.024C439.906 37.456 439.636 38.164 439.468 39.148C439.3 40.12 439.216 41.404 439.216 43H436.48V37.06L436.444 33.838H439.198L439.072 36.124C439.396 35.248 439.828 34.624 440.368 34.252C440.92 33.88 441.508 33.694 442.132 33.694C442.336 33.694 442.522 33.706 442.69 33.73C442.87 33.754 443.05 33.796 443.23 33.856L442.744 36.502ZM448.346 43.18C447.326 43.18 446.444 42.994 445.7 42.622C444.956 42.238 444.38 41.704 443.972 41.02C443.564 40.324 443.36 39.502 443.36 38.554C443.36 37.594 443.564 36.748 443.972 36.016C444.392 35.284 444.95 34.714 445.646 34.306C446.354 33.898 447.152 33.694 448.04 33.694C449.048 33.694 449.87 33.922 450.506 34.378C451.142 34.834 451.58 35.482 451.82 36.322C452.072 37.15 452.126 38.116 451.982 39.22H446.168C446.24 39.676 446.48 40.06 446.888 40.372C447.296 40.672 447.854 40.822 448.562 40.822C448.886 40.822 449.228 40.756 449.588 40.624C449.948 40.48 450.254 40.27 450.506 39.994L452.036 41.614C451.64 42.094 451.148 42.478 450.56 42.766C449.984 43.042 449.246 43.18 448.346 43.18ZM448.094 35.692C447.614 35.692 447.206 35.836 446.87 36.124C446.546 36.412 446.33 36.814 446.222 37.33H449.66C449.672 36.766 449.534 36.352 449.246 36.088C448.97 35.824 448.586 35.692 448.094 35.692Z" fill="white"/>
</g>
<circle cx="44" cy="44" r="28" fill="#2C6269"/>
<path fill-rule="evenodd" clip-rule="evenodd" d="M33.9062 53.8125C33.9062 55.0186 32.9249 56 31.7188 56H24.2812C23.0751 56 22.0938 55.0186 22.0938 53.8125V50.5471C20.0357 50.0092 18.0717 49.1948 16.2354 48.1177L13.9244 50.4287C13.0712 51.2815 11.6835 51.2815 10.8307 50.4287L5.57129 45.1693C4.71851 44.3165 4.71851 42.9288 5.57129 42.076L7.88226 39.7646C6.80518 37.9283 5.99084 35.9643 5.45294 33.9062H2.1875C0.981384 33.9062 0 32.9249 0 31.7188V24.2812C0 23.0751 0.981384 22.0938 2.1875 22.0938H5.44568C5.98187 20.0323 6.79535 18.0648 7.87244 16.2251L5.57129 13.924C4.71851 13.0712 4.71851 11.6835 5.57129 10.8307L10.8307 5.57129C11.6835 4.71851 13.0712 4.71851 13.9244 5.57129L16.2174 7.86475C18.0588 6.78253 20.0289 5.96478 22.0938 5.42517V2.1875C22.0938 0.981384 23.0751 0 24.2812 0H31.7188C32.9249 0 33.9062 0.981384 33.9062 2.1875V5.41791C35.9741 5.95581 37.948 6.77271 39.7924 7.85449L42.076 5.57129C42.9288 4.71851 44.3165 4.71851 45.1693 5.57129L50.4287 10.8307C51.2815 11.6835 51.2815 13.0712 50.4287 13.9244L48.1455 16.2076C49.2273 18.052 50.0442 20.0259 50.5821 22.0938H53.8125C55.0186 22.0938 56 23.0751 56 24.2812V31.7188C56 32.9249 55.0186 33.9062 53.8125 33.9062H50.5748C50.0352 35.9711 49.217 37.9412 48.1353 39.7826L50.4283 42.076C51.2811 42.9288 51.2811 44.3165 50.4283 45.1693L45.1693 50.4287C44.3165 51.2815 42.9288 51.2815 42.0756 50.4287L39.7749 48.1276C37.9348 49.2047 35.9673 50.0181 33.9062 50.5543V53.8125ZM16.0713 45.641C16.2747 45.641 16.4785 45.6974 16.6596 45.8127C18.7407 47.1415 21.0167 48.0853 23.4238 48.618C23.9249 48.7291 24.2812 49.173 24.2812 49.6862V53.8125H31.7188V49.6921C31.7188 49.1786 32.0759 48.7343 32.5775 48.624C34.988 48.0934 37.2674 47.1509 39.3519 45.823C39.7843 45.5474 40.3504 45.6094 40.7131 45.9721L43.6227 48.8817L48.8817 43.6227L45.9785 40.7195C45.6154 40.3564 45.5538 39.7894 45.8307 39.3566C47.1641 37.2717 48.1118 34.9902 48.6462 32.5762C48.7569 32.0751 49.2012 31.7188 49.7139 31.7188H53.8125V24.2812H49.7199C49.2064 24.2812 48.762 23.9241 48.6518 23.4225C48.1199 21.0051 47.174 18.7202 45.8405 16.6318C45.5645 16.199 45.6265 15.6329 45.9892 15.2698L48.8817 12.3773L43.6227 7.11835L40.7302 10.0108C40.3675 10.3735 39.801 10.4355 39.3682 10.1595C37.2798 8.82605 34.9949 7.88055 32.5775 7.34821C32.0759 7.23798 31.7188 6.79364 31.7188 6.28009V2.1875H24.2812V6.28607C24.2812 6.79919 23.9249 7.2431 23.4242 7.35419C21.0098 7.88867 18.7283 8.83588 16.6434 10.1693C16.211 10.4462 15.6436 10.3846 15.2809 10.0215L12.3773 7.11835L7.11835 12.3773L10.0279 15.2873C10.3906 15.6496 10.4526 16.2157 10.177 16.6481C8.84912 18.7326 7.90662 21.012 7.37598 23.4225C7.26575 23.9241 6.82141 24.2812 6.30786 24.2812H2.1875V31.7188H6.31384C6.82697 31.7188 7.27087 32.0755 7.38196 32.5762C7.91473 34.9838 8.85895 37.2593 10.1873 39.3404C10.4633 39.7732 10.4017 40.3397 10.0386 40.7025L7.11835 43.6227L12.3773 48.8821L15.2975 45.9614C15.509 45.7504 15.7889 45.641 16.0713 45.641ZM16.7083 39.2917C19.8217 42.4046 23.9108 43.9615 28 43.9615C32.0892 43.9615 36.1783 42.4046 39.2917 39.2917C44.1597 34.4241 45.3646 27.0182 42.2901 20.8641C42.0201 20.3237 41.363 20.1041 40.8229 20.3741C40.2825 20.6441 40.0633 21.3012 40.3333 21.8417C42.9865 27.1528 41.9462 33.5439 37.7451 37.7451C35.0581 40.432 31.5295 41.7753 28 41.7748C24.4714 41.7744 20.9419 40.4312 18.2554 37.7451C12.8819 32.3716 12.8819 23.6284 18.2554 18.2554C22.6026 13.9077 29.38 12.9691 34.736 15.9726C35.2628 16.2682 35.9293 16.0807 36.2249 15.5535C36.5201 15.0267 36.3326 14.3602 35.8058 14.0649C32.8296 12.3961 29.3181 11.7219 25.9167 12.1671C22.4039 12.6268 19.2197 14.1974 16.7083 16.7083C10.4821 22.9346 10.4821 33.0654 16.7083 39.2917ZM38.7572 18.8138C38.4684 18.8138 38.1873 18.6976 37.9826 18.4929C37.7792 18.2896 37.6635 18.0084 37.6635 17.72C37.6635 17.4321 37.7792 17.1501 37.9826 16.9467C38.186 16.7429 38.4684 16.6263 38.7572 16.6263C39.0447 16.6263 39.3267 16.7429 39.5305 16.9467C39.7339 17.1501 39.851 17.4321 39.851 17.72C39.851 18.0084 39.7339 18.2896 39.5305 18.4929C39.3259 18.6976 39.0447 18.8138 38.7572 18.8138ZM26.4564 36.0574C26.1663 36.0574 25.8881 35.9421 25.683 35.737L18.7664 28.8199C18.3391 28.3931 18.3391 27.7005 18.7664 27.2733L22.6893 23.3499C22.8944 23.1448 23.1725 23.0298 23.4626 23.0298C23.7527 23.0298 24.0313 23.1448 24.2364 23.3499L26.4564 25.5703L31.764 20.263C32.1909 19.8358 32.8834 19.8358 33.3107 20.263L37.2341 24.1864C37.6609 24.6132 37.6609 25.3058 37.2341 25.733L27.2301 35.737C27.0246 35.9421 26.7465 36.0574 26.4564 36.0574ZM21.0863 28.0466L26.4564 33.4166L34.9137 24.9597L32.5374 22.5834L27.2301 27.8906C27.025 28.0957 26.7465 28.2111 26.4564 28.2111C26.1663 28.2111 25.8881 28.0957 25.683 27.8906L23.4626 25.6702L21.0863 28.0466Z" fill="#79C8C7"/>
<defs>
<clipPath id="clip0_0_3603">
<rect width="445" height="28" fill="white" transform="translate(95 22)"/>
</clipPath>
</defs>
</svg>
