<svg width="540" height="94" viewBox="0 0 540 94" fill="none" xmlns="http://www.w3.org/2000/svg">
<g clip-path="url(#clip0_0_4348)">
<path opacity="0.8" d="M100.835 62.135C99.755 62.145 98.83 61.945 98.06 61.535C97.29 61.115 96.7 60.51 96.29 59.72C95.88 58.93 95.675 57.98 95.675 56.87C95.675 55.76 95.895 54.78 96.335 53.93C96.775 53.07 97.395 52.4 98.195 51.92C99.005 51.44 99.96 51.2 101.06 51.2C102.04 51.2 102.9 51.42 103.64 51.86C104.38 52.3 104.955 52.915 105.365 53.705C105.775 54.485 105.98 55.405 105.98 56.465C105.98 57.615 105.755 58.615 105.305 59.465C104.865 60.305 104.255 60.96 103.475 61.43C102.705 61.9 101.825 62.135 100.835 62.135ZM100.775 60.38C101.405 60.38 101.96 60.225 102.44 59.915C102.93 59.605 103.31 59.16 103.58 58.58C103.86 58 104 57.295 104 56.465C104 55.395 103.73 54.54 103.19 53.9C102.65 53.26 101.925 52.94 101.015 52.94C100.365 52.94 99.785 53.105 99.275 53.435C98.775 53.765 98.38 54.22 98.09 54.8C97.8 55.38 97.655 56.06 97.655 56.84C97.655 57.97 97.93 58.845 98.48 59.465C99.04 60.075 99.805 60.38 100.775 60.38ZM110.05 62.135C109.21 62.135 108.575 61.85 108.145 61.28C107.725 60.71 107.52 59.92 107.53 58.91L107.56 54.425H109.39L109.36 58.745C109.35 59.265 109.44 59.675 109.63 59.975C109.82 60.275 110.12 60.425 110.53 60.425C110.85 60.425 111.145 60.33 111.415 60.14C111.695 59.95 111.935 59.63 112.135 59.18C112.335 58.72 112.49 58.105 112.6 57.335C112.72 56.555 112.78 55.585 112.78 54.425H114.55V62H112.705L112.81 60.275C112.51 60.885 112.12 61.35 111.64 61.67C111.17 61.98 110.64 62.135 110.05 62.135ZM121.357 56.195C121.157 56.125 120.902 56.09 120.592 56.09C120.052 56.09 119.617 56.29 119.287 56.69C118.957 57.08 118.712 57.71 118.552 58.58C118.402 59.44 118.327 60.58 118.327 62H116.512V57.11L116.497 54.425H118.327L118.237 56.54C118.497 55.73 118.857 55.155 119.317 54.815C119.787 54.475 120.287 54.305 120.817 54.305C120.977 54.305 121.127 54.315 121.267 54.335C121.407 54.355 121.537 54.385 121.657 54.425L121.357 56.195ZM129.643 62.135C128.493 62.135 127.583 61.805 126.913 61.145C126.243 60.475 125.908 59.545 125.908 58.355C125.908 57.555 126.073 56.85 126.403 56.24C126.733 55.63 127.193 55.155 127.783 54.815C128.373 54.475 129.053 54.305 129.823 54.305C130.463 54.305 131.023 54.43 131.503 54.68C131.983 54.93 132.373 55.32 132.673 55.85L131.368 56.84C131.178 56.52 130.958 56.29 130.708 56.15C130.468 56.01 130.173 55.94 129.823 55.94C129.233 55.94 128.748 56.16 128.368 56.6C127.998 57.04 127.813 57.62 127.813 58.34C127.813 59.04 127.978 59.58 128.308 59.96C128.648 60.33 129.133 60.515 129.763 60.515C130.093 60.515 130.398 60.44 130.678 60.29C130.968 60.14 131.208 59.905 131.398 59.585L132.673 60.605C132.333 61.155 131.903 61.55 131.383 61.79C130.863 62.02 130.283 62.135 129.643 62.135ZM136.08 62.135C135.24 62.135 134.605 61.85 134.175 61.28C133.755 60.71 133.55 59.92 133.56 58.91L133.59 54.425H135.42L135.39 58.745C135.38 59.265 135.47 59.675 135.66 59.975C135.85 60.275 136.15 60.425 136.56 60.425C136.88 60.425 137.175 60.33 137.445 60.14C137.725 59.95 137.965 59.63 138.165 59.18C138.365 58.72 138.52 58.105 138.63 57.335C138.75 56.555 138.81 55.585 138.81 54.425H140.58V62H138.735L138.84 60.275C138.54 60.885 138.15 61.35 137.67 61.67C137.2 61.98 136.67 62.135 136.08 62.135ZM145.183 62.135C144.143 62.135 143.348 61.94 142.798 61.55C142.248 61.15 141.928 60.595 141.838 59.885L143.383 59.51C143.443 59.89 143.618 60.185 143.908 60.395C144.198 60.595 144.613 60.695 145.153 60.695C145.593 60.695 145.923 60.625 146.143 60.485C146.373 60.345 146.488 60.155 146.488 59.915C146.488 59.675 146.363 59.49 146.113 59.36C145.873 59.23 145.498 59.115 144.988 59.015C144.418 58.905 143.928 58.765 143.518 58.595C143.118 58.425 142.808 58.195 142.588 57.905C142.378 57.605 142.273 57.215 142.273 56.735C142.273 56.275 142.403 55.865 142.663 55.505C142.923 55.135 143.278 54.845 143.728 54.635C144.188 54.415 144.713 54.305 145.303 54.305C146.093 54.305 146.738 54.49 147.238 54.86C147.748 55.23 148.053 55.705 148.153 56.285L146.638 56.69C146.568 56.4 146.418 56.175 146.188 56.015C145.958 55.845 145.648 55.76 145.258 55.76C144.868 55.76 144.568 55.84 144.358 56C144.158 56.16 144.058 56.36 144.058 56.6C144.058 56.84 144.173 57.03 144.403 57.17C144.643 57.3 145.048 57.425 145.618 57.545C146.148 57.655 146.608 57.795 146.998 57.965C147.398 58.125 147.713 58.35 147.943 58.64C148.173 58.92 148.288 59.3 148.288 59.78C148.288 60.25 148.153 60.665 147.883 61.025C147.623 61.375 147.258 61.65 146.788 61.85C146.318 62.04 145.783 62.135 145.183 62.135ZM152.666 62.135C151.756 62.135 151.046 61.885 150.536 61.385C150.036 60.885 149.791 60.23 149.801 59.42L149.861 55.955H148.571V54.425H149.891L149.906 52.865H151.736L151.706 54.425H154.181V55.955H151.691L151.646 59.225C151.636 59.635 151.736 59.96 151.946 60.2C152.166 60.43 152.491 60.545 152.921 60.545C153.151 60.545 153.366 60.515 153.566 60.455C153.766 60.395 153.976 60.285 154.196 60.125L154.736 61.535C154.506 61.735 154.211 61.885 153.851 61.985C153.491 62.085 153.096 62.135 152.666 62.135ZM158.944 54.305C160.074 54.305 160.959 54.645 161.599 55.325C162.249 55.995 162.574 56.905 162.574 58.055C162.574 58.835 162.409 59.535 162.079 60.155C161.759 60.765 161.304 61.25 160.714 61.61C160.124 61.96 159.439 62.135 158.659 62.135C157.529 62.135 156.639 61.8 155.989 61.13C155.349 60.46 155.029 59.545 155.029 58.385C155.029 57.605 155.189 56.91 155.509 56.3C155.839 55.68 156.294 55.195 156.874 54.845C157.464 54.485 158.154 54.305 158.944 54.305ZM158.719 60.53C159.309 60.53 159.784 60.305 160.144 59.855C160.504 59.405 160.684 58.805 160.684 58.055C160.684 57.375 160.524 56.85 160.204 56.48C159.894 56.11 159.464 55.925 158.914 55.925C158.304 55.925 157.819 56.15 157.459 56.6C157.099 57.05 156.919 57.645 156.919 58.385C156.919 59.065 157.074 59.595 157.384 59.975C157.704 60.345 158.149 60.53 158.719 60.53ZM164.163 62V54.425H165.993L165.903 56.285C166.213 55.595 166.613 55.095 167.103 54.785C167.603 54.465 168.138 54.305 168.708 54.305C169.258 54.305 169.743 54.455 170.163 54.755C170.583 55.055 170.883 55.525 171.063 56.165C171.383 55.535 171.803 55.07 172.323 54.77C172.853 54.46 173.398 54.305 173.958 54.305C174.798 54.305 175.433 54.6 175.863 55.19C176.303 55.77 176.518 56.605 176.508 57.695L176.478 62H174.648L174.678 57.755C174.678 57.205 174.578 56.78 174.378 56.48C174.178 56.17 173.868 56.015 173.448 56.015C173.158 56.015 172.878 56.11 172.608 56.3C172.348 56.48 172.113 56.795 171.903 57.245C171.703 57.695 171.543 58.31 171.423 59.09C171.303 59.86 171.238 60.83 171.228 62H169.413V57.755C169.413 57.205 169.318 56.78 169.128 56.48C168.938 56.17 168.633 56.015 168.213 56.015C167.923 56.015 167.643 56.11 167.373 56.3C167.113 56.48 166.878 56.795 166.668 57.245C166.468 57.695 166.303 58.31 166.173 59.09C166.053 59.86 165.988 60.83 165.978 62H164.163ZM180.188 54.425V62H178.358V54.425H180.188ZM179.273 53.225C178.913 53.225 178.628 53.115 178.418 52.895C178.208 52.675 178.103 52.41 178.103 52.1C178.103 51.79 178.208 51.525 178.418 51.305C178.628 51.085 178.913 50.975 179.273 50.975C179.633 50.975 179.918 51.085 180.128 51.305C180.338 51.525 180.443 51.79 180.443 52.1C180.443 52.41 180.338 52.675 180.128 52.895C179.918 53.115 179.633 53.225 179.273 53.225ZM181.612 62V60.635L185.347 55.955H181.762V54.425H187.642V55.745L183.907 60.47H187.627V62H181.612ZM192.446 62.135C191.626 62.135 190.916 61.985 190.316 61.685C189.726 61.375 189.271 60.935 188.951 60.365C188.631 59.795 188.471 59.115 188.471 58.325C188.471 57.535 188.636 56.84 188.966 56.24C189.296 55.63 189.741 55.155 190.301 54.815C190.871 54.475 191.516 54.305 192.236 54.305C193.406 54.305 194.266 54.705 194.816 55.505C195.376 56.295 195.571 57.39 195.401 58.79H190.331C190.371 59.32 190.586 59.745 190.976 60.065C191.366 60.385 191.901 60.545 192.581 60.545C192.901 60.545 193.221 60.475 193.541 60.335C193.871 60.195 194.151 59.98 194.381 59.69L195.446 60.77C195.106 61.2 194.691 61.535 194.201 61.775C193.721 62.015 193.136 62.135 192.446 62.135ZM192.266 55.685C191.756 55.685 191.336 55.845 191.006 56.165C190.676 56.485 190.466 56.915 190.376 57.455H193.826C193.846 56.835 193.711 56.385 193.421 56.105C193.131 55.825 192.746 55.685 192.266 55.685ZM204.056 50.9V62H202.196L202.256 60.68C201.986 61.15 201.636 61.51 201.206 61.76C200.776 62.01 200.276 62.135 199.706 62.135C199.046 62.135 198.486 61.985 198.026 61.685C197.566 61.375 197.216 60.95 196.976 60.41C196.736 59.87 196.616 59.25 196.616 58.55C196.616 57.71 196.781 56.975 197.111 56.345C197.441 55.705 197.891 55.205 198.461 54.845C199.041 54.485 199.691 54.305 200.411 54.305C200.791 54.305 201.136 54.37 201.446 54.5C201.766 54.63 202.031 54.81 202.241 55.04L202.226 54.425V50.9H204.056ZM200.546 55.925C199.926 55.925 199.431 56.16 199.061 56.63C198.691 57.1 198.506 57.715 198.506 58.475C198.506 59.125 198.646 59.63 198.926 59.99C199.206 60.35 199.591 60.53 200.081 60.53C200.481 60.53 200.841 60.415 201.161 60.185C201.491 59.955 201.751 59.635 201.941 59.225C202.131 58.815 202.226 58.345 202.226 57.815C202.226 57.225 202.076 56.765 201.776 56.435C201.476 56.095 201.066 55.925 200.546 55.925ZM209.647 65V54.425H211.492L211.432 55.775C211.702 55.305 212.052 54.945 212.482 54.695C212.912 54.435 213.412 54.305 213.982 54.305C214.652 54.305 215.217 54.46 215.677 54.77C216.137 55.08 216.487 55.505 216.727 56.045C216.967 56.585 217.087 57.2 217.087 57.89C217.087 58.73 216.922 59.47 216.592 60.11C216.262 60.75 215.807 61.25 215.227 61.61C214.657 61.96 214.007 62.135 213.277 62.135C212.897 62.135 212.552 62.07 212.242 61.94C211.932 61.81 211.672 61.635 211.462 61.415L211.477 62V65H209.647ZM213.142 60.53C213.772 60.53 214.272 60.29 214.642 59.81C215.012 59.33 215.197 58.71 215.197 57.95C215.197 57.31 215.057 56.815 214.777 56.465C214.497 56.105 214.112 55.925 213.622 55.925C213.212 55.925 212.847 56.04 212.527 56.27C212.207 56.49 211.952 56.805 211.762 57.215C211.572 57.615 211.477 58.08 211.477 58.61C211.477 59.2 211.627 59.67 211.927 60.02C212.227 60.36 212.632 60.53 213.142 60.53ZM220.86 62.135C220.14 62.135 219.595 61.94 219.225 61.55C218.855 61.16 218.67 60.605 218.67 59.885V50.9H220.5V59.735C220.5 60.275 220.75 60.545 221.25 60.545C221.5 60.545 221.72 60.485 221.91 60.365L222.36 61.7C222.2 61.82 221.985 61.92 221.715 62C221.445 62.09 221.16 62.135 220.86 62.135ZM230.057 54.455V62H228.197L228.257 60.68C227.987 61.14 227.632 61.5 227.192 61.76C226.762 62.01 226.267 62.135 225.707 62.135C225.047 62.135 224.487 61.985 224.027 61.685C223.567 61.375 223.217 60.95 222.977 60.41C222.737 59.87 222.617 59.25 222.617 58.55C222.617 57.71 222.782 56.975 223.112 56.345C223.442 55.705 223.892 55.205 224.462 54.845C225.042 54.485 225.692 54.305 226.412 54.305C226.892 54.305 227.317 54.41 227.687 54.62C228.057 54.82 228.342 55.09 228.542 55.43L228.722 54.455H230.057ZM226.547 55.925C225.927 55.925 225.432 56.16 225.062 56.63C224.692 57.1 224.507 57.715 224.507 58.475C224.507 59.125 224.647 59.63 224.927 59.99C225.207 60.35 225.592 60.53 226.082 60.53C226.482 60.53 226.842 60.415 227.162 60.185C227.492 59.955 227.752 59.635 227.942 59.225C228.132 58.815 228.227 58.345 228.227 57.815C228.227 57.225 228.077 56.765 227.777 56.435C227.477 56.095 227.067 55.925 226.547 55.925ZM235.21 62.135C234.3 62.135 233.59 61.885 233.08 61.385C232.58 60.885 232.335 60.23 232.345 59.42L232.405 55.955H231.115V54.425H232.435L232.45 52.865H234.28L234.25 54.425H236.725V55.955H234.235L234.19 59.225C234.18 59.635 234.28 59.96 234.49 60.2C234.71 60.43 235.035 60.545 235.465 60.545C235.695 60.545 235.91 60.515 236.11 60.455C236.31 60.395 236.52 60.285 236.74 60.125L237.28 61.535C237.05 61.735 236.755 61.885 236.395 61.985C236.035 62.085 235.64 62.135 235.21 62.135ZM238.454 62V55.955H237.014V54.425H238.454V54.02C238.454 53.35 238.589 52.775 238.859 52.295C239.139 51.805 239.514 51.425 239.984 51.155C240.464 50.885 241.014 50.75 241.634 50.75C242.374 50.75 242.964 50.935 243.404 51.305C243.854 51.665 244.124 52.21 244.214 52.94L242.654 53.12C242.624 52.86 242.514 52.66 242.324 52.52C242.134 52.37 241.889 52.295 241.589 52.295C241.179 52.295 240.854 52.43 240.614 52.7C240.384 52.97 240.269 53.355 240.269 53.855V54.425H242.519V55.955H240.299V62H238.454ZM246.732 54.305C247.862 54.305 248.747 54.645 249.387 55.325C250.037 55.995 250.362 56.905 250.362 58.055C250.362 58.835 250.197 59.535 249.867 60.155C249.547 60.765 249.092 61.25 248.502 61.61C247.912 61.96 247.227 62.135 246.447 62.135C245.317 62.135 244.427 61.8 243.777 61.13C243.137 60.46 242.817 59.545 242.817 58.385C242.817 57.605 242.977 56.91 243.297 56.3C243.627 55.68 244.082 55.195 244.662 54.845C245.252 54.485 245.942 54.305 246.732 54.305ZM246.507 60.53C247.097 60.53 247.572 60.305 247.932 59.855C248.292 59.405 248.472 58.805 248.472 58.055C248.472 57.375 248.312 56.85 247.992 56.48C247.682 56.11 247.252 55.925 246.702 55.925C246.092 55.925 245.607 56.15 245.247 56.6C244.887 57.05 244.707 57.645 244.707 58.385C244.707 59.065 244.862 59.595 245.172 59.975C245.492 60.345 245.937 60.53 246.507 60.53ZM256.812 56.195C256.612 56.125 256.357 56.09 256.047 56.09C255.507 56.09 255.072 56.29 254.742 56.69C254.412 57.08 254.167 57.71 254.007 58.58C253.857 59.44 253.782 60.58 253.782 62H251.967V57.11L251.952 54.425H253.782L253.692 56.54C253.952 55.73 254.312 55.155 254.772 54.815C255.242 54.475 255.742 54.305 256.272 54.305C256.432 54.305 256.582 54.315 256.722 54.335C256.862 54.355 256.992 54.385 257.112 54.425L256.812 56.195ZM258.075 62V54.425H259.905L259.815 56.285C260.125 55.595 260.525 55.095 261.015 54.785C261.515 54.465 262.05 54.305 262.62 54.305C263.17 54.305 263.655 54.455 264.075 54.755C264.495 55.055 264.795 55.525 264.975 56.165C265.295 55.535 265.715 55.07 266.235 54.77C266.765 54.46 267.31 54.305 267.87 54.305C268.71 54.305 269.345 54.6 269.775 55.19C270.215 55.77 270.43 56.605 270.42 57.695L270.39 62H268.56L268.59 57.755C268.59 57.205 268.49 56.78 268.29 56.48C268.09 56.17 267.78 56.015 267.36 56.015C267.07 56.015 266.79 56.11 266.52 56.3C266.26 56.48 266.025 56.795 265.815 57.245C265.615 57.695 265.455 58.31 265.335 59.09C265.215 59.86 265.15 60.83 265.14 62H263.325V57.755C263.325 57.205 263.23 56.78 263.04 56.48C262.85 56.17 262.545 56.015 262.125 56.015C261.835 56.015 261.555 56.11 261.285 56.3C261.025 56.48 260.79 56.795 260.58 57.245C260.38 57.695 260.215 58.31 260.085 59.09C259.965 59.86 259.9 60.83 259.89 62H258.075ZM286.176 54.425H287.991L285.306 62H283.056L281.571 56.945L279.801 62H277.551L275.166 54.425H277.071L278.751 60.215L280.731 54.425H282.531L284.196 60.26L286.176 54.425ZM290.725 54.425V62H288.895V54.425H290.725ZM289.81 53.225C289.45 53.225 289.165 53.115 288.955 52.895C288.745 52.675 288.64 52.41 288.64 52.1C288.64 51.79 288.745 51.525 288.955 51.305C289.165 51.085 289.45 50.975 289.81 50.975C290.17 50.975 290.455 51.085 290.665 51.305C290.875 51.525 290.98 51.79 290.98 52.1C290.98 52.41 290.875 52.675 290.665 52.895C290.455 53.115 290.17 53.225 289.81 53.225ZM295.884 62.135C294.974 62.135 294.264 61.885 293.754 61.385C293.254 60.885 293.009 60.23 293.019 59.42L293.079 55.955H291.789V54.425H293.109L293.124 52.865H294.954L294.924 54.425H297.399V55.955H294.909L294.864 59.225C294.854 59.635 294.954 59.96 295.164 60.2C295.384 60.43 295.709 60.545 296.139 60.545C296.369 60.545 296.584 60.515 296.784 60.455C296.984 60.395 297.194 60.285 297.414 60.125L297.954 61.535C297.724 61.735 297.429 61.885 297.069 61.985C296.709 62.085 296.314 62.135 295.884 62.135ZM298.753 62V50.9H300.583L300.598 54.425L300.493 56.315C300.793 55.675 301.188 55.18 301.678 54.83C302.178 54.48 302.748 54.305 303.388 54.305C304.238 54.305 304.878 54.6 305.308 55.19C305.748 55.77 305.963 56.605 305.953 57.695L305.923 62H304.093L304.123 57.845C304.133 57.255 304.038 56.805 303.838 56.495C303.648 56.175 303.338 56.015 302.908 56.015C302.578 56.015 302.273 56.11 301.993 56.3C301.713 56.49 301.468 56.815 301.258 57.275C301.048 57.725 300.883 58.34 300.763 59.12C300.643 59.89 300.578 60.85 300.568 62H298.753ZM313.269 54.425V62H311.439V54.425H313.269ZM312.354 53.225C311.994 53.225 311.709 53.115 311.499 52.895C311.289 52.675 311.184 52.41 311.184 52.1C311.184 51.79 311.289 51.525 311.499 51.305C311.709 51.085 311.994 50.975 312.354 50.975C312.714 50.975 312.999 51.085 313.209 51.305C313.419 51.525 313.524 51.79 313.524 52.1C313.524 52.41 313.419 52.675 313.209 52.895C312.999 53.115 312.714 53.225 312.354 53.225ZM315.218 62V54.425H317.048L316.958 56.33C317.248 55.68 317.643 55.18 318.143 54.83C318.643 54.48 319.213 54.305 319.853 54.305C320.703 54.305 321.343 54.6 321.773 55.19C322.213 55.77 322.428 56.605 322.418 57.695L322.388 62H320.558L320.588 57.845C320.598 57.255 320.503 56.805 320.303 56.495C320.113 56.175 319.803 56.015 319.373 56.015C319.043 56.015 318.738 56.11 318.458 56.3C318.178 56.49 317.933 56.815 317.723 57.275C317.513 57.725 317.348 58.34 317.228 59.12C317.108 59.89 317.043 60.85 317.033 62H315.218ZM324.181 58.985V57.335H328.666V58.985H324.181ZM330.54 62V50.9H332.37V54.425L332.31 55.805C332.58 55.325 332.93 54.955 333.36 54.695C333.8 54.435 334.305 54.305 334.875 54.305C335.545 54.305 336.11 54.46 336.57 54.77C337.03 55.08 337.38 55.505 337.62 56.045C337.86 56.585 337.98 57.2 337.98 57.89C337.98 58.73 337.815 59.47 337.485 60.11C337.155 60.75 336.7 61.25 336.12 61.61C335.55 61.96 334.905 62.135 334.185 62.135C333.695 62.135 333.265 62.035 332.895 61.835C332.525 61.625 332.245 61.35 332.055 61.01L331.875 62H330.54ZM334.035 60.53C334.665 60.53 335.165 60.29 335.535 59.81C335.905 59.33 336.09 58.71 336.09 57.95C336.09 57.31 335.95 56.815 335.67 56.465C335.39 56.105 335.005 55.925 334.515 55.925C334.105 55.925 333.74 56.04 333.42 56.27C333.1 56.49 332.845 56.805 332.655 57.215C332.465 57.615 332.37 58.08 332.37 58.61C332.37 59.2 332.52 59.67 332.82 60.02C333.12 60.36 333.525 60.53 334.035 60.53ZM341.979 62.135C341.139 62.135 340.504 61.85 340.074 61.28C339.654 60.71 339.449 59.92 339.459 58.91L339.489 54.425H341.319L341.289 58.745C341.279 59.265 341.369 59.675 341.559 59.975C341.749 60.275 342.049 60.425 342.459 60.425C342.779 60.425 343.074 60.33 343.344 60.14C343.624 59.95 343.864 59.63 344.064 59.18C344.264 58.72 344.419 58.105 344.529 57.335C344.649 56.555 344.709 55.585 344.709 54.425H346.479V62H344.634L344.739 60.275C344.439 60.885 344.049 61.35 343.569 61.67C343.099 61.98 342.569 62.135 341.979 62.135ZM350.256 54.425V62H348.426V54.425H350.256ZM349.341 53.225C348.981 53.225 348.696 53.115 348.486 52.895C348.276 52.675 348.171 52.41 348.171 52.1C348.171 51.79 348.276 51.525 348.486 51.305C348.696 51.085 348.981 50.975 349.341 50.975C349.701 50.975 349.986 51.085 350.196 51.305C350.406 51.525 350.511 51.79 350.511 52.1C350.511 52.41 350.406 52.675 350.196 52.895C349.986 53.115 349.701 53.225 349.341 53.225ZM354.395 62.135C353.675 62.135 353.13 61.94 352.76 61.55C352.39 61.16 352.205 60.605 352.205 59.885V50.9H354.035V59.735C354.035 60.275 354.285 60.545 354.785 60.545C355.035 60.545 355.255 60.485 355.445 60.365L355.895 61.7C355.735 61.82 355.52 61.92 355.25 62C354.98 62.09 354.695 62.135 354.395 62.135ZM359.649 62.135C358.739 62.135 358.029 61.885 357.519 61.385C357.019 60.885 356.774 60.23 356.784 59.42L356.844 55.955H355.554V54.425H356.874L356.889 52.865H358.719L358.689 54.425H361.164V55.955H358.674L358.629 59.225C358.619 59.635 358.719 59.96 358.929 60.2C359.149 60.43 359.474 60.545 359.904 60.545C360.134 60.545 360.349 60.515 360.549 60.455C360.749 60.395 360.959 60.285 361.179 60.125L361.719 61.535C361.489 61.735 361.194 61.885 360.834 61.985C360.474 62.085 360.079 62.135 359.649 62.135ZM373.245 54.455V62H371.385L371.445 60.68C371.175 61.14 370.82 61.5 370.38 61.76C369.95 62.01 369.455 62.135 368.895 62.135C368.235 62.135 367.675 61.985 367.215 61.685C366.755 61.375 366.405 60.95 366.165 60.41C365.925 59.87 365.805 59.25 365.805 58.55C365.805 57.71 365.97 56.975 366.3 56.345C366.63 55.705 367.08 55.205 367.65 54.845C368.23 54.485 368.88 54.305 369.6 54.305C370.08 54.305 370.505 54.41 370.875 54.62C371.245 54.82 371.53 55.09 371.73 55.43L371.91 54.455H373.245ZM369.735 55.925C369.115 55.925 368.62 56.16 368.25 56.63C367.88 57.1 367.695 57.715 367.695 58.475C367.695 59.125 367.835 59.63 368.115 59.99C368.395 60.35 368.78 60.53 369.27 60.53C369.67 60.53 370.03 60.415 370.35 60.185C370.68 59.955 370.94 59.635 371.13 59.225C371.32 58.815 371.415 58.345 371.415 57.815C371.415 57.225 371.265 56.765 370.965 56.435C370.665 56.095 370.255 55.925 369.735 55.925ZM375.189 62V54.425H377.019L376.929 56.33C377.219 55.68 377.614 55.18 378.114 54.83C378.614 54.48 379.184 54.305 379.824 54.305C380.674 54.305 381.314 54.6 381.744 55.19C382.184 55.77 382.399 56.605 382.389 57.695L382.359 62H380.529L380.559 57.845C380.569 57.255 380.474 56.805 380.274 56.495C380.084 56.175 379.774 56.015 379.344 56.015C379.014 56.015 378.709 56.11 378.429 56.3C378.149 56.49 377.904 56.815 377.694 57.275C377.484 57.725 377.319 58.34 377.199 59.12C377.079 59.89 377.014 60.85 377.004 62H375.189ZM391.307 54.455V62H389.447L389.507 60.68C389.237 61.14 388.882 61.5 388.442 61.76C388.012 62.01 387.517 62.135 386.957 62.135C386.297 62.135 385.737 61.985 385.277 61.685C384.817 61.375 384.467 60.95 384.227 60.41C383.987 59.87 383.867 59.25 383.867 58.55C383.867 57.71 384.032 56.975 384.362 56.345C384.692 55.705 385.142 55.205 385.712 54.845C386.292 54.485 386.942 54.305 387.662 54.305C388.142 54.305 388.567 54.41 388.937 54.62C389.307 54.82 389.592 55.09 389.792 55.43L389.972 54.455H391.307ZM387.797 55.925C387.177 55.925 386.682 56.16 386.312 56.63C385.942 57.1 385.757 57.715 385.757 58.475C385.757 59.125 385.897 59.63 386.177 59.99C386.457 60.35 386.842 60.53 387.332 60.53C387.732 60.53 388.092 60.415 388.412 60.185C388.742 59.955 389.002 59.635 389.192 59.225C389.382 58.815 389.477 58.345 389.477 57.815C389.477 57.225 389.327 56.765 389.027 56.435C388.727 56.095 388.317 55.925 387.797 55.925ZM395.44 62.135C394.72 62.135 394.175 61.94 393.805 61.55C393.435 61.16 393.25 60.605 393.25 59.885V50.9H395.08V59.735C395.08 60.275 395.33 60.545 395.83 60.545C396.08 60.545 396.3 60.485 396.49 60.365L396.94 61.7C396.78 61.82 396.565 61.92 396.295 62C396.025 62.09 395.74 62.135 395.44 62.135ZM400.212 65.15C399.762 65.15 399.282 65.105 398.772 65.015C398.272 64.925 397.857 64.775 397.527 64.565L397.977 62.975C398.317 63.145 398.677 63.28 399.057 63.38C399.437 63.48 399.852 63.53 400.302 63.53C401.182 63.53 401.807 63.32 402.177 62.9C402.547 62.49 402.752 61.83 402.792 60.92L402.852 59.93C402.552 60.57 402.152 61.06 401.652 61.4C401.162 61.73 400.612 61.895 400.002 61.895C399.152 61.895 398.512 61.61 398.082 61.04C397.652 60.47 397.442 59.68 397.452 58.67L397.482 54.425H399.312L399.282 58.52C399.282 59.04 399.372 59.45 399.552 59.75C399.742 60.04 400.047 60.185 400.467 60.185C400.927 60.185 401.327 60.01 401.667 59.66C402.007 59.3 402.272 58.705 402.462 57.875C402.662 57.035 402.767 55.885 402.777 54.425H404.547V60.695C404.547 62.215 404.167 63.335 403.407 64.055C402.647 64.785 401.582 65.15 400.212 65.15ZM409.703 62.135C408.793 62.135 408.083 61.885 407.573 61.385C407.073 60.885 406.828 60.23 406.838 59.42L406.898 55.955H405.608V54.425H406.928L406.943 52.865H408.773L408.743 54.425H411.218V55.955H408.728L408.683 59.225C408.673 59.635 408.773 59.96 408.983 60.2C409.203 60.43 409.528 60.545 409.958 60.545C410.188 60.545 410.403 60.515 410.603 60.455C410.803 60.395 411.013 60.285 411.233 60.125L411.773 61.535C411.543 61.735 411.248 61.885 410.888 61.985C410.528 62.085 410.133 62.135 409.703 62.135ZM414.402 54.425V62H412.572V54.425H414.402ZM413.487 53.225C413.127 53.225 412.842 53.115 412.632 52.895C412.422 52.675 412.317 52.41 412.317 52.1C412.317 51.79 412.422 51.525 412.632 51.305C412.842 51.085 413.127 50.975 413.487 50.975C413.847 50.975 414.132 51.085 414.342 51.305C414.552 51.525 414.657 51.79 414.657 52.1C414.657 52.41 414.552 52.675 414.342 52.895C414.132 53.115 413.847 53.225 413.487 53.225ZM419.726 62.135C418.576 62.135 417.666 61.805 416.996 61.145C416.326 60.475 415.991 59.545 415.991 58.355C415.991 57.555 416.156 56.85 416.486 56.24C416.816 55.63 417.276 55.155 417.866 54.815C418.456 54.475 419.136 54.305 419.906 54.305C420.546 54.305 421.106 54.43 421.586 54.68C422.066 54.93 422.456 55.32 422.756 55.85L421.451 56.84C421.261 56.52 421.041 56.29 420.791 56.15C420.551 56.01 420.256 55.94 419.906 55.94C419.316 55.94 418.831 56.16 418.451 56.6C418.081 57.04 417.896 57.62 417.896 58.34C417.896 59.04 418.061 59.58 418.391 59.96C418.731 60.33 419.216 60.515 419.846 60.515C420.176 60.515 420.481 60.44 420.761 60.29C421.051 60.14 421.291 59.905 421.481 59.585L422.756 60.605C422.416 61.155 421.986 61.55 421.466 61.79C420.946 62.02 420.366 62.135 419.726 62.135ZM426.33 62.135C425.29 62.135 424.495 61.94 423.945 61.55C423.395 61.15 423.075 60.595 422.985 59.885L424.53 59.51C424.59 59.89 424.765 60.185 425.055 60.395C425.345 60.595 425.76 60.695 426.3 60.695C426.74 60.695 427.07 60.625 427.29 60.485C427.52 60.345 427.635 60.155 427.635 59.915C427.635 59.675 427.51 59.49 427.26 59.36C427.02 59.23 426.645 59.115 426.135 59.015C425.565 58.905 425.075 58.765 424.665 58.595C424.265 58.425 423.955 58.195 423.735 57.905C423.525 57.605 423.42 57.215 423.42 56.735C423.42 56.275 423.55 55.865 423.81 55.505C424.07 55.135 424.425 54.845 424.875 54.635C425.335 54.415 425.86 54.305 426.45 54.305C427.24 54.305 427.885 54.49 428.385 54.86C428.895 55.23 429.2 55.705 429.3 56.285L427.785 56.69C427.715 56.4 427.565 56.175 427.335 56.015C427.105 55.845 426.795 55.76 426.405 55.76C426.015 55.76 425.715 55.84 425.505 56C425.305 56.16 425.205 56.36 425.205 56.6C425.205 56.84 425.32 57.03 425.55 57.17C425.79 57.3 426.195 57.425 426.765 57.545C427.295 57.655 427.755 57.795 428.145 57.965C428.545 58.125 428.86 58.35 429.09 58.64C429.32 58.92 429.435 59.3 429.435 59.78C429.435 60.25 429.3 60.665 429.03 61.025C428.77 61.375 428.405 61.65 427.935 61.85C427.465 62.04 426.93 62.135 426.33 62.135ZM434.398 62V50.9H436.228L436.243 54.425L436.138 56.315C436.438 55.675 436.833 55.18 437.323 54.83C437.823 54.48 438.393 54.305 439.033 54.305C439.883 54.305 440.523 54.6 440.953 55.19C441.393 55.77 441.608 56.605 441.598 57.695L441.568 62H439.738L439.768 57.845C439.778 57.255 439.683 56.805 439.483 56.495C439.293 56.175 438.983 56.015 438.553 56.015C438.223 56.015 437.918 56.11 437.638 56.3C437.358 56.49 437.113 56.815 436.903 57.275C436.693 57.725 436.528 58.34 436.408 59.12C436.288 59.89 436.223 60.85 436.213 62H434.398ZM447.051 62.135C446.231 62.135 445.521 61.985 444.921 61.685C444.331 61.375 443.876 60.935 443.556 60.365C443.236 59.795 443.076 59.115 443.076 58.325C443.076 57.535 443.241 56.84 443.571 56.24C443.901 55.63 444.346 55.155 444.906 54.815C445.476 54.475 446.121 54.305 446.841 54.305C448.011 54.305 448.871 54.705 449.421 55.505C449.981 56.295 450.176 57.39 450.006 58.79H444.936C444.976 59.32 445.191 59.745 445.581 60.065C445.971 60.385 446.506 60.545 447.186 60.545C447.506 60.545 447.826 60.475 448.146 60.335C448.476 60.195 448.756 59.98 448.986 59.69L450.051 60.77C449.711 61.2 449.296 61.535 448.806 61.775C448.326 62.015 447.741 62.135 447.051 62.135ZM446.871 55.685C446.361 55.685 445.941 55.845 445.611 56.165C445.281 56.485 445.071 56.915 444.981 57.455H448.431C448.451 56.835 448.316 56.385 448.026 56.105C447.736 55.825 447.351 55.685 446.871 55.685ZM453.77 62.135C453.05 62.135 452.505 61.94 452.135 61.55C451.765 61.16 451.58 60.605 451.58 59.885V50.9H453.41V59.735C453.41 60.275 453.66 60.545 454.16 60.545C454.41 60.545 454.63 60.485 454.82 60.365L455.27 61.7C455.11 61.82 454.895 61.92 454.625 62C454.355 62.09 454.07 62.135 453.77 62.135ZM455.96 65V54.425H457.805L457.745 55.775C458.015 55.305 458.365 54.945 458.795 54.695C459.225 54.435 459.725 54.305 460.295 54.305C460.965 54.305 461.53 54.46 461.99 54.77C462.45 55.08 462.8 55.505 463.04 56.045C463.28 56.585 463.4 57.2 463.4 57.89C463.4 58.73 463.235 59.47 462.905 60.11C462.575 60.75 462.12 61.25 461.54 61.61C460.97 61.96 460.32 62.135 459.59 62.135C459.21 62.135 458.865 62.07 458.555 61.94C458.245 61.81 457.985 61.635 457.775 61.415L457.79 62V65H455.96ZM459.455 60.53C460.085 60.53 460.585 60.29 460.955 59.81C461.325 59.33 461.51 58.71 461.51 57.95C461.51 57.31 461.37 56.815 461.09 56.465C460.81 56.105 460.425 55.925 459.935 55.925C459.525 55.925 459.16 56.04 458.84 56.27C458.52 56.49 458.265 56.805 458.075 57.215C457.885 57.615 457.79 58.08 457.79 58.61C457.79 59.2 457.94 59.67 458.24 60.02C458.54 60.36 458.945 60.53 459.455 60.53ZM467.639 62.135C466.599 62.135 465.804 61.94 465.254 61.55C464.704 61.15 464.384 60.595 464.294 59.885L465.839 59.51C465.899 59.89 466.074 60.185 466.364 60.395C466.654 60.595 467.069 60.695 467.609 60.695C468.049 60.695 468.379 60.625 468.599 60.485C468.829 60.345 468.944 60.155 468.944 59.915C468.944 59.675 468.819 59.49 468.569 59.36C468.329 59.23 467.954 59.115 467.444 59.015C466.874 58.905 466.384 58.765 465.974 58.595C465.574 58.425 465.264 58.195 465.044 57.905C464.834 57.605 464.729 57.215 464.729 56.735C464.729 56.275 464.859 55.865 465.119 55.505C465.379 55.135 465.734 54.845 466.184 54.635C466.644 54.415 467.169 54.305 467.759 54.305C468.549 54.305 469.194 54.49 469.694 54.86C470.204 55.23 470.509 55.705 470.609 56.285L469.094 56.69C469.024 56.4 468.874 56.175 468.644 56.015C468.414 55.845 468.104 55.76 467.714 55.76C467.324 55.76 467.024 55.84 466.814 56C466.614 56.16 466.514 56.36 466.514 56.6C466.514 56.84 466.629 57.03 466.859 57.17C467.099 57.3 467.504 57.425 468.074 57.545C468.604 57.655 469.064 57.795 469.454 57.965C469.854 58.125 470.169 58.35 470.399 58.64C470.629 58.92 470.744 59.3 470.744 59.78C470.744 60.25 470.609 60.665 470.339 61.025C470.079 61.375 469.714 61.65 469.244 61.85C468.774 62.04 468.239 62.135 467.639 62.135ZM478.361 65.15C477.911 65.15 477.431 65.105 476.921 65.015C476.421 64.925 476.006 64.775 475.676 64.565L476.126 62.975C476.466 63.145 476.826 63.28 477.206 63.38C477.586 63.48 478.001 63.53 478.451 63.53C479.331 63.53 479.956 63.32 480.326 62.9C480.696 62.49 480.901 61.83 480.941 60.92L481.001 59.93C480.701 60.57 480.301 61.06 479.801 61.4C479.311 61.73 478.761 61.895 478.151 61.895C477.301 61.895 476.661 61.61 476.231 61.04C475.801 60.47 475.591 59.68 475.601 58.67L475.631 54.425H477.461L477.431 58.52C477.431 59.04 477.521 59.45 477.701 59.75C477.891 60.04 478.196 60.185 478.616 60.185C479.076 60.185 479.476 60.01 479.816 59.66C480.156 59.3 480.421 58.705 480.611 57.875C480.811 57.035 480.916 55.885 480.926 54.425H482.696V60.695C482.696 62.215 482.316 63.335 481.556 64.055C480.796 64.785 479.731 65.15 478.361 65.15ZM488.197 54.305C489.327 54.305 490.212 54.645 490.852 55.325C491.502 55.995 491.827 56.905 491.827 58.055C491.827 58.835 491.662 59.535 491.332 60.155C491.012 60.765 490.557 61.25 489.967 61.61C489.377 61.96 488.692 62.135 487.912 62.135C486.782 62.135 485.892 61.8 485.242 61.13C484.602 60.46 484.282 59.545 484.282 58.385C484.282 57.605 484.442 56.91 484.762 56.3C485.092 55.68 485.547 55.195 486.127 54.845C486.717 54.485 487.407 54.305 488.197 54.305ZM487.972 60.53C488.562 60.53 489.037 60.305 489.397 59.855C489.757 59.405 489.937 58.805 489.937 58.055C489.937 57.375 489.777 56.85 489.457 56.48C489.147 56.11 488.717 55.925 488.167 55.925C487.557 55.925 487.072 56.15 486.712 56.6C486.352 57.05 486.172 57.645 486.172 58.385C486.172 59.065 486.327 59.595 486.637 59.975C486.957 60.345 487.402 60.53 487.972 60.53ZM495.831 62.135C494.991 62.135 494.356 61.85 493.926 61.28C493.506 60.71 493.301 59.92 493.311 58.91L493.341 54.425H495.171L495.141 58.745C495.131 59.265 495.221 59.675 495.411 59.975C495.601 60.275 495.901 60.425 496.311 60.425C496.631 60.425 496.926 60.33 497.196 60.14C497.476 59.95 497.716 59.63 497.916 59.18C498.116 58.72 498.271 58.105 498.381 57.335C498.501 56.555 498.561 55.585 498.561 54.425H500.331V62H498.486L498.591 60.275C498.291 60.885 497.901 61.35 497.421 61.67C496.951 61.98 496.421 62.135 495.831 62.135ZM95.975 87V79.425H97.805L97.715 81.285C98.025 80.595 98.425 80.095 98.915 79.785C99.415 79.465 99.95 79.305 100.52 79.305C101.07 79.305 101.555 79.455 101.975 79.755C102.395 80.055 102.695 80.525 102.875 81.165C103.195 80.535 103.615 80.07 104.135 79.77C104.665 79.46 105.21 79.305 105.77 79.305C106.61 79.305 107.245 79.6 107.675 80.19C108.115 80.77 108.33 81.605 108.32 82.695L108.29 87H106.46L106.49 82.755C106.49 82.205 106.39 81.78 106.19 81.48C105.99 81.17 105.68 81.015 105.26 81.015C104.97 81.015 104.69 81.11 104.42 81.3C104.16 81.48 103.925 81.795 103.715 82.245C103.515 82.695 103.355 83.31 103.235 84.09C103.115 84.86 103.05 85.83 103.04 87H101.225V82.755C101.225 82.205 101.13 81.78 100.94 81.48C100.75 81.17 100.445 81.015 100.025 81.015C99.735 81.015 99.455 81.11 99.185 81.3C98.925 81.48 98.69 81.795 98.48 82.245C98.28 82.695 98.115 83.31 97.985 84.09C97.865 84.86 97.8 85.83 97.79 87H95.975ZM117.249 79.455V87H115.389L115.449 85.68C115.179 86.14 114.824 86.5 114.384 86.76C113.954 87.01 113.459 87.135 112.899 87.135C112.239 87.135 111.679 86.985 111.219 86.685C110.759 86.375 110.409 85.95 110.169 85.41C109.929 84.87 109.809 84.25 109.809 83.55C109.809 82.71 109.974 81.975 110.304 81.345C110.634 80.705 111.084 80.205 111.654 79.845C112.234 79.485 112.884 79.305 113.604 79.305C114.084 79.305 114.509 79.41 114.879 79.62C115.249 79.82 115.534 80.09 115.734 80.43L115.914 79.455H117.249ZM113.739 80.925C113.119 80.925 112.624 81.16 112.254 81.63C111.884 82.1 111.699 82.715 111.699 83.475C111.699 84.125 111.839 84.63 112.119 84.99C112.399 85.35 112.784 85.53 113.274 85.53C113.674 85.53 114.034 85.415 114.354 85.185C114.684 84.955 114.944 84.635 115.134 84.225C115.324 83.815 115.419 83.345 115.419 82.815C115.419 82.225 115.269 81.765 114.969 81.435C114.669 81.095 114.259 80.925 113.739 80.925ZM119.193 87V79.425H121.023L120.933 81.33C121.223 80.68 121.618 80.18 122.118 79.83C122.618 79.48 123.188 79.305 123.828 79.305C124.678 79.305 125.318 79.6 125.748 80.19C126.188 80.77 126.403 81.605 126.393 82.695L126.363 87H124.533L124.563 82.845C124.573 82.255 124.478 81.805 124.278 81.495C124.088 81.175 123.778 81.015 123.348 81.015C123.018 81.015 122.713 81.11 122.433 81.3C122.153 81.49 121.908 81.815 121.698 82.275C121.488 82.725 121.323 83.34 121.203 84.12C121.083 84.89 121.018 85.85 121.008 87H119.193ZM135.311 79.455V87H133.451L133.511 85.68C133.241 86.14 132.886 86.5 132.446 86.76C132.016 87.01 131.521 87.135 130.961 87.135C130.301 87.135 129.741 86.985 129.281 86.685C128.821 86.375 128.471 85.95 128.231 85.41C127.991 84.87 127.871 84.25 127.871 83.55C127.871 82.71 128.036 81.975 128.366 81.345C128.696 80.705 129.146 80.205 129.716 79.845C130.296 79.485 130.946 79.305 131.666 79.305C132.146 79.305 132.571 79.41 132.941 79.62C133.311 79.82 133.596 80.09 133.796 80.43L133.976 79.455H135.311ZM131.801 80.925C131.181 80.925 130.686 81.16 130.316 81.63C129.946 82.1 129.761 82.715 129.761 83.475C129.761 84.125 129.901 84.63 130.181 84.99C130.461 85.35 130.846 85.53 131.336 85.53C131.736 85.53 132.096 85.415 132.416 85.185C132.746 84.955 133.006 84.635 133.196 84.225C133.386 83.815 133.481 83.345 133.481 82.815C133.481 82.225 133.331 81.765 133.031 81.435C132.731 81.095 132.321 80.925 131.801 80.925ZM139.984 90.15C139.544 90.15 139.069 90.105 138.559 90.015C138.059 89.925 137.644 89.775 137.314 89.565L137.764 87.975C138.094 88.145 138.449 88.28 138.829 88.38C139.219 88.48 139.634 88.53 140.074 88.53C140.964 88.53 141.594 88.32 141.964 87.9C142.334 87.48 142.539 86.82 142.579 85.92L142.609 85.455C142.329 85.925 141.974 86.285 141.544 86.535C141.124 86.775 140.629 86.895 140.059 86.895C139.379 86.895 138.799 86.75 138.319 86.46C137.849 86.17 137.494 85.765 137.254 85.245C137.014 84.725 136.894 84.13 136.894 83.46C136.894 82.65 137.054 81.935 137.374 81.315C137.704 80.685 138.154 80.195 138.724 79.845C139.304 79.485 139.969 79.305 140.719 79.305C141.219 79.305 141.654 79.41 142.024 79.62C142.394 79.82 142.679 80.09 142.879 80.43L143.059 79.455H144.394V85.695C144.394 87.185 144.004 88.3 143.224 89.04C142.444 89.78 141.364 90.15 139.984 90.15ZM140.854 80.925C140.224 80.925 139.719 81.15 139.339 81.6C138.969 82.05 138.784 82.63 138.784 83.34C138.784 83.96 138.929 84.44 139.219 84.78C139.509 85.12 139.904 85.29 140.404 85.29C140.814 85.29 141.179 85.18 141.499 84.96C141.829 84.73 142.089 84.42 142.279 84.03C142.469 83.64 142.564 83.2 142.564 82.71C142.564 82.15 142.409 81.715 142.099 81.405C141.789 81.085 141.374 80.925 140.854 80.925ZM149.966 87.135C149.146 87.135 148.436 86.985 147.836 86.685C147.246 86.375 146.791 85.935 146.471 85.365C146.151 84.795 145.991 84.115 145.991 83.325C145.991 82.535 146.156 81.84 146.486 81.24C146.816 80.63 147.261 80.155 147.821 79.815C148.391 79.475 149.036 79.305 149.756 79.305C150.926 79.305 151.786 79.705 152.336 80.505C152.896 81.295 153.091 82.39 152.921 83.79H147.851C147.891 84.32 148.106 84.745 148.496 85.065C148.886 85.385 149.421 85.545 150.101 85.545C150.421 85.545 150.741 85.475 151.061 85.335C151.391 85.195 151.671 84.98 151.901 84.69L152.966 85.77C152.626 86.2 152.211 86.535 151.721 86.775C151.241 87.015 150.656 87.135 149.966 87.135ZM149.786 80.685C149.276 80.685 148.856 80.845 148.526 81.165C148.196 81.485 147.986 81.915 147.896 82.455H151.346C151.366 81.835 151.231 81.385 150.941 81.105C150.651 80.825 150.266 80.685 149.786 80.685ZM160.798 90.15C160.348 90.15 159.868 90.105 159.358 90.015C158.858 89.925 158.443 89.775 158.113 89.565L158.563 87.975C158.903 88.145 159.263 88.28 159.643 88.38C160.023 88.48 160.438 88.53 160.888 88.53C161.768 88.53 162.393 88.32 162.763 87.9C163.133 87.49 163.338 86.83 163.378 85.92L163.438 84.93C163.138 85.57 162.738 86.06 162.238 86.4C161.748 86.73 161.198 86.895 160.588 86.895C159.738 86.895 159.098 86.61 158.668 86.04C158.238 85.47 158.028 84.68 158.038 83.67L158.068 79.425H159.898L159.868 83.52C159.868 84.04 159.958 84.45 160.138 84.75C160.328 85.04 160.633 85.185 161.053 85.185C161.513 85.185 161.913 85.01 162.253 84.66C162.593 84.3 162.858 83.705 163.048 82.875C163.248 82.035 163.353 80.885 163.363 79.425H165.133V85.695C165.133 87.215 164.753 88.335 163.993 89.055C163.233 89.785 162.168 90.15 160.798 90.15ZM170.634 79.305C171.764 79.305 172.649 79.645 173.289 80.325C173.939 80.995 174.264 81.905 174.264 83.055C174.264 83.835 174.099 84.535 173.769 85.155C173.449 85.765 172.994 86.25 172.404 86.61C171.814 86.96 171.129 87.135 170.349 87.135C169.219 87.135 168.329 86.8 167.679 86.13C167.039 85.46 166.719 84.545 166.719 83.385C166.719 82.605 166.879 81.91 167.199 81.3C167.529 80.68 167.984 80.195 168.564 79.845C169.154 79.485 169.844 79.305 170.634 79.305ZM170.409 85.53C170.999 85.53 171.474 85.305 171.834 84.855C172.194 84.405 172.374 83.805 172.374 83.055C172.374 82.375 172.214 81.85 171.894 81.48C171.584 81.11 171.154 80.925 170.604 80.925C169.994 80.925 169.509 81.15 169.149 81.6C168.789 82.05 168.609 82.645 168.609 83.385C168.609 84.065 168.764 84.595 169.074 84.975C169.394 85.345 169.839 85.53 170.409 85.53ZM178.268 87.135C177.428 87.135 176.793 86.85 176.363 86.28C175.943 85.71 175.738 84.92 175.748 83.91L175.778 79.425H177.608L177.578 83.745C177.568 84.265 177.658 84.675 177.848 84.975C178.038 85.275 178.338 85.425 178.748 85.425C179.068 85.425 179.363 85.33 179.633 85.14C179.913 84.95 180.153 84.63 180.353 84.18C180.553 83.72 180.708 83.105 180.818 82.335C180.938 81.555 180.998 80.585 180.998 79.425H182.768V87H180.923L181.028 85.275C180.728 85.885 180.338 86.35 179.858 86.67C179.388 86.98 178.858 87.135 178.268 87.135ZM189.575 81.195C189.375 81.125 189.12 81.09 188.81 81.09C188.27 81.09 187.835 81.29 187.505 81.69C187.175 82.08 186.93 82.71 186.77 83.58C186.62 84.44 186.545 85.58 186.545 87H184.73V82.11L184.715 79.425H186.545L186.455 81.54C186.715 80.73 187.075 80.155 187.535 79.815C188.005 79.475 188.505 79.305 189.035 79.305C189.195 79.305 189.345 79.315 189.485 79.335C189.625 79.355 189.755 79.385 189.875 79.425L189.575 81.195ZM201.566 75.9V87H199.706L199.766 85.68C199.496 86.15 199.146 86.51 198.716 86.76C198.286 87.01 197.786 87.135 197.216 87.135C196.556 87.135 195.996 86.985 195.536 86.685C195.076 86.375 194.726 85.95 194.486 85.41C194.246 84.87 194.126 84.25 194.126 83.55C194.126 82.71 194.291 81.975 194.621 81.345C194.951 80.705 195.401 80.205 195.971 79.845C196.551 79.485 197.201 79.305 197.921 79.305C198.301 79.305 198.646 79.37 198.956 79.5C199.276 79.63 199.541 79.81 199.751 80.04L199.736 79.425V75.9H201.566ZM198.056 80.925C197.436 80.925 196.941 81.16 196.571 81.63C196.201 82.1 196.016 82.715 196.016 83.475C196.016 84.125 196.156 84.63 196.436 84.99C196.716 85.35 197.101 85.53 197.591 85.53C197.991 85.53 198.351 85.415 198.671 85.185C199.001 84.955 199.261 84.635 199.451 84.225C199.641 83.815 199.736 83.345 199.736 82.815C199.736 82.225 199.586 81.765 199.286 81.435C198.986 81.095 198.576 80.925 198.056 80.925ZM205.339 79.425V87H203.509V79.425H205.339ZM204.424 78.225C204.064 78.225 203.779 78.115 203.569 77.895C203.359 77.675 203.254 77.41 203.254 77.1C203.254 76.79 203.359 76.525 203.569 76.305C203.779 76.085 204.064 75.975 204.424 75.975C204.784 75.975 205.069 76.085 205.279 76.305C205.489 76.525 205.594 76.79 205.594 77.1C205.594 77.41 205.489 77.675 205.279 77.895C205.069 78.115 204.784 78.225 204.424 78.225ZM209.943 87.135C208.903 87.135 208.108 86.94 207.558 86.55C207.008 86.15 206.688 85.595 206.598 84.885L208.143 84.51C208.203 84.89 208.378 85.185 208.668 85.395C208.958 85.595 209.373 85.695 209.913 85.695C210.353 85.695 210.683 85.625 210.903 85.485C211.133 85.345 211.248 85.155 211.248 84.915C211.248 84.675 211.123 84.49 210.873 84.36C210.633 84.23 210.258 84.115 209.748 84.015C209.178 83.905 208.688 83.765 208.278 83.595C207.878 83.425 207.568 83.195 207.348 82.905C207.138 82.605 207.033 82.215 207.033 81.735C207.033 81.275 207.163 80.865 207.423 80.505C207.683 80.135 208.038 79.845 208.488 79.635C208.948 79.415 209.473 79.305 210.063 79.305C210.853 79.305 211.498 79.49 211.998 79.86C212.508 80.23 212.813 80.705 212.913 81.285L211.398 81.69C211.328 81.4 211.178 81.175 210.948 81.015C210.718 80.845 210.408 80.76 210.018 80.76C209.628 80.76 209.328 80.84 209.118 81C208.918 81.16 208.818 81.36 208.818 81.6C208.818 81.84 208.933 82.03 209.163 82.17C209.403 82.3 209.808 82.425 210.378 82.545C210.908 82.655 211.368 82.795 211.758 82.965C212.158 83.125 212.473 83.35 212.703 83.64C212.933 83.92 213.048 84.3 213.048 84.78C213.048 85.25 212.913 85.665 212.643 86.025C212.383 86.375 212.018 86.65 211.548 86.85C211.078 87.04 210.543 87.135 209.943 87.135ZM217.427 87.135C216.517 87.135 215.807 86.885 215.297 86.385C214.797 85.885 214.552 85.23 214.562 84.42L214.622 80.955H213.332V79.425H214.652L214.667 77.865H216.497L216.467 79.425H218.942V80.955H216.452L216.407 84.225C216.397 84.635 216.497 84.96 216.707 85.2C216.927 85.43 217.252 85.545 217.682 85.545C217.912 85.545 218.127 85.515 218.327 85.455C218.527 85.395 218.737 85.285 218.957 85.125L219.497 86.535C219.267 86.735 218.972 86.885 218.612 86.985C218.252 87.085 217.857 87.135 217.427 87.135ZM225.156 81.195C224.956 81.125 224.701 81.09 224.391 81.09C223.851 81.09 223.416 81.29 223.086 81.69C222.756 82.08 222.511 82.71 222.351 83.58C222.201 84.44 222.126 85.58 222.126 87H220.311V82.11L220.296 79.425H222.126L222.036 81.54C222.296 80.73 222.656 80.155 223.116 79.815C223.586 79.475 224.086 79.305 224.616 79.305C224.776 79.305 224.926 79.315 225.066 79.335C225.206 79.355 225.336 79.385 225.456 79.425L225.156 81.195ZM228.249 79.425V87H226.419V79.425H228.249ZM227.334 78.225C226.974 78.225 226.689 78.115 226.479 77.895C226.269 77.675 226.164 77.41 226.164 77.1C226.164 76.79 226.269 76.525 226.479 76.305C226.689 76.085 226.974 75.975 227.334 75.975C227.694 75.975 227.979 76.085 228.189 76.305C228.399 76.525 228.504 76.79 228.504 77.1C228.504 77.41 228.399 77.675 228.189 77.895C227.979 78.115 227.694 78.225 227.334 78.225ZM230.199 87V75.9H232.029V79.425L231.969 80.805C232.239 80.325 232.589 79.955 233.019 79.695C233.459 79.435 233.964 79.305 234.534 79.305C235.204 79.305 235.769 79.46 236.229 79.77C236.689 80.08 237.039 80.505 237.279 81.045C237.519 81.585 237.639 82.2 237.639 82.89C237.639 83.73 237.474 84.47 237.144 85.11C236.814 85.75 236.359 86.25 235.779 86.61C235.209 86.96 234.564 87.135 233.844 87.135C233.354 87.135 232.924 87.035 232.554 86.835C232.184 86.625 231.904 86.35 231.714 86.01L231.534 87H230.199ZM233.694 85.53C234.324 85.53 234.824 85.29 235.194 84.81C235.564 84.33 235.749 83.71 235.749 82.95C235.749 82.31 235.609 81.815 235.329 81.465C235.049 81.105 234.664 80.925 234.174 80.925C233.764 80.925 233.399 81.04 233.079 81.27C232.759 81.49 232.504 81.805 232.314 82.215C232.124 82.615 232.029 83.08 232.029 83.61C232.029 84.2 232.179 84.67 232.479 85.02C232.779 85.36 233.184 85.53 233.694 85.53ZM241.637 87.135C240.797 87.135 240.162 86.85 239.732 86.28C239.312 85.71 239.107 84.92 239.117 83.91L239.147 79.425H240.977L240.947 83.745C240.937 84.265 241.027 84.675 241.217 84.975C241.407 85.275 241.707 85.425 242.117 85.425C242.437 85.425 242.732 85.33 243.002 85.14C243.282 84.95 243.522 84.63 243.722 84.18C243.922 83.72 244.077 83.105 244.187 82.335C244.307 81.555 244.367 80.585 244.367 79.425H246.137V87H244.292L244.397 85.275C244.097 85.885 243.707 86.35 243.227 86.67C242.757 86.98 242.227 87.135 241.637 87.135ZM251.294 87.135C250.384 87.135 249.674 86.885 249.164 86.385C248.664 85.885 248.419 85.23 248.429 84.42L248.489 80.955H247.199V79.425H248.519L248.534 77.865H250.364L250.334 79.425H252.809V80.955H250.319L250.274 84.225C250.264 84.635 250.364 84.96 250.574 85.2C250.794 85.43 251.119 85.545 251.549 85.545C251.779 85.545 251.994 85.515 252.194 85.455C252.394 85.395 252.604 85.285 252.824 85.125L253.364 86.535C253.134 86.735 252.839 86.885 252.479 86.985C252.119 87.085 251.724 87.135 251.294 87.135ZM257.632 87.135C256.812 87.135 256.102 86.985 255.502 86.685C254.912 86.375 254.457 85.935 254.137 85.365C253.817 84.795 253.657 84.115 253.657 83.325C253.657 82.535 253.822 81.84 254.152 81.24C254.482 80.63 254.927 80.155 255.487 79.815C256.057 79.475 256.702 79.305 257.422 79.305C258.592 79.305 259.452 79.705 260.002 80.505C260.562 81.295 260.757 82.39 260.587 83.79H255.517C255.557 84.32 255.772 84.745 256.162 85.065C256.552 85.385 257.087 85.545 257.767 85.545C258.087 85.545 258.407 85.475 258.727 85.335C259.057 85.195 259.337 84.98 259.567 84.69L260.632 85.77C260.292 86.2 259.877 86.535 259.387 86.775C258.907 87.015 258.322 87.135 257.632 87.135ZM257.452 80.685C256.942 80.685 256.522 80.845 256.192 81.165C255.862 81.485 255.652 81.915 255.562 82.455H259.012C259.032 81.835 258.897 81.385 258.607 81.105C258.317 80.825 257.932 80.685 257.452 80.685ZM269.242 75.9V87H267.382L267.442 85.68C267.172 86.15 266.822 86.51 266.392 86.76C265.962 87.01 265.462 87.135 264.892 87.135C264.232 87.135 263.672 86.985 263.212 86.685C262.752 86.375 262.402 85.95 262.162 85.41C261.922 84.87 261.802 84.25 261.802 83.55C261.802 82.71 261.967 81.975 262.297 81.345C262.627 80.705 263.077 80.205 263.647 79.845C264.227 79.485 264.877 79.305 265.597 79.305C265.977 79.305 266.322 79.37 266.632 79.5C266.952 79.63 267.217 79.81 267.427 80.04L267.412 79.425V75.9H269.242ZM265.732 80.925C265.112 80.925 264.617 81.16 264.247 81.63C263.877 82.1 263.692 82.715 263.692 83.475C263.692 84.125 263.832 84.63 264.112 84.99C264.392 85.35 264.777 85.53 265.267 85.53C265.667 85.53 266.027 85.415 266.347 85.185C266.677 84.955 266.937 84.635 267.127 84.225C267.317 83.815 267.412 83.345 267.412 82.815C267.412 82.225 267.262 81.765 266.962 81.435C266.662 81.095 266.252 80.925 265.732 80.925ZM278.042 87.135C277.132 87.135 276.422 86.885 275.912 86.385C275.412 85.885 275.167 85.23 275.177 84.42L275.237 80.955H273.947V79.425H275.267L275.282 77.865H277.112L277.082 79.425H279.557V80.955H277.067L277.022 84.225C277.012 84.635 277.112 84.96 277.322 85.2C277.542 85.43 277.867 85.545 278.297 85.545C278.527 85.545 278.742 85.515 278.942 85.455C279.142 85.395 279.352 85.285 279.572 85.125L280.112 86.535C279.882 86.735 279.587 86.885 279.227 86.985C278.867 87.085 278.472 87.135 278.042 87.135ZM284.38 87.135C283.56 87.135 282.85 86.985 282.25 86.685C281.66 86.375 281.205 85.935 280.885 85.365C280.565 84.795 280.405 84.115 280.405 83.325C280.405 82.535 280.57 81.84 280.9 81.24C281.23 80.63 281.675 80.155 282.235 79.815C282.805 79.475 283.45 79.305 284.17 79.305C285.34 79.305 286.2 79.705 286.75 80.505C287.31 81.295 287.505 82.39 287.335 83.79H282.265C282.305 84.32 282.52 84.745 282.91 85.065C283.3 85.385 283.835 85.545 284.515 85.545C284.835 85.545 285.155 85.475 285.475 85.335C285.805 85.195 286.085 84.98 286.315 84.69L287.38 85.77C287.04 86.2 286.625 86.535 286.135 86.775C285.655 87.015 285.07 87.135 284.38 87.135ZM284.2 80.685C283.69 80.685 283.27 80.845 282.94 81.165C282.61 81.485 282.4 81.915 282.31 82.455H285.76C285.78 81.835 285.645 81.385 285.355 81.105C285.065 80.825 284.68 80.685 284.2 80.685ZM295.99 79.455V87H294.13L294.19 85.68C293.92 86.14 293.565 86.5 293.125 86.76C292.695 87.01 292.2 87.135 291.64 87.135C290.98 87.135 290.42 86.985 289.96 86.685C289.5 86.375 289.15 85.95 288.91 85.41C288.67 84.87 288.55 84.25 288.55 83.55C288.55 82.71 288.715 81.975 289.045 81.345C289.375 80.705 289.825 80.205 290.395 79.845C290.975 79.485 291.625 79.305 292.345 79.305C292.825 79.305 293.25 79.41 293.62 79.62C293.99 79.82 294.275 80.09 294.475 80.43L294.655 79.455H295.99ZM292.48 80.925C291.86 80.925 291.365 81.16 290.995 81.63C290.625 82.1 290.44 82.715 290.44 83.475C290.44 84.125 290.58 84.63 290.86 84.99C291.14 85.35 291.525 85.53 292.015 85.53C292.415 85.53 292.775 85.415 293.095 85.185C293.425 84.955 293.685 84.635 293.875 84.225C294.065 83.815 294.16 83.345 294.16 82.815C294.16 82.225 294.01 81.765 293.71 81.435C293.41 81.095 293 80.925 292.48 80.925ZM297.933 87V79.425H299.763L299.673 81.285C299.983 80.595 300.383 80.095 300.873 79.785C301.373 79.465 301.908 79.305 302.478 79.305C303.028 79.305 303.513 79.455 303.933 79.755C304.353 80.055 304.653 80.525 304.833 81.165C305.153 80.535 305.573 80.07 306.093 79.77C306.623 79.46 307.168 79.305 307.728 79.305C308.568 79.305 309.203 79.6 309.633 80.19C310.073 80.77 310.288 81.605 310.278 82.695L310.248 87H308.418L308.448 82.755C308.448 82.205 308.348 81.78 308.148 81.48C307.948 81.17 307.638 81.015 307.218 81.015C306.928 81.015 306.648 81.11 306.378 81.3C306.118 81.48 305.883 81.795 305.673 82.245C305.473 82.695 305.313 83.31 305.193 84.09C305.073 84.86 305.008 85.83 304.998 87H303.183V82.755C303.183 82.205 303.088 81.78 302.898 81.48C302.708 81.17 302.403 81.015 301.983 81.015C301.693 81.015 301.413 81.11 301.143 81.3C300.883 81.48 300.648 81.795 300.438 82.245C300.238 82.695 300.073 83.31 299.943 84.09C299.823 84.86 299.758 85.83 299.748 87H297.933ZM314.782 87.135C313.742 87.135 312.947 86.94 312.397 86.55C311.847 86.15 311.527 85.595 311.437 84.885L312.982 84.51C313.042 84.89 313.217 85.185 313.507 85.395C313.797 85.595 314.212 85.695 314.752 85.695C315.192 85.695 315.522 85.625 315.742 85.485C315.972 85.345 316.087 85.155 316.087 84.915C316.087 84.675 315.962 84.49 315.712 84.36C315.472 84.23 315.097 84.115 314.587 84.015C314.017 83.905 313.527 83.765 313.117 83.595C312.717 83.425 312.407 83.195 312.187 82.905C311.977 82.605 311.872 82.215 311.872 81.735C311.872 81.275 312.002 80.865 312.262 80.505C312.522 80.135 312.877 79.845 313.327 79.635C313.787 79.415 314.312 79.305 314.902 79.305C315.692 79.305 316.337 79.49 316.837 79.86C317.347 80.23 317.652 80.705 317.752 81.285L316.237 81.69C316.167 81.4 316.017 81.175 315.787 81.015C315.557 80.845 315.247 80.76 314.857 80.76C314.467 80.76 314.167 80.84 313.957 81C313.757 81.16 313.657 81.36 313.657 81.6C313.657 81.84 313.772 82.03 314.002 82.17C314.242 82.3 314.647 82.425 315.217 82.545C315.747 82.655 316.207 82.795 316.597 82.965C316.997 83.125 317.312 83.35 317.542 83.64C317.772 83.92 317.887 84.3 317.887 84.78C317.887 85.25 317.752 85.665 317.482 86.025C317.222 86.375 316.857 86.65 316.387 86.85C315.917 87.04 315.382 87.135 314.782 87.135ZM320.013 87.135C319.623 87.135 319.313 87.015 319.083 86.775C318.853 86.535 318.738 86.24 318.738 85.89C318.738 85.54 318.853 85.245 319.083 85.005C319.313 84.765 319.623 84.645 320.013 84.645C320.403 84.645 320.713 84.765 320.943 85.005C321.173 85.245 321.288 85.54 321.288 85.89C321.288 86.24 321.173 86.535 320.943 86.775C320.713 87.015 320.403 87.135 320.013 87.135Z" fill="white"/>
<path d="M104.954 10.758H99.086V13.296H104.576V15.834H99.086V18.462H105.134L104.954 21H96.206V8.22H104.954V10.758ZM106.486 21V11.838H109.222L109.096 13.8C109.468 13.128 109.942 12.612 110.518 12.252C111.106 11.88 111.76 11.694 112.48 11.694C113.572 11.694 114.388 12.066 114.928 12.81C115.468 13.542 115.732 14.598 115.72 15.978L115.684 21H112.93L112.966 16.176C112.978 15.552 112.882 15.078 112.678 14.754C112.486 14.418 112.174 14.25 111.742 14.25C111.382 14.25 111.052 14.358 110.752 14.574C110.452 14.778 110.188 15.132 109.96 15.636C109.744 16.14 109.57 16.83 109.438 17.706C109.306 18.582 109.234 19.68 109.222 21H106.486ZM117.701 21V7.68H120.455L120.473 11.838L120.329 13.764C120.701 13.104 121.175 12.594 121.751 12.234C122.339 11.874 122.987 11.694 123.695 11.694C124.787 11.694 125.603 12.066 126.143 12.81C126.683 13.542 126.947 14.598 126.935 15.978L126.899 21H124.145L124.181 16.176C124.193 15.552 124.097 15.078 123.893 14.754C123.701 14.418 123.389 14.25 122.957 14.25C122.597 14.25 122.267 14.358 121.967 14.574C121.667 14.778 121.403 15.132 121.175 15.636C120.959 16.14 120.785 16.83 120.653 17.706C120.521 18.582 120.449 19.68 120.437 21H117.701ZM137.916 11.874V21H135.144L135.234 19.632C134.574 20.664 133.596 21.18 132.3 21.18C131.484 21.18 130.788 20.994 130.212 20.622C129.636 20.25 129.198 19.734 128.898 19.074C128.598 18.414 128.448 17.658 128.448 16.806C128.448 15.786 128.658 14.892 129.078 14.124C129.498 13.356 130.062 12.762 130.77 12.342C131.478 11.91 132.27 11.694 133.146 11.694C133.722 11.694 134.232 11.814 134.676 12.054C135.12 12.282 135.462 12.588 135.702 12.972L135.936 11.874H137.916ZM133.416 14.088C132.756 14.088 132.234 14.334 131.85 14.826C131.478 15.318 131.292 15.948 131.292 16.716C131.292 17.376 131.436 17.886 131.724 18.246C132.024 18.606 132.426 18.786 132.93 18.786C133.542 18.786 134.064 18.534 134.496 18.03C134.94 17.526 135.162 16.866 135.162 16.05C135.162 15.438 135.006 14.958 134.694 14.61C134.382 14.262 133.956 14.088 133.416 14.088ZM140.042 21V11.838H142.778L142.652 13.8C143.024 13.128 143.498 12.612 144.074 12.252C144.662 11.88 145.316 11.694 146.036 11.694C147.128 11.694 147.944 12.066 148.484 12.81C149.024 13.542 149.288 14.598 149.276 15.978L149.24 21H146.486L146.522 16.176C146.534 15.552 146.438 15.078 146.234 14.754C146.042 14.418 145.73 14.25 145.298 14.25C144.938 14.25 144.608 14.358 144.308 14.574C144.008 14.778 143.744 15.132 143.516 15.636C143.3 16.14 143.126 16.83 142.994 17.706C142.862 18.582 142.79 19.68 142.778 21H140.042ZM155.451 21.18C154.503 21.18 153.681 21 152.985 20.64C152.289 20.268 151.749 19.74 151.365 19.056C150.981 18.372 150.789 17.556 150.789 16.608C150.789 15.636 150.993 14.784 151.401 14.052C151.821 13.308 152.397 12.732 153.129 12.324C153.861 11.904 154.713 11.694 155.685 11.694C156.477 11.694 157.179 11.85 157.791 12.162C158.403 12.474 158.895 12.96 159.267 13.62L157.323 15.096C157.131 14.748 156.903 14.496 156.639 14.34C156.387 14.184 156.069 14.106 155.685 14.106C155.097 14.106 154.611 14.334 154.227 14.79C153.843 15.234 153.651 15.822 153.651 16.554C153.651 17.262 153.819 17.808 154.155 18.192C154.503 18.576 155.001 18.768 155.649 18.768C155.997 18.768 156.315 18.69 156.603 18.534C156.903 18.366 157.155 18.108 157.359 17.76L159.249 19.272C158.841 19.968 158.301 20.46 157.629 20.748C156.969 21.036 156.243 21.18 155.451 21.18ZM164.371 21.18C163.351 21.18 162.469 20.994 161.725 20.622C160.981 20.238 160.405 19.704 159.997 19.02C159.589 18.324 159.385 17.502 159.385 16.554C159.385 15.594 159.589 14.748 159.997 14.016C160.417 13.284 160.975 12.714 161.671 12.306C162.379 11.898 163.177 11.694 164.065 11.694C165.073 11.694 165.895 11.922 166.531 12.378C167.167 12.834 167.605 13.482 167.845 14.322C168.097 15.15 168.151 16.116 168.007 17.22H162.193C162.265 17.676 162.505 18.06 162.913 18.372C163.321 18.672 163.879 18.822 164.587 18.822C164.911 18.822 165.253 18.756 165.613 18.624C165.973 18.48 166.279 18.27 166.531 17.994L168.061 19.614C167.665 20.094 167.173 20.478 166.585 20.766C166.009 21.042 165.271 21.18 164.371 21.18ZM164.119 13.692C163.639 13.692 163.231 13.836 162.895 14.124C162.571 14.412 162.355 14.814 162.247 15.33H165.685C165.697 14.766 165.559 14.352 165.271 14.088C164.995 13.824 164.611 13.692 164.119 13.692ZM178.697 7.68V21H175.925L176.015 19.65C175.355 20.67 174.377 21.18 173.081 21.18C172.265 21.18 171.569 20.994 170.993 20.622C170.417 20.25 169.979 19.734 169.679 19.074C169.379 18.414 169.229 17.658 169.229 16.806C169.229 15.786 169.439 14.892 169.859 14.124C170.279 13.356 170.843 12.762 171.551 12.342C172.259 11.91 173.051 11.694 173.927 11.694C174.335 11.694 174.713 11.754 175.061 11.874C175.409 11.994 175.709 12.162 175.961 12.378L175.943 11.838V7.68H178.697ZM174.197 14.088C173.537 14.088 173.015 14.334 172.631 14.826C172.259 15.318 172.073 15.948 172.073 16.716C172.073 17.376 172.217 17.886 172.505 18.246C172.805 18.606 173.207 18.786 173.711 18.786C174.323 18.786 174.845 18.534 175.277 18.03C175.721 17.526 175.943 16.866 175.943 16.05C175.943 15.438 175.787 14.958 175.475 14.61C175.163 14.262 174.737 14.088 174.197 14.088ZM188.365 21H185.503V8.22H190.201C192.001 8.22 193.351 8.568 194.251 9.264C195.151 9.948 195.601 10.956 195.601 12.288C195.601 13.608 195.091 14.646 194.071 15.402C193.063 16.158 191.641 16.536 189.805 16.536H188.365V21ZM190.183 10.614H188.365V14.106H189.949C190.873 14.106 191.557 13.968 192.001 13.692C192.445 13.416 192.667 12.96 192.667 12.324C192.667 11.688 192.463 11.244 192.055 10.992C191.659 10.74 191.035 10.614 190.183 10.614ZM203.155 14.502C202.915 14.406 202.591 14.358 202.183 14.358C201.559 14.358 201.061 14.58 200.689 15.024C200.317 15.456 200.047 16.164 199.879 17.148C199.711 18.12 199.627 19.404 199.627 21H196.891V15.06L196.855 11.838H199.609L199.483 14.124C199.807 13.248 200.239 12.624 200.779 12.252C201.331 11.88 201.919 11.694 202.543 11.694C202.747 11.694 202.933 11.706 203.101 11.73C203.281 11.754 203.461 11.796 203.641 11.856L203.155 14.502ZM208.72 11.694C210.148 11.694 211.264 12.102 212.068 12.918C212.884 13.734 213.292 14.838 213.292 16.23C213.292 17.178 213.088 18.024 212.68 18.768C212.272 19.512 211.696 20.1 210.952 20.532C210.208 20.964 209.332 21.18 208.324 21.18C206.908 21.18 205.792 20.772 204.976 19.956C204.172 19.14 203.77 18.042 203.77 16.662C203.77 15.702 203.974 14.85 204.382 14.106C204.79 13.362 205.366 12.774 206.11 12.342C206.854 11.91 207.724 11.694 208.72 11.694ZM208.45 18.786C209.062 18.786 209.548 18.558 209.908 18.102C210.28 17.634 210.466 17.01 210.466 16.23C210.466 15.558 210.304 15.036 209.98 14.664C209.656 14.28 209.212 14.088 208.648 14.088C208.024 14.088 207.526 14.322 207.154 14.79C206.794 15.246 206.614 15.864 206.614 16.644C206.614 17.316 206.77 17.844 207.082 18.228C207.406 18.6 207.862 18.786 208.45 18.786ZM223.96 7.68V21H221.188L221.278 19.65C220.618 20.67 219.64 21.18 218.344 21.18C217.528 21.18 216.832 20.994 216.256 20.622C215.68 20.25 215.242 19.734 214.942 19.074C214.642 18.414 214.492 17.658 214.492 16.806C214.492 15.786 214.702 14.892 215.122 14.124C215.542 13.356 216.106 12.762 216.814 12.342C217.522 11.91 218.314 11.694 219.19 11.694C219.598 11.694 219.976 11.754 220.324 11.874C220.672 11.994 220.972 12.162 221.224 12.378L221.206 11.838V7.68H223.96ZM219.46 14.088C218.8 14.088 218.278 14.334 217.894 14.826C217.522 15.318 217.336 15.948 217.336 16.716C217.336 17.376 217.48 17.886 217.768 18.246C218.068 18.606 218.47 18.786 218.974 18.786C219.586 18.786 220.108 18.534 220.54 18.03C220.984 17.526 221.206 16.866 221.206 16.05C221.206 15.438 221.05 14.958 220.738 14.61C220.426 14.262 220 14.088 219.46 14.088ZM229.111 21.18C228.055 21.18 227.257 20.82 226.717 20.1C226.177 19.38 225.913 18.378 225.925 17.094L225.961 11.838H228.715L228.679 16.878C228.679 17.418 228.775 17.844 228.967 18.156C229.159 18.468 229.459 18.624 229.867 18.624C230.215 18.624 230.533 18.516 230.821 18.3C231.109 18.084 231.361 17.724 231.577 17.22C231.793 16.716 231.961 16.026 232.081 15.15C232.213 14.274 232.285 13.17 232.297 11.838H234.961V21H232.207L232.333 19.236C231.973 19.86 231.517 20.34 230.965 20.676C230.413 21.012 229.795 21.18 229.111 21.18ZM241.268 21.18C240.32 21.18 239.498 21 238.802 20.64C238.106 20.268 237.566 19.74 237.182 19.056C236.798 18.372 236.606 17.556 236.606 16.608C236.606 15.636 236.81 14.784 237.218 14.052C237.638 13.308 238.214 12.732 238.946 12.324C239.678 11.904 240.53 11.694 241.502 11.694C242.294 11.694 242.996 11.85 243.608 12.162C244.22 12.474 244.712 12.96 245.084 13.62L243.14 15.096C242.948 14.748 242.72 14.496 242.456 14.34C242.204 14.184 241.886 14.106 241.502 14.106C240.914 14.106 240.428 14.334 240.044 14.79C239.66 15.234 239.468 15.822 239.468 16.554C239.468 17.262 239.636 17.808 239.972 18.192C240.32 18.576 240.818 18.768 241.466 18.768C241.814 18.768 242.132 18.69 242.42 18.534C242.72 18.366 242.972 18.108 243.176 17.76L245.066 19.272C244.658 19.968 244.118 20.46 243.446 20.748C242.786 21.036 242.06 21.18 241.268 21.18ZM250.231 21.18C249.103 21.18 248.209 20.868 247.549 20.244C246.889 19.608 246.565 18.774 246.577 17.742L246.649 14.124H245.137V11.838H246.685L246.703 9.966H249.439L249.421 11.838H252.283V14.124H249.385L249.331 17.436C249.331 17.868 249.445 18.204 249.673 18.444C249.901 18.684 250.243 18.804 250.699 18.804C250.963 18.804 251.215 18.774 251.455 18.714C251.707 18.642 251.965 18.51 252.229 18.318L253.021 20.424C252.409 20.928 251.479 21.18 250.231 21.18ZM256.562 11.838V21H253.808V11.838H256.562ZM255.176 10.758C254.648 10.758 254.228 10.596 253.916 10.272C253.604 9.948 253.448 9.564 253.448 9.12C253.448 8.676 253.598 8.292 253.898 7.968C254.21 7.644 254.636 7.482 255.176 7.482C255.704 7.482 256.124 7.644 256.436 7.968C256.748 8.292 256.904 8.676 256.904 9.12C256.904 9.564 256.748 9.948 256.436 10.272C256.124 10.596 255.704 10.758 255.176 10.758ZM265.032 11.838H267.768L264.402 21H260.478L257.598 11.838H260.586L262.602 18.732L265.032 11.838ZM271.222 11.838V21H268.468V11.838H271.222ZM269.836 10.758C269.308 10.758 268.888 10.596 268.576 10.272C268.264 9.948 268.108 9.564 268.108 9.12C268.108 8.676 268.258 8.292 268.558 7.968C268.87 7.644 269.296 7.482 269.836 7.482C270.364 7.482 270.784 7.644 271.096 7.968C271.408 8.292 271.564 8.676 271.564 9.12C271.564 9.564 271.408 9.948 271.096 10.272C270.784 10.596 270.364 10.758 269.836 10.758ZM277.442 21.18C276.314 21.18 275.42 20.868 274.76 20.244C274.1 19.608 273.776 18.774 273.788 17.742L273.86 14.124H272.348V11.838H273.896L273.914 9.966H276.65L276.632 11.838H279.494V14.124H276.596L276.542 17.436C276.542 17.868 276.656 18.204 276.884 18.444C277.112 18.684 277.454 18.804 277.91 18.804C278.174 18.804 278.426 18.774 278.666 18.714C278.918 18.642 279.176 18.51 279.44 18.318L280.232 20.424C279.62 20.928 278.69 21.18 277.442 21.18ZM284.225 24.78C283.853 24.78 283.457 24.75 283.037 24.69C282.617 24.642 282.209 24.564 281.813 24.456C281.429 24.348 281.105 24.204 280.841 24.024L281.489 21.684C281.909 21.888 282.347 22.05 282.803 22.17C283.271 22.302 283.799 22.368 284.387 22.368C285.383 22.368 286.091 22.14 286.511 21.684C286.943 21.228 287.189 20.514 287.249 19.542L287.303 18.804C286.931 19.44 286.463 19.938 285.899 20.298C285.335 20.646 284.699 20.82 283.991 20.82C282.911 20.82 282.101 20.46 281.561 19.74C281.021 19.02 280.757 18.012 280.769 16.716L280.805 11.838H283.559L283.523 16.518C283.523 17.058 283.619 17.484 283.811 17.796C284.003 18.108 284.315 18.264 284.747 18.264C285.239 18.264 285.665 18.066 286.025 17.67C286.385 17.274 286.667 16.614 286.871 15.69C287.075 14.754 287.189 13.47 287.213 11.838H289.877V19.218C289.877 21.138 289.367 22.542 288.347 23.43C287.339 24.33 285.965 24.78 284.225 24.78Z" fill="#F67E7E"/>
</g>
<circle cx="44" cy="44" r="28" fill="#2C6269"/>
<path fill-rule="evenodd" clip-rule="evenodd" d="M44.3333 4.6667C44.3333 2.093 46.4263 0 49 0C51.5737 0 53.6667 2.093 53.6667 4.6667C53.6667 7.24041 51.5737 9.33341 49 9.33341C48.1355 9.33341 47.3252 9.09726 46.6303 8.68608L39.0194 16.297C39.4306 16.992 39.6667 17.8022 39.6667 18.6667C39.6667 21.2404 37.5737 23.3334 35 23.3334C32.4263 23.3334 30.3333 21.2404 30.3333 18.6667C30.3333 18.4032 30.3552 18.1447 30.3974 17.893L25.0246 16.3608C24.2129 17.7396 22.7129 18.6667 21 18.6667C19.9493 18.6667 18.9788 18.3179 18.1981 17.73L11.0811 23.4046C11.4541 24.075 11.6667 24.8465 11.6667 25.6667C11.6667 28.2404 9.5737 30.3334 7 30.3334C4.4263 30.3334 2.3333 28.2404 2.3333 25.6667C2.3333 23.093 4.4263 21 7 21C7.90488 21 8.75035 21.2587 9.46631 21.7061L16.7404 15.9062C16.4788 15.3239 16.3333 14.6787 16.3333 14C16.3333 11.4263 18.4263 9.3333 21 9.3333C23.5737 9.3333 25.6667 11.4263 25.6667 14C25.6667 14.0389 25.6662 14.0777 25.6653 14.1165L31.3656 15.742C32.2217 14.6803 33.5327 14 35 14C35.8645 14 36.6748 14.2361 37.3697 14.6473L44.9806 7.03637C44.5694 6.34145 44.3333 5.5312 44.3333 4.6667ZM19.2225 15.5101C19.209 15.491 19.1948 15.4722 19.18 15.4537C19.1649 15.4348 19.1494 15.4164 19.1334 15.3987C18.8404 15.0086 18.6667 14.524 18.6667 14C18.6667 12.7143 19.712 11.6667 21 11.6667C22.288 11.6667 23.3333 12.7144 23.3333 14C23.3333 15.2857 22.288 16.3333 21 16.3333C20.2882 16.3333 19.6506 16.0133 19.2225 15.5101ZM8.61291 23.982C8.1938 23.5805 7.62552 23.3334 7 23.3334C5.712 23.3334 4.6667 24.381 4.6667 25.6667C4.6667 26.9523 5.712 28 7 28C8.288 28 9.3333 26.9523 9.3333 25.6667C9.3333 25.0421 9.08657 24.4737 8.68515 24.0543C8.66023 24.0314 8.63612 24.0073 8.61291 23.982ZM47.3975 6.3613C47.3831 6.34522 47.3681 6.32945 47.3527 6.314C47.3373 6.29859 47.3215 6.28369 47.3055 6.26933C46.9096 5.85087 46.6667 5.28643 46.6667 4.6667C46.6667 3.381 47.712 2.33341 49 2.33341C50.288 2.33341 51.3333 3.38111 51.3333 4.6667C51.3333 5.9523 50.288 7 49 7C48.3796 7 47.8155 6.75694 47.3975 6.3613ZM52.5 18.6667C53.144 18.6667 53.6667 19.1893 53.6667 19.8334V53.6667H54.8333C55.4773 53.6667 56 54.1893 56.0001 54.8333C56.0001 55.4773 55.4774 56 54.8334 56H52.5159L52.5 56.0001H45.5L45.4841 56H38.5159L38.5 56.0001H31.5L31.4841 56H24.5159L24.5 56.0001H17.5L17.4841 56H10.5H3.5H1.1667C0.522703 56 0 55.4773 0 54.8333C0 54.1893 0.522703 53.6667 1.1667 53.6667H2.3333V40.8334C2.3333 40.1894 2.856 39.6667 3.5 39.6667H10.5C11.144 39.6667 11.6667 40.1893 11.6667 40.8333V53.6667H16.3333V29.1667C16.3333 28.5227 16.856 28 17.5 28H24.5C25.144 28 25.6667 28.5227 25.6667 29.1667V53.6667H30.3333V33.8334C30.3333 33.1894 30.856 32.6667 31.5 32.6667H38.5C39.144 32.6667 39.6667 33.1893 39.6667 33.8334V53.6667H44.3333V19.8334C44.3333 19.1894 44.856 18.6667 45.5 18.6667H52.5ZM51.3333 21V53.6667H46.6666V21H51.3333ZM37.3333 53.6667V35H32.6666V53.6667H37.3333ZM18.6666 30.3333H23.3333V53.6667H18.6666V30.3333ZM9.33341 53.6667V42H4.6667V53.6667H9.3333H9.33341ZM35 21C33.712 21 32.6667 19.9523 32.6667 18.6667C32.6667 17.381 33.712 16.3334 35 16.3334C36.288 16.3334 37.3333 17.3811 37.3333 18.6667C37.3333 19.9523 36.288 21 35 21Z" fill="#79C8C7"/>
<defs>
<clipPath id="clip0_0_4348">
<rect width="445" height="94" fill="white" transform="translate(95)"/>
</clipPath>
</defs>
</svg>
