<svg width="540" height="94" viewBox="0 0 540 94" fill="none" xmlns="http://www.w3.org/2000/svg">
<g clip-path="url(#clip0_0_4303)">
<path opacity="0.8" d="M100.835 62.135C99.755 62.145 98.83 61.945 98.06 61.535C97.29 61.115 96.7 60.51 96.29 59.72C95.88 58.93 95.675 57.98 95.675 56.87C95.675 55.76 95.895 54.78 96.335 53.93C96.775 53.07 97.395 52.4 98.195 51.92C99.005 51.44 99.96 51.2 101.06 51.2C102.04 51.2 102.9 51.42 103.64 51.86C104.38 52.3 104.955 52.915 105.365 53.705C105.775 54.485 105.98 55.405 105.98 56.465C105.98 57.615 105.755 58.615 105.305 59.465C104.865 60.305 104.255 60.96 103.475 61.43C102.705 61.9 101.825 62.135 100.835 62.135ZM100.775 60.38C101.405 60.38 101.96 60.225 102.44 59.915C102.93 59.605 103.31 59.16 103.58 58.58C103.86 58 104 57.295 104 56.465C104 55.395 103.73 54.54 103.19 53.9C102.65 53.26 101.925 52.94 101.015 52.94C100.365 52.94 99.785 53.105 99.275 53.435C98.775 53.765 98.38 54.22 98.09 54.8C97.8 55.38 97.655 56.06 97.655 56.84C97.655 57.97 97.93 58.845 98.48 59.465C99.04 60.075 99.805 60.38 100.775 60.38ZM110.05 62.135C109.21 62.135 108.575 61.85 108.145 61.28C107.725 60.71 107.52 59.92 107.53 58.91L107.56 54.425H109.39L109.36 58.745C109.35 59.265 109.44 59.675 109.63 59.975C109.82 60.275 110.12 60.425 110.53 60.425C110.85 60.425 111.145 60.33 111.415 60.14C111.695 59.95 111.935 59.63 112.135 59.18C112.335 58.72 112.49 58.105 112.6 57.335C112.72 56.555 112.78 55.585 112.78 54.425H114.55V62H112.705L112.81 60.275C112.51 60.885 112.12 61.35 111.64 61.67C111.17 61.98 110.64 62.135 110.05 62.135ZM121.357 56.195C121.157 56.125 120.902 56.09 120.592 56.09C120.052 56.09 119.617 56.29 119.287 56.69C118.957 57.08 118.712 57.71 118.552 58.58C118.402 59.44 118.327 60.58 118.327 62H116.512V57.11L116.497 54.425H118.327L118.237 56.54C118.497 55.73 118.857 55.155 119.317 54.815C119.787 54.475 120.287 54.305 120.817 54.305C120.977 54.305 121.127 54.315 121.267 54.335C121.407 54.355 121.537 54.385 121.657 54.425L121.357 56.195ZM126.268 62V54.425H128.098L128.008 56.33C128.298 55.68 128.693 55.18 129.193 54.83C129.693 54.48 130.263 54.305 130.903 54.305C131.753 54.305 132.393 54.6 132.823 55.19C133.263 55.77 133.478 56.605 133.468 57.695L133.438 62H131.608L131.638 57.845C131.648 57.255 131.553 56.805 131.353 56.495C131.163 56.175 130.853 56.015 130.423 56.015C130.093 56.015 129.788 56.11 129.508 56.3C129.228 56.49 128.983 56.815 128.773 57.275C128.563 57.725 128.398 58.34 128.278 59.12C128.158 59.89 128.093 60.85 128.083 62H126.268ZM138.921 62.135C138.101 62.135 137.391 61.985 136.791 61.685C136.201 61.375 135.746 60.935 135.426 60.365C135.106 59.795 134.946 59.115 134.946 58.325C134.946 57.535 135.111 56.84 135.441 56.24C135.771 55.63 136.216 55.155 136.776 54.815C137.346 54.475 137.991 54.305 138.711 54.305C139.881 54.305 140.741 54.705 141.291 55.505C141.851 56.295 142.046 57.39 141.876 58.79H136.806C136.846 59.32 137.061 59.745 137.451 60.065C137.841 60.385 138.376 60.545 139.056 60.545C139.376 60.545 139.696 60.475 140.016 60.335C140.346 60.195 140.626 59.98 140.856 59.69L141.921 60.77C141.581 61.2 141.166 61.535 140.676 61.775C140.196 62.015 139.611 62.135 138.921 62.135ZM138.741 55.685C138.231 55.685 137.811 55.845 137.481 56.165C137.151 56.485 136.941 56.915 136.851 57.455H140.301C140.321 56.835 140.186 56.385 139.896 56.105C139.606 55.825 139.221 55.685 138.741 55.685ZM146.587 62.135C145.677 62.135 144.967 61.885 144.457 61.385C143.957 60.885 143.712 60.23 143.722 59.42L143.782 55.955H142.492V54.425H143.812L143.827 52.865H145.657L145.627 54.425H148.102V55.955H145.612L145.567 59.225C145.557 59.635 145.657 59.96 145.867 60.2C146.087 60.43 146.412 60.545 146.842 60.545C147.072 60.545 147.287 60.515 147.487 60.455C147.687 60.395 147.897 60.285 148.117 60.125L148.657 61.535C148.427 61.735 148.132 61.885 147.772 61.985C147.412 62.085 147.017 62.135 146.587 62.135ZM159.57 54.425H161.385L158.7 62H156.45L154.965 56.945L153.195 62H150.945L148.56 54.425H150.465L152.145 60.215L154.125 54.425H155.925L157.59 60.26L159.57 54.425ZM165.624 54.305C166.754 54.305 167.639 54.645 168.279 55.325C168.929 55.995 169.254 56.905 169.254 58.055C169.254 58.835 169.089 59.535 168.759 60.155C168.439 60.765 167.984 61.25 167.394 61.61C166.804 61.96 166.119 62.135 165.339 62.135C164.209 62.135 163.319 61.8 162.669 61.13C162.029 60.46 161.709 59.545 161.709 58.385C161.709 57.605 161.869 56.91 162.189 56.3C162.519 55.68 162.974 55.195 163.554 54.845C164.144 54.485 164.834 54.305 165.624 54.305ZM165.399 60.53C165.989 60.53 166.464 60.305 166.824 59.855C167.184 59.405 167.364 58.805 167.364 58.055C167.364 57.375 167.204 56.85 166.884 56.48C166.574 56.11 166.144 55.925 165.594 55.925C164.984 55.925 164.499 56.15 164.139 56.6C163.779 57.05 163.599 57.645 163.599 58.385C163.599 59.065 163.754 59.595 164.064 59.975C164.384 60.345 164.829 60.53 165.399 60.53ZM175.703 56.195C175.503 56.125 175.248 56.09 174.938 56.09C174.398 56.09 173.963 56.29 173.633 56.69C173.303 57.08 173.058 57.71 172.898 58.58C172.748 59.44 172.673 60.58 172.673 62H170.858V57.11L170.843 54.425H172.673L172.583 56.54C172.843 55.73 173.203 55.155 173.663 54.815C174.133 54.475 174.633 54.305 175.163 54.305C175.323 54.305 175.473 54.315 175.613 54.335C175.753 54.355 175.883 54.385 176.003 54.425L175.703 56.195ZM176.966 62V50.9H178.796V57.53L181.796 54.44H184.001L180.476 58.085C180.706 58.225 180.906 58.42 181.076 58.67L181.856 59.84C182.186 60.34 182.626 60.59 183.176 60.59C183.456 60.59 183.721 60.52 183.971 60.38L184.391 61.73C184.151 61.88 183.901 61.985 183.641 62.045C183.391 62.105 183.121 62.135 182.831 62.135C182.271 62.125 181.796 62.015 181.406 61.805C181.026 61.595 180.676 61.245 180.356 60.755L179.561 59.585C179.291 59.165 179.036 58.88 178.796 58.73V62H176.966ZM190.354 54.425V62H188.524V54.425H190.354ZM189.439 53.225C189.079 53.225 188.794 53.115 188.584 52.895C188.374 52.675 188.269 52.41 188.269 52.1C188.269 51.79 188.374 51.525 188.584 51.305C188.794 51.085 189.079 50.975 189.439 50.975C189.799 50.975 190.084 51.085 190.294 51.305C190.504 51.525 190.609 51.79 190.609 52.1C190.609 52.41 190.504 52.675 190.294 52.895C190.084 53.115 189.799 53.225 189.439 53.225ZM194.958 62.135C193.918 62.135 193.123 61.94 192.573 61.55C192.023 61.15 191.703 60.595 191.613 59.885L193.158 59.51C193.218 59.89 193.393 60.185 193.683 60.395C193.973 60.595 194.388 60.695 194.928 60.695C195.368 60.695 195.698 60.625 195.918 60.485C196.148 60.345 196.263 60.155 196.263 59.915C196.263 59.675 196.138 59.49 195.888 59.36C195.648 59.23 195.273 59.115 194.763 59.015C194.193 58.905 193.703 58.765 193.293 58.595C192.893 58.425 192.583 58.195 192.363 57.905C192.153 57.605 192.048 57.215 192.048 56.735C192.048 56.275 192.178 55.865 192.438 55.505C192.698 55.135 193.053 54.845 193.503 54.635C193.963 54.415 194.488 54.305 195.078 54.305C195.868 54.305 196.513 54.49 197.013 54.86C197.523 55.23 197.828 55.705 197.928 56.285L196.413 56.69C196.343 56.4 196.193 56.175 195.963 56.015C195.733 55.845 195.423 55.76 195.033 55.76C194.643 55.76 194.343 55.84 194.133 56C193.933 56.16 193.833 56.36 193.833 56.6C193.833 56.84 193.948 57.03 194.178 57.17C194.418 57.3 194.823 57.425 195.393 57.545C195.923 57.655 196.383 57.795 196.773 57.965C197.173 58.125 197.488 58.35 197.718 58.64C197.948 58.92 198.063 59.3 198.063 59.78C198.063 60.25 197.928 60.665 197.658 61.025C197.398 61.375 197.033 61.65 196.563 61.85C196.093 62.04 195.558 62.135 194.958 62.135ZM203.026 62V54.425H204.856L204.766 56.285C205.076 55.595 205.476 55.095 205.966 54.785C206.466 54.465 207.001 54.305 207.571 54.305C208.121 54.305 208.606 54.455 209.026 54.755C209.446 55.055 209.746 55.525 209.926 56.165C210.246 55.535 210.666 55.07 211.186 54.77C211.716 54.46 212.261 54.305 212.821 54.305C213.661 54.305 214.296 54.6 214.726 55.19C215.166 55.77 215.381 56.605 215.371 57.695L215.341 62H213.511L213.541 57.755C213.541 57.205 213.441 56.78 213.241 56.48C213.041 56.17 212.731 56.015 212.311 56.015C212.021 56.015 211.741 56.11 211.471 56.3C211.211 56.48 210.976 56.795 210.766 57.245C210.566 57.695 210.406 58.31 210.286 59.09C210.166 59.86 210.101 60.83 210.091 62H208.276V57.755C208.276 57.205 208.181 56.78 207.991 56.48C207.801 56.17 207.496 56.015 207.076 56.015C206.786 56.015 206.506 56.11 206.236 56.3C205.976 56.48 205.741 56.795 205.531 57.245C205.331 57.695 205.166 58.31 205.036 59.09C204.916 59.86 204.851 60.83 204.841 62H203.026ZM224.3 54.455V62H222.44L222.5 60.68C222.23 61.14 221.875 61.5 221.435 61.76C221.005 62.01 220.51 62.135 219.95 62.135C219.29 62.135 218.73 61.985 218.27 61.685C217.81 61.375 217.46 60.95 217.22 60.41C216.98 59.87 216.86 59.25 216.86 58.55C216.86 57.71 217.025 56.975 217.355 56.345C217.685 55.705 218.135 55.205 218.705 54.845C219.285 54.485 219.935 54.305 220.655 54.305C221.135 54.305 221.56 54.41 221.93 54.62C222.3 54.82 222.585 55.09 222.785 55.43L222.965 54.455H224.3ZM220.79 55.925C220.17 55.925 219.675 56.16 219.305 56.63C218.935 57.1 218.75 57.715 218.75 58.475C218.75 59.125 218.89 59.63 219.17 59.99C219.45 60.35 219.835 60.53 220.325 60.53C220.725 60.53 221.085 60.415 221.405 60.185C221.735 59.955 221.995 59.635 222.185 59.225C222.375 58.815 222.47 58.345 222.47 57.815C222.47 57.225 222.32 56.765 222.02 56.435C221.72 56.095 221.31 55.925 220.79 55.925ZM233.324 50.9V62H231.464L231.524 60.68C231.254 61.15 230.904 61.51 230.474 61.76C230.044 62.01 229.544 62.135 228.974 62.135C228.314 62.135 227.754 61.985 227.294 61.685C226.834 61.375 226.484 60.95 226.244 60.41C226.004 59.87 225.884 59.25 225.884 58.55C225.884 57.71 226.049 56.975 226.379 56.345C226.709 55.705 227.159 55.205 227.729 54.845C228.309 54.485 228.959 54.305 229.679 54.305C230.059 54.305 230.404 54.37 230.714 54.5C231.034 54.63 231.299 54.81 231.509 55.04L231.494 54.425V50.9H233.324ZM229.814 55.925C229.194 55.925 228.699 56.16 228.329 56.63C227.959 57.1 227.774 57.715 227.774 58.475C227.774 59.125 227.914 59.63 228.194 59.99C228.474 60.35 228.859 60.53 229.349 60.53C229.749 60.53 230.109 60.415 230.429 60.185C230.759 59.955 231.019 59.635 231.209 59.225C231.399 58.815 231.494 58.345 231.494 57.815C231.494 57.225 231.344 56.765 231.044 56.435C230.744 56.095 230.334 55.925 229.814 55.925ZM238.882 62.135C238.062 62.135 237.352 61.985 236.752 61.685C236.162 61.375 235.707 60.935 235.387 60.365C235.067 59.795 234.907 59.115 234.907 58.325C234.907 57.535 235.072 56.84 235.402 56.24C235.732 55.63 236.177 55.155 236.737 54.815C237.307 54.475 237.952 54.305 238.672 54.305C239.842 54.305 240.702 54.705 241.252 55.505C241.812 56.295 242.007 57.39 241.837 58.79H236.767C236.807 59.32 237.022 59.745 237.412 60.065C237.802 60.385 238.337 60.545 239.017 60.545C239.337 60.545 239.657 60.475 239.977 60.335C240.307 60.195 240.587 59.98 240.817 59.69L241.882 60.77C241.542 61.2 241.127 61.535 240.637 61.775C240.157 62.015 239.572 62.135 238.882 62.135ZM238.702 55.685C238.192 55.685 237.772 55.845 237.442 56.165C237.112 56.485 236.902 56.915 236.812 57.455H240.262C240.282 56.835 240.147 56.385 239.857 56.105C239.567 55.825 239.182 55.685 238.702 55.685ZM249.474 62.135C248.634 62.135 247.999 61.85 247.569 61.28C247.149 60.71 246.944 59.92 246.954 58.91L246.984 54.425H248.814L248.784 58.745C248.774 59.265 248.864 59.675 249.054 59.975C249.244 60.275 249.544 60.425 249.954 60.425C250.274 60.425 250.569 60.33 250.839 60.14C251.119 59.95 251.359 59.63 251.559 59.18C251.759 58.72 251.914 58.105 252.024 57.335C252.144 56.555 252.204 55.585 252.204 54.425H253.974V62H252.129L252.234 60.275C251.934 60.885 251.544 61.35 251.064 61.67C250.594 61.98 250.064 62.135 249.474 62.135ZM255.921 65V54.425H257.766L257.706 55.775C257.976 55.305 258.326 54.945 258.756 54.695C259.186 54.435 259.686 54.305 260.256 54.305C260.926 54.305 261.491 54.46 261.951 54.77C262.411 55.08 262.761 55.505 263.001 56.045C263.241 56.585 263.361 57.2 263.361 57.89C263.361 58.73 263.196 59.47 262.866 60.11C262.536 60.75 262.081 61.25 261.501 61.61C260.931 61.96 260.281 62.135 259.551 62.135C259.171 62.135 258.826 62.07 258.516 61.94C258.206 61.81 257.946 61.635 257.736 61.415L257.751 62V65H255.921ZM259.416 60.53C260.046 60.53 260.546 60.29 260.916 59.81C261.286 59.33 261.471 58.71 261.471 57.95C261.471 57.31 261.331 56.815 261.051 56.465C260.771 56.105 260.386 55.925 259.896 55.925C259.486 55.925 259.121 56.04 258.801 56.27C258.481 56.49 258.226 56.805 258.036 57.215C257.846 57.615 257.751 58.08 257.751 58.61C257.751 59.2 257.901 59.67 258.201 60.02C258.501 60.36 258.906 60.53 259.416 60.53ZM272.147 54.305C273.277 54.305 274.162 54.645 274.802 55.325C275.452 55.995 275.777 56.905 275.777 58.055C275.777 58.835 275.612 59.535 275.282 60.155C274.962 60.765 274.507 61.25 273.917 61.61C273.327 61.96 272.642 62.135 271.862 62.135C270.732 62.135 269.842 61.8 269.192 61.13C268.552 60.46 268.232 59.545 268.232 58.385C268.232 57.605 268.392 56.91 268.712 56.3C269.042 55.68 269.497 55.195 270.077 54.845C270.667 54.485 271.357 54.305 272.147 54.305ZM271.922 60.53C272.512 60.53 272.987 60.305 273.347 59.855C273.707 59.405 273.887 58.805 273.887 58.055C273.887 57.375 273.727 56.85 273.407 56.48C273.097 56.11 272.667 55.925 272.117 55.925C271.507 55.925 271.022 56.15 270.662 56.6C270.302 57.05 270.122 57.645 270.122 58.385C270.122 59.065 270.277 59.595 270.587 59.975C270.907 60.345 271.352 60.53 271.922 60.53ZM277.742 62V55.955H276.302V54.425H277.742V54.02C277.742 53.35 277.877 52.775 278.147 52.295C278.427 51.805 278.802 51.425 279.272 51.155C279.752 50.885 280.302 50.75 280.922 50.75C281.662 50.75 282.252 50.935 282.692 51.305C283.142 51.665 283.412 52.21 283.502 52.94L281.942 53.12C281.912 52.86 281.802 52.66 281.612 52.52C281.422 52.37 281.177 52.295 280.877 52.295C280.467 52.295 280.142 52.43 279.902 52.7C279.672 52.97 279.557 53.355 279.557 53.855V54.425H281.807V55.955H279.587V62H277.742ZM286.449 62V50.9H288.279L288.294 54.425L288.189 56.315C288.489 55.675 288.884 55.18 289.374 54.83C289.874 54.48 290.444 54.305 291.084 54.305C291.934 54.305 292.574 54.6 293.004 55.19C293.444 55.77 293.659 56.605 293.649 57.695L293.619 62H291.789L291.819 57.845C291.829 57.255 291.734 56.805 291.534 56.495C291.344 56.175 291.034 56.015 290.604 56.015C290.274 56.015 289.969 56.11 289.689 56.3C289.409 56.49 289.164 56.815 288.954 57.275C288.744 57.725 288.579 58.34 288.459 59.12C288.339 59.89 288.274 60.85 288.264 62H286.449ZM297.317 54.425V62H295.487V54.425H297.317ZM296.402 53.225C296.042 53.225 295.757 53.115 295.547 52.895C295.337 52.675 295.232 52.41 295.232 52.1C295.232 51.79 295.337 51.525 295.547 51.305C295.757 51.085 296.042 50.975 296.402 50.975C296.762 50.975 297.047 51.085 297.257 51.305C297.467 51.525 297.572 51.79 297.572 52.1C297.572 52.41 297.467 52.675 297.257 52.895C297.047 53.115 296.762 53.225 296.402 53.225ZM301.996 65.15C301.556 65.15 301.081 65.105 300.571 65.015C300.071 64.925 299.656 64.775 299.326 64.565L299.776 62.975C300.106 63.145 300.461 63.28 300.841 63.38C301.231 63.48 301.646 63.53 302.086 63.53C302.976 63.53 303.606 63.32 303.976 62.9C304.346 62.48 304.551 61.82 304.591 60.92L304.621 60.455C304.341 60.925 303.986 61.285 303.556 61.535C303.136 61.775 302.641 61.895 302.071 61.895C301.391 61.895 300.811 61.75 300.331 61.46C299.861 61.17 299.506 60.765 299.266 60.245C299.026 59.725 298.906 59.13 298.906 58.46C298.906 57.65 299.066 56.935 299.386 56.315C299.716 55.685 300.166 55.195 300.736 54.845C301.316 54.485 301.981 54.305 302.731 54.305C303.231 54.305 303.666 54.41 304.036 54.62C304.406 54.82 304.691 55.09 304.891 55.43L305.071 54.455H306.406V60.695C306.406 62.185 306.016 63.3 305.236 64.04C304.456 64.78 303.376 65.15 301.996 65.15ZM302.866 55.925C302.236 55.925 301.731 56.15 301.351 56.6C300.981 57.05 300.796 57.63 300.796 58.34C300.796 58.96 300.941 59.44 301.231 59.78C301.521 60.12 301.916 60.29 302.416 60.29C302.826 60.29 303.191 60.18 303.511 59.96C303.841 59.73 304.101 59.42 304.291 59.03C304.481 58.64 304.576 58.2 304.576 57.71C304.576 57.15 304.421 56.715 304.111 56.405C303.801 56.085 303.386 55.925 302.866 55.925ZM308.363 62V50.9H310.193L310.208 54.425L310.103 56.315C310.403 55.675 310.798 55.18 311.288 54.83C311.788 54.48 312.358 54.305 312.998 54.305C313.848 54.305 314.488 54.6 314.918 55.19C315.358 55.77 315.573 56.605 315.563 57.695L315.533 62H313.703L313.733 57.845C313.743 57.255 313.648 56.805 313.448 56.495C313.258 56.175 312.948 56.015 312.518 56.015C312.188 56.015 311.883 56.11 311.603 56.3C311.323 56.49 311.078 56.815 310.868 57.275C310.658 57.725 310.493 58.34 310.373 59.12C310.253 59.89 310.188 60.85 310.178 62H308.363ZM319.591 62.135C318.871 62.135 318.326 61.94 317.956 61.55C317.586 61.16 317.401 60.605 317.401 59.885V50.9H319.231V59.735C319.231 60.275 319.481 60.545 319.981 60.545C320.231 60.545 320.451 60.485 320.641 60.365L321.091 61.7C320.931 61.82 320.716 61.92 320.446 62C320.176 62.09 319.891 62.135 319.591 62.135ZM324.362 65.15C323.912 65.15 323.432 65.105 322.922 65.015C322.422 64.925 322.007 64.775 321.677 64.565L322.127 62.975C322.467 63.145 322.827 63.28 323.207 63.38C323.587 63.48 324.002 63.53 324.452 63.53C325.332 63.53 325.957 63.32 326.327 62.9C326.697 62.49 326.902 61.83 326.942 60.92L327.002 59.93C326.702 60.57 326.302 61.06 325.802 61.4C325.312 61.73 324.762 61.895 324.152 61.895C323.302 61.895 322.662 61.61 322.232 61.04C321.802 60.47 321.592 59.68 321.602 58.67L321.632 54.425H323.462L323.432 58.52C323.432 59.04 323.522 59.45 323.702 59.75C323.892 60.04 324.197 60.185 324.617 60.185C325.077 60.185 325.477 60.01 325.817 59.66C326.157 59.3 326.422 58.705 326.612 57.875C326.812 57.035 326.917 55.885 326.927 54.425H328.697V60.695C328.697 62.215 328.317 63.335 327.557 64.055C326.797 64.785 325.732 65.15 324.362 65.15ZM337.905 62.135C337.085 62.135 336.375 61.985 335.775 61.685C335.185 61.375 334.73 60.935 334.41 60.365C334.09 59.795 333.93 59.115 333.93 58.325C333.93 57.535 334.095 56.84 334.425 56.24C334.755 55.63 335.2 55.155 335.76 54.815C336.33 54.475 336.975 54.305 337.695 54.305C338.865 54.305 339.725 54.705 340.275 55.505C340.835 56.295 341.03 57.39 340.86 58.79H335.79C335.83 59.32 336.045 59.745 336.435 60.065C336.825 60.385 337.36 60.545 338.04 60.545C338.36 60.545 338.68 60.475 339 60.335C339.33 60.195 339.61 59.98 339.84 59.69L340.905 60.77C340.565 61.2 340.15 61.535 339.66 61.775C339.18 62.015 338.595 62.135 337.905 62.135ZM337.725 55.685C337.215 55.685 336.795 55.845 336.465 56.165C336.135 56.485 335.925 56.915 335.835 57.455H339.285C339.305 56.835 339.17 56.385 338.88 56.105C338.59 55.825 338.205 55.685 337.725 55.685ZM343.382 62H341.252L344.057 58.145L341.402 54.425H343.622L345.182 56.615L346.757 54.425H348.887L346.202 58.07L348.992 62H346.757L345.092 59.585L343.382 62ZM349.876 65V54.425H351.721L351.661 55.775C351.931 55.305 352.281 54.945 352.711 54.695C353.141 54.435 353.641 54.305 354.211 54.305C354.881 54.305 355.446 54.46 355.906 54.77C356.366 55.08 356.716 55.505 356.956 56.045C357.196 56.585 357.316 57.2 357.316 57.89C357.316 58.73 357.151 59.47 356.821 60.11C356.491 60.75 356.036 61.25 355.456 61.61C354.886 61.96 354.236 62.135 353.506 62.135C353.126 62.135 352.781 62.07 352.471 61.94C352.161 61.81 351.901 61.635 351.691 61.415L351.706 62V65H349.876ZM353.371 60.53C354.001 60.53 354.501 60.29 354.871 59.81C355.241 59.33 355.426 58.71 355.426 57.95C355.426 57.31 355.286 56.815 355.006 56.465C354.726 56.105 354.341 55.925 353.851 55.925C353.441 55.925 353.076 56.04 352.756 56.27C352.436 56.49 352.181 56.805 351.991 57.215C351.801 57.615 351.706 58.08 351.706 58.61C351.706 59.2 351.856 59.67 352.156 60.02C352.456 60.36 352.861 60.53 353.371 60.53ZM362.515 62.135C361.695 62.135 360.985 61.985 360.385 61.685C359.795 61.375 359.34 60.935 359.02 60.365C358.7 59.795 358.54 59.115 358.54 58.325C358.54 57.535 358.705 56.84 359.035 56.24C359.365 55.63 359.81 55.155 360.37 54.815C360.94 54.475 361.585 54.305 362.305 54.305C363.475 54.305 364.335 54.705 364.885 55.505C365.445 56.295 365.64 57.39 365.47 58.79H360.4C360.44 59.32 360.655 59.745 361.045 60.065C361.435 60.385 361.97 60.545 362.65 60.545C362.97 60.545 363.29 60.475 363.61 60.335C363.94 60.195 364.22 59.98 364.45 59.69L365.515 60.77C365.175 61.2 364.76 61.535 364.27 61.775C363.79 62.015 363.205 62.135 362.515 62.135ZM362.335 55.685C361.825 55.685 361.405 55.845 361.075 56.165C360.745 56.485 360.535 56.915 360.445 57.455H363.895C363.915 56.835 363.78 56.385 363.49 56.105C363.2 55.825 362.815 55.685 362.335 55.685ZM371.904 56.195C371.704 56.125 371.449 56.09 371.139 56.09C370.599 56.09 370.164 56.29 369.834 56.69C369.504 57.08 369.259 57.71 369.099 58.58C368.949 59.44 368.874 60.58 368.874 62H367.059V57.11L367.044 54.425H368.874L368.784 56.54C369.044 55.73 369.404 55.155 369.864 54.815C370.334 54.475 370.834 54.305 371.364 54.305C371.524 54.305 371.674 54.315 371.814 54.335C371.954 54.355 372.084 54.385 372.204 54.425L371.904 56.195ZM374.997 54.425V62H373.167V54.425H374.997ZM374.082 53.225C373.722 53.225 373.437 53.115 373.227 52.895C373.017 52.675 372.912 52.41 372.912 52.1C372.912 51.79 373.017 51.525 373.227 51.305C373.437 51.085 373.722 50.975 374.082 50.975C374.442 50.975 374.727 51.085 374.937 51.305C375.147 51.525 375.252 51.79 375.252 52.1C375.252 52.41 375.147 52.675 374.937 52.895C374.727 53.115 374.442 53.225 374.082 53.225ZM380.562 62.135C379.742 62.135 379.032 61.985 378.432 61.685C377.842 61.375 377.387 60.935 377.067 60.365C376.747 59.795 376.587 59.115 376.587 58.325C376.587 57.535 376.752 56.84 377.082 56.24C377.412 55.63 377.857 55.155 378.417 54.815C378.987 54.475 379.632 54.305 380.352 54.305C381.522 54.305 382.382 54.705 382.932 55.505C383.492 56.295 383.687 57.39 383.517 58.79H378.447C378.487 59.32 378.702 59.745 379.092 60.065C379.482 60.385 380.017 60.545 380.697 60.545C381.017 60.545 381.337 60.475 381.657 60.335C381.987 60.195 382.267 59.98 382.497 59.69L383.562 60.77C383.222 61.2 382.807 61.535 382.317 61.775C381.837 62.015 381.252 62.135 380.562 62.135ZM380.382 55.685C379.872 55.685 379.452 55.845 379.122 56.165C378.792 56.485 378.582 56.915 378.492 57.455H381.942C381.962 56.835 381.827 56.385 381.537 56.105C381.247 55.825 380.862 55.685 380.382 55.685ZM385.091 62V54.425H386.921L386.831 56.33C387.121 55.68 387.516 55.18 388.016 54.83C388.516 54.48 389.086 54.305 389.726 54.305C390.576 54.305 391.216 54.6 391.646 55.19C392.086 55.77 392.301 56.605 392.291 57.695L392.261 62H390.431L390.461 57.845C390.471 57.255 390.376 56.805 390.176 56.495C389.986 56.175 389.676 56.015 389.246 56.015C388.916 56.015 388.611 56.11 388.331 56.3C388.051 56.49 387.806 56.815 387.596 57.275C387.386 57.725 387.221 58.34 387.101 59.12C386.981 59.89 386.916 60.85 386.906 62H385.091ZM397.504 62.135C396.354 62.135 395.444 61.805 394.774 61.145C394.104 60.475 393.769 59.545 393.769 58.355C393.769 57.555 393.934 56.85 394.264 56.24C394.594 55.63 395.054 55.155 395.644 54.815C396.234 54.475 396.914 54.305 397.684 54.305C398.324 54.305 398.884 54.43 399.364 54.68C399.844 54.93 400.234 55.32 400.534 55.85L399.229 56.84C399.039 56.52 398.819 56.29 398.569 56.15C398.329 56.01 398.034 55.94 397.684 55.94C397.094 55.94 396.609 56.16 396.229 56.6C395.859 57.04 395.674 57.62 395.674 58.34C395.674 59.04 395.839 59.58 396.169 59.96C396.509 60.33 396.994 60.515 397.624 60.515C397.954 60.515 398.259 60.44 398.539 60.29C398.829 60.14 399.069 59.905 399.259 59.585L400.534 60.605C400.194 61.155 399.764 61.55 399.244 61.79C398.724 62.02 398.144 62.135 397.504 62.135ZM404.849 62.135C404.029 62.135 403.319 61.985 402.719 61.685C402.129 61.375 401.674 60.935 401.354 60.365C401.034 59.795 400.874 59.115 400.874 58.325C400.874 57.535 401.039 56.84 401.369 56.24C401.699 55.63 402.144 55.155 402.704 54.815C403.274 54.475 403.919 54.305 404.639 54.305C405.809 54.305 406.669 54.705 407.219 55.505C407.779 56.295 407.974 57.39 407.804 58.79H402.734C402.774 59.32 402.989 59.745 403.379 60.065C403.769 60.385 404.304 60.545 404.984 60.545C405.304 60.545 405.624 60.475 405.944 60.335C406.274 60.195 406.554 59.98 406.784 59.69L407.849 60.77C407.509 61.2 407.094 61.535 406.604 61.775C406.124 62.015 405.539 62.135 404.849 62.135ZM404.669 55.685C404.159 55.685 403.739 55.845 403.409 56.165C403.079 56.485 402.869 56.915 402.779 57.455H406.229C406.249 56.835 406.114 56.385 405.824 56.105C405.534 55.825 405.149 55.685 404.669 55.685ZM416.458 50.9V62H414.598L414.658 60.68C414.388 61.15 414.038 61.51 413.608 61.76C413.178 62.01 412.678 62.135 412.108 62.135C411.448 62.135 410.888 61.985 410.428 61.685C409.968 61.375 409.618 60.95 409.378 60.41C409.138 59.87 409.018 59.25 409.018 58.55C409.018 57.71 409.183 56.975 409.513 56.345C409.843 55.705 410.293 55.205 410.863 54.845C411.443 54.485 412.093 54.305 412.813 54.305C413.193 54.305 413.538 54.37 413.848 54.5C414.168 54.63 414.433 54.81 414.643 55.04L414.628 54.425V50.9H416.458ZM412.948 55.925C412.328 55.925 411.833 56.16 411.463 56.63C411.093 57.1 410.908 57.715 410.908 58.475C410.908 59.125 411.048 59.63 411.328 59.99C411.608 60.35 411.993 60.53 412.483 60.53C412.883 60.53 413.243 60.415 413.563 60.185C413.893 59.955 414.153 59.635 414.343 59.225C414.533 58.815 414.628 58.345 414.628 57.815C414.628 57.225 414.478 56.765 414.178 56.435C413.878 56.095 413.468 55.925 412.948 55.925ZM422.049 65V54.425H423.894L423.834 55.775C424.104 55.305 424.454 54.945 424.884 54.695C425.314 54.435 425.814 54.305 426.384 54.305C427.054 54.305 427.619 54.46 428.079 54.77C428.539 55.08 428.889 55.505 429.129 56.045C429.369 56.585 429.489 57.2 429.489 57.89C429.489 58.73 429.324 59.47 428.994 60.11C428.664 60.75 428.209 61.25 427.629 61.61C427.059 61.96 426.409 62.135 425.679 62.135C425.299 62.135 424.954 62.07 424.644 61.94C424.334 61.81 424.074 61.635 423.864 61.415L423.879 62V65H422.049ZM425.544 60.53C426.174 60.53 426.674 60.29 427.044 59.81C427.414 59.33 427.599 58.71 427.599 57.95C427.599 57.31 427.459 56.815 427.179 56.465C426.899 56.105 426.514 55.925 426.024 55.925C425.614 55.925 425.249 56.04 424.929 56.27C424.609 56.49 424.354 56.805 424.164 57.215C423.974 57.615 423.879 58.08 423.879 58.61C423.879 59.2 424.029 59.67 424.329 60.02C424.629 60.36 425.034 60.53 425.544 60.53ZM435.933 56.195C435.733 56.125 435.478 56.09 435.168 56.09C434.628 56.09 434.193 56.29 433.863 56.69C433.533 57.08 433.288 57.71 433.128 58.58C432.978 59.44 432.903 60.58 432.903 62H431.088V57.11L431.073 54.425H432.903L432.813 56.54C433.073 55.73 433.433 55.155 433.893 54.815C434.363 54.475 434.863 54.305 435.393 54.305C435.553 54.305 435.703 54.315 435.843 54.335C435.983 54.355 436.113 54.385 436.233 54.425L435.933 56.195ZM440.399 54.305C441.529 54.305 442.414 54.645 443.054 55.325C443.704 55.995 444.029 56.905 444.029 58.055C444.029 58.835 443.864 59.535 443.534 60.155C443.214 60.765 442.759 61.25 442.169 61.61C441.579 61.96 440.894 62.135 440.114 62.135C438.984 62.135 438.094 61.8 437.444 61.13C436.804 60.46 436.484 59.545 436.484 58.385C436.484 57.605 436.644 56.91 436.964 56.3C437.294 55.68 437.749 55.195 438.329 54.845C438.919 54.485 439.609 54.305 440.399 54.305ZM440.174 60.53C440.764 60.53 441.239 60.305 441.599 59.855C441.959 59.405 442.139 58.805 442.139 58.055C442.139 57.375 441.979 56.85 441.659 56.48C441.349 56.11 440.919 55.925 440.369 55.925C439.759 55.925 439.274 56.15 438.914 56.6C438.554 57.05 438.374 57.645 438.374 58.385C438.374 59.065 438.529 59.595 438.839 59.975C439.159 60.345 439.604 60.53 440.174 60.53ZM445.994 62V55.955H444.554V54.425H445.994V54.02C445.994 53.35 446.129 52.775 446.399 52.295C446.679 51.805 447.054 51.425 447.524 51.155C448.004 50.885 448.554 50.75 449.174 50.75C449.914 50.75 450.504 50.935 450.944 51.305C451.394 51.665 451.664 52.21 451.754 52.94L450.194 53.12C450.164 52.86 450.054 52.66 449.864 52.52C449.674 52.37 449.429 52.295 449.129 52.295C448.719 52.295 448.394 52.43 448.154 52.7C447.924 52.97 447.809 53.355 447.809 53.855V54.425H450.059V55.955H447.839V62H445.994ZM454.331 62.135C453.511 62.135 452.801 61.985 452.201 61.685C451.611 61.375 451.156 60.935 450.836 60.365C450.516 59.795 450.356 59.115 450.356 58.325C450.356 57.535 450.521 56.84 450.851 56.24C451.181 55.63 451.626 55.155 452.186 54.815C452.756 54.475 453.401 54.305 454.121 54.305C455.291 54.305 456.151 54.705 456.701 55.505C457.261 56.295 457.456 57.39 457.286 58.79H452.216C452.256 59.32 452.471 59.745 452.861 60.065C453.251 60.385 453.786 60.545 454.466 60.545C454.786 60.545 455.106 60.475 455.426 60.335C455.756 60.195 456.036 59.98 456.266 59.69L457.331 60.77C456.991 61.2 456.576 61.535 456.086 61.775C455.606 62.015 455.021 62.135 454.331 62.135ZM454.151 55.685C453.641 55.685 453.221 55.845 452.891 56.165C452.561 56.485 452.351 56.915 452.261 57.455H455.711C455.731 56.835 455.596 56.385 455.306 56.105C455.016 55.825 454.631 55.685 454.151 55.685ZM461.516 62.135C460.476 62.135 459.681 61.94 459.131 61.55C458.581 61.15 458.261 60.595 458.171 59.885L459.716 59.51C459.776 59.89 459.951 60.185 460.241 60.395C460.531 60.595 460.946 60.695 461.486 60.695C461.926 60.695 462.256 60.625 462.476 60.485C462.706 60.345 462.821 60.155 462.821 59.915C462.821 59.675 462.696 59.49 462.446 59.36C462.206 59.23 461.831 59.115 461.321 59.015C460.751 58.905 460.261 58.765 459.851 58.595C459.451 58.425 459.141 58.195 458.921 57.905C458.711 57.605 458.606 57.215 458.606 56.735C458.606 56.275 458.736 55.865 458.996 55.505C459.256 55.135 459.611 54.845 460.061 54.635C460.521 54.415 461.046 54.305 461.636 54.305C462.426 54.305 463.071 54.49 463.571 54.86C464.081 55.23 464.386 55.705 464.486 56.285L462.971 56.69C462.901 56.4 462.751 56.175 462.521 56.015C462.291 55.845 461.981 55.76 461.591 55.76C461.201 55.76 460.901 55.84 460.691 56C460.491 56.16 460.391 56.36 460.391 56.6C460.391 56.84 460.506 57.03 460.736 57.17C460.976 57.3 461.381 57.425 461.951 57.545C462.481 57.655 462.941 57.795 463.331 57.965C463.731 58.125 464.046 58.35 464.276 58.64C464.506 58.92 464.621 59.3 464.621 59.78C464.621 60.25 464.486 60.665 464.216 61.025C463.956 61.375 463.591 61.65 463.121 61.85C462.651 62.04 462.116 62.135 461.516 62.135ZM468.591 62.135C467.551 62.135 466.756 61.94 466.206 61.55C465.656 61.15 465.336 60.595 465.246 59.885L466.791 59.51C466.851 59.89 467.026 60.185 467.316 60.395C467.606 60.595 468.021 60.695 468.561 60.695C469.001 60.695 469.331 60.625 469.551 60.485C469.781 60.345 469.896 60.155 469.896 59.915C469.896 59.675 469.771 59.49 469.521 59.36C469.281 59.23 468.906 59.115 468.396 59.015C467.826 58.905 467.336 58.765 466.926 58.595C466.526 58.425 466.216 58.195 465.996 57.905C465.786 57.605 465.681 57.215 465.681 56.735C465.681 56.275 465.811 55.865 466.071 55.505C466.331 55.135 466.686 54.845 467.136 54.635C467.596 54.415 468.121 54.305 468.711 54.305C469.501 54.305 470.146 54.49 470.646 54.86C471.156 55.23 471.461 55.705 471.561 56.285L470.046 56.69C469.976 56.4 469.826 56.175 469.596 56.015C469.366 55.845 469.056 55.76 468.666 55.76C468.276 55.76 467.976 55.84 467.766 56C467.566 56.16 467.466 56.36 467.466 56.6C467.466 56.84 467.581 57.03 467.811 57.17C468.051 57.3 468.456 57.425 469.026 57.545C469.556 57.655 470.016 57.795 470.406 57.965C470.806 58.125 471.121 58.35 471.351 58.64C471.581 58.92 471.696 59.3 471.696 59.78C471.696 60.25 471.561 60.665 471.291 61.025C471.031 61.375 470.666 61.65 470.196 61.85C469.726 62.04 469.191 62.135 468.591 62.135ZM474.841 54.425V62H473.011V54.425H474.841ZM473.926 53.225C473.566 53.225 473.281 53.115 473.071 52.895C472.861 52.675 472.756 52.41 472.756 52.1C472.756 51.79 472.861 51.525 473.071 51.305C473.281 51.085 473.566 50.975 473.926 50.975C474.286 50.975 474.571 51.085 474.781 51.305C474.991 51.525 475.096 51.79 475.096 52.1C475.096 52.41 474.991 52.675 474.781 52.895C474.571 53.115 474.286 53.225 473.926 53.225ZM480.345 54.305C481.475 54.305 482.36 54.645 483 55.325C483.65 55.995 483.975 56.905 483.975 58.055C483.975 58.835 483.81 59.535 483.48 60.155C483.16 60.765 482.705 61.25 482.115 61.61C481.525 61.96 480.84 62.135 480.06 62.135C478.93 62.135 478.04 61.8 477.39 61.13C476.75 60.46 476.43 59.545 476.43 58.385C476.43 57.605 476.59 56.91 476.91 56.3C477.24 55.68 477.695 55.195 478.275 54.845C478.865 54.485 479.555 54.305 480.345 54.305ZM480.12 60.53C480.71 60.53 481.185 60.305 481.545 59.855C481.905 59.405 482.085 58.805 482.085 58.055C482.085 57.375 481.925 56.85 481.605 56.48C481.295 56.11 480.865 55.925 480.315 55.925C479.705 55.925 479.22 56.15 478.86 56.6C478.5 57.05 478.32 57.645 478.32 58.385C478.32 59.065 478.475 59.595 478.785 59.975C479.105 60.345 479.55 60.53 480.12 60.53ZM485.565 62V54.425H487.395L487.305 56.33C487.595 55.68 487.99 55.18 488.49 54.83C488.99 54.48 489.56 54.305 490.2 54.305C491.05 54.305 491.69 54.6 492.12 55.19C492.56 55.77 492.775 56.605 492.765 57.695L492.735 62H490.905L490.935 57.845C490.945 57.255 490.85 56.805 490.65 56.495C490.46 56.175 490.15 56.015 489.72 56.015C489.39 56.015 489.085 56.11 488.805 56.3C488.525 56.49 488.28 56.815 488.07 57.275C487.86 57.725 487.695 58.34 487.575 59.12C487.455 59.89 487.39 60.85 487.38 62H485.565ZM501.683 54.455V62H499.823L499.883 60.68C499.613 61.14 499.258 61.5 498.818 61.76C498.388 62.01 497.893 62.135 497.333 62.135C496.673 62.135 496.113 61.985 495.653 61.685C495.193 61.375 494.843 60.95 494.603 60.41C494.363 59.87 494.243 59.25 494.243 58.55C494.243 57.71 494.408 56.975 494.738 56.345C495.068 55.705 495.518 55.205 496.088 54.845C496.668 54.485 497.318 54.305 498.038 54.305C498.518 54.305 498.943 54.41 499.313 54.62C499.683 54.82 499.968 55.09 500.168 55.43L500.348 54.455H501.683ZM498.173 55.925C497.553 55.925 497.058 56.16 496.688 56.63C496.318 57.1 496.133 57.715 496.133 58.475C496.133 59.125 496.273 59.63 496.553 59.99C496.833 60.35 497.218 60.53 497.708 60.53C498.108 60.53 498.468 60.415 498.788 60.185C499.118 59.955 499.378 59.635 499.568 59.225C499.758 58.815 499.853 58.345 499.853 57.815C499.853 57.225 499.703 56.765 499.403 56.435C499.103 56.095 498.693 55.925 498.173 55.925ZM505.816 62.135C505.096 62.135 504.551 61.94 504.181 61.55C503.811 61.16 503.626 60.605 503.626 59.885V50.9H505.456V59.735C505.456 60.275 505.706 60.545 506.206 60.545C506.456 60.545 506.676 60.485 506.866 60.365L507.316 61.7C507.156 61.82 506.941 61.92 506.671 62C506.401 62.09 506.116 62.135 505.816 62.135ZM510.632 62.135C509.592 62.135 508.797 61.94 508.247 61.55C507.697 61.15 507.377 60.595 507.287 59.885L508.832 59.51C508.892 59.89 509.067 60.185 509.357 60.395C509.647 60.595 510.062 60.695 510.602 60.695C511.042 60.695 511.372 60.625 511.592 60.485C511.822 60.345 511.937 60.155 511.937 59.915C511.937 59.675 511.812 59.49 511.562 59.36C511.322 59.23 510.947 59.115 510.437 59.015C509.867 58.905 509.377 58.765 508.967 58.595C508.567 58.425 508.257 58.195 508.037 57.905C507.827 57.605 507.722 57.215 507.722 56.735C507.722 56.275 507.852 55.865 508.112 55.505C508.372 55.135 508.727 54.845 509.177 54.635C509.637 54.415 510.162 54.305 510.752 54.305C511.542 54.305 512.187 54.49 512.687 54.86C513.197 55.23 513.502 55.705 513.602 56.285L512.087 56.69C512.017 56.4 511.867 56.175 511.637 56.015C511.407 55.845 511.097 55.76 510.707 55.76C510.317 55.76 510.017 55.84 509.807 56C509.607 56.16 509.507 56.36 509.507 56.6C509.507 56.84 509.622 57.03 509.852 57.17C510.092 57.3 510.497 57.425 511.067 57.545C511.597 57.655 512.057 57.795 512.447 57.965C512.847 58.125 513.162 58.35 513.392 58.64C513.622 58.92 513.737 59.3 513.737 59.78C513.737 60.25 513.602 60.665 513.332 61.025C513.072 61.375 512.707 61.65 512.237 61.85C511.767 62.04 511.232 62.135 510.632 62.135ZM106.235 79.425H108.05L105.365 87H103.115L101.63 81.945L99.86 87H97.61L95.225 79.425H97.13L98.81 85.215L100.79 79.425H102.59L104.255 85.26L106.235 79.425ZM108.954 87V75.9H110.784L110.799 79.425L110.694 81.315C110.994 80.675 111.389 80.18 111.879 79.83C112.379 79.48 112.949 79.305 113.589 79.305C114.439 79.305 115.079 79.6 115.509 80.19C115.949 80.77 116.164 81.605 116.154 82.695L116.124 87H114.294L114.324 82.845C114.334 82.255 114.239 81.805 114.039 81.495C113.849 81.175 113.539 81.015 113.109 81.015C112.779 81.015 112.474 81.11 112.194 81.3C111.914 81.49 111.669 81.815 111.459 82.275C111.249 82.725 111.084 83.34 110.964 84.12C110.844 84.89 110.779 85.85 110.769 87H108.954ZM121.547 79.305C122.677 79.305 123.562 79.645 124.202 80.325C124.852 80.995 125.177 81.905 125.177 83.055C125.177 83.835 125.012 84.535 124.682 85.155C124.362 85.765 123.907 86.25 123.317 86.61C122.727 86.96 122.042 87.135 121.262 87.135C120.132 87.135 119.242 86.8 118.592 86.13C117.952 85.46 117.632 84.545 117.632 83.385C117.632 82.605 117.792 81.91 118.112 81.3C118.442 80.68 118.897 80.195 119.477 79.845C120.067 79.485 120.757 79.305 121.547 79.305ZM121.322 85.53C121.912 85.53 122.387 85.305 122.747 84.855C123.107 84.405 123.287 83.805 123.287 83.055C123.287 82.375 123.127 81.85 122.807 81.48C122.497 81.11 122.067 80.925 121.517 80.925C120.907 80.925 120.422 81.15 120.062 81.6C119.702 82.05 119.522 82.645 119.522 83.385C119.522 84.065 119.677 84.595 119.987 84.975C120.307 85.345 120.752 85.53 121.322 85.53ZM137.493 79.455V87H135.633L135.693 85.68C135.423 86.14 135.068 86.5 134.628 86.76C134.198 87.01 133.703 87.135 133.143 87.135C132.483 87.135 131.923 86.985 131.463 86.685C131.003 86.375 130.653 85.95 130.413 85.41C130.173 84.87 130.053 84.25 130.053 83.55C130.053 82.71 130.218 81.975 130.548 81.345C130.878 80.705 131.328 80.205 131.898 79.845C132.478 79.485 133.128 79.305 133.848 79.305C134.328 79.305 134.753 79.41 135.123 79.62C135.493 79.82 135.778 80.09 135.978 80.43L136.158 79.455H137.493ZM133.983 80.925C133.363 80.925 132.868 81.16 132.498 81.63C132.128 82.1 131.943 82.715 131.943 83.475C131.943 84.125 132.083 84.63 132.363 84.99C132.643 85.35 133.028 85.53 133.518 85.53C133.918 85.53 134.278 85.415 134.598 85.185C134.928 84.955 135.188 84.635 135.378 84.225C135.568 83.815 135.663 83.345 135.663 82.815C135.663 82.225 135.513 81.765 135.213 81.435C134.913 81.095 134.503 80.925 133.983 80.925ZM144.297 81.195C144.097 81.125 143.842 81.09 143.532 81.09C142.992 81.09 142.557 81.29 142.227 81.69C141.897 82.08 141.652 82.71 141.492 83.58C141.342 84.44 141.267 85.58 141.267 87H139.452V82.11L139.437 79.425H141.267L141.177 81.54C141.437 80.73 141.797 80.155 142.257 79.815C142.727 79.475 143.227 79.305 143.757 79.305C143.917 79.305 144.067 79.315 144.207 79.335C144.347 79.355 144.477 79.385 144.597 79.425L144.297 81.195ZM148.823 87.135C148.003 87.135 147.293 86.985 146.693 86.685C146.103 86.375 145.648 85.935 145.328 85.365C145.008 84.795 144.848 84.115 144.848 83.325C144.848 82.535 145.013 81.84 145.343 81.24C145.673 80.63 146.118 80.155 146.678 79.815C147.248 79.475 147.893 79.305 148.613 79.305C149.783 79.305 150.643 79.705 151.193 80.505C151.753 81.295 151.948 82.39 151.778 83.79H146.708C146.748 84.32 146.963 84.745 147.353 85.065C147.743 85.385 148.278 85.545 148.958 85.545C149.278 85.545 149.598 85.475 149.918 85.335C150.248 85.195 150.528 84.98 150.758 84.69L151.823 85.77C151.483 86.2 151.068 86.535 150.578 86.775C150.098 87.015 149.513 87.135 148.823 87.135ZM148.643 80.685C148.133 80.685 147.713 80.845 147.383 81.165C147.053 81.485 146.843 81.915 146.753 82.455H150.203C150.223 81.835 150.088 81.385 149.798 81.105C149.508 80.825 149.123 80.685 148.643 80.685ZM157 90V79.425H158.845L158.785 80.775C159.055 80.305 159.405 79.945 159.835 79.695C160.265 79.435 160.765 79.305 161.335 79.305C162.005 79.305 162.57 79.46 163.03 79.77C163.49 80.08 163.84 80.505 164.08 81.045C164.32 81.585 164.44 82.2 164.44 82.89C164.44 83.73 164.275 84.47 163.945 85.11C163.615 85.75 163.16 86.25 162.58 86.61C162.01 86.96 161.36 87.135 160.63 87.135C160.25 87.135 159.905 87.07 159.595 86.94C159.285 86.81 159.025 86.635 158.815 86.415L158.83 87V90H157ZM160.495 85.53C161.125 85.53 161.625 85.29 161.995 84.81C162.365 84.33 162.55 83.71 162.55 82.95C162.55 82.31 162.41 81.815 162.13 81.465C161.85 81.105 161.465 80.925 160.975 80.925C160.565 80.925 160.2 81.04 159.88 81.27C159.56 81.49 159.305 81.805 159.115 82.215C158.925 82.615 158.83 83.08 158.83 83.61C158.83 84.2 158.98 84.67 159.28 85.02C159.58 85.36 159.985 85.53 160.495 85.53ZM173.104 79.455V87H171.244L171.304 85.68C171.034 86.14 170.679 86.5 170.239 86.76C169.809 87.01 169.314 87.135 168.754 87.135C168.094 87.135 167.534 86.985 167.074 86.685C166.614 86.375 166.264 85.95 166.024 85.41C165.784 84.87 165.664 84.25 165.664 83.55C165.664 82.71 165.829 81.975 166.159 81.345C166.489 80.705 166.939 80.205 167.509 79.845C168.089 79.485 168.739 79.305 169.459 79.305C169.939 79.305 170.364 79.41 170.734 79.62C171.104 79.82 171.389 80.09 171.589 80.43L171.769 79.455H173.104ZM169.594 80.925C168.974 80.925 168.479 81.16 168.109 81.63C167.739 82.1 167.554 82.715 167.554 83.475C167.554 84.125 167.694 84.63 167.974 84.99C168.254 85.35 168.639 85.53 169.129 85.53C169.529 85.53 169.889 85.415 170.209 85.185C170.539 84.955 170.799 84.635 170.989 84.225C171.179 83.815 171.274 83.345 171.274 82.815C171.274 82.225 171.124 81.765 170.824 81.435C170.524 81.095 170.114 80.925 169.594 80.925ZM177.702 87.135C176.662 87.135 175.867 86.94 175.317 86.55C174.767 86.15 174.447 85.595 174.357 84.885L175.902 84.51C175.962 84.89 176.137 85.185 176.427 85.395C176.717 85.595 177.132 85.695 177.672 85.695C178.112 85.695 178.442 85.625 178.662 85.485C178.892 85.345 179.007 85.155 179.007 84.915C179.007 84.675 178.882 84.49 178.632 84.36C178.392 84.23 178.017 84.115 177.507 84.015C176.937 83.905 176.447 83.765 176.037 83.595C175.637 83.425 175.327 83.195 175.107 82.905C174.897 82.605 174.792 82.215 174.792 81.735C174.792 81.275 174.922 80.865 175.182 80.505C175.442 80.135 175.797 79.845 176.247 79.635C176.707 79.415 177.232 79.305 177.822 79.305C178.612 79.305 179.257 79.49 179.757 79.86C180.267 80.23 180.572 80.705 180.672 81.285L179.157 81.69C179.087 81.4 178.937 81.175 178.707 81.015C178.477 80.845 178.167 80.76 177.777 80.76C177.387 80.76 177.087 80.84 176.877 81C176.677 81.16 176.577 81.36 176.577 81.6C176.577 81.84 176.692 82.03 176.922 82.17C177.162 82.3 177.567 82.425 178.137 82.545C178.667 82.655 179.127 82.795 179.517 82.965C179.917 83.125 180.232 83.35 180.462 83.64C180.692 83.92 180.807 84.3 180.807 84.78C180.807 85.25 180.672 85.665 180.402 86.025C180.142 86.375 179.777 86.65 179.307 86.85C178.837 87.04 178.302 87.135 177.702 87.135ZM184.777 87.135C183.737 87.135 182.942 86.94 182.392 86.55C181.842 86.15 181.522 85.595 181.432 84.885L182.977 84.51C183.037 84.89 183.212 85.185 183.502 85.395C183.792 85.595 184.207 85.695 184.747 85.695C185.187 85.695 185.517 85.625 185.737 85.485C185.967 85.345 186.082 85.155 186.082 84.915C186.082 84.675 185.957 84.49 185.707 84.36C185.467 84.23 185.092 84.115 184.582 84.015C184.012 83.905 183.522 83.765 183.112 83.595C182.712 83.425 182.402 83.195 182.182 82.905C181.972 82.605 181.867 82.215 181.867 81.735C181.867 81.275 181.997 80.865 182.257 80.505C182.517 80.135 182.872 79.845 183.322 79.635C183.782 79.415 184.307 79.305 184.897 79.305C185.687 79.305 186.332 79.49 186.832 79.86C187.342 80.23 187.647 80.705 187.747 81.285L186.232 81.69C186.162 81.4 186.012 81.175 185.782 81.015C185.552 80.845 185.242 80.76 184.852 80.76C184.462 80.76 184.162 80.84 183.952 81C183.752 81.16 183.652 81.36 183.652 81.6C183.652 81.84 183.767 82.03 183.997 82.17C184.237 82.3 184.642 82.425 185.212 82.545C185.742 82.655 186.202 82.795 186.592 82.965C186.992 83.125 187.307 83.35 187.537 83.64C187.767 83.92 187.882 84.3 187.882 84.78C187.882 85.25 187.747 85.665 187.477 86.025C187.217 86.375 186.852 86.65 186.382 86.85C185.912 87.04 185.377 87.135 184.777 87.135ZM191.028 79.425V87H189.198V79.425H191.028ZM190.113 78.225C189.753 78.225 189.468 78.115 189.258 77.895C189.048 77.675 188.943 77.41 188.943 77.1C188.943 76.79 189.048 76.525 189.258 76.305C189.468 76.085 189.753 75.975 190.113 75.975C190.473 75.975 190.758 76.085 190.968 76.305C191.178 76.525 191.283 76.79 191.283 77.1C191.283 77.41 191.178 77.675 190.968 77.895C190.758 78.115 190.473 78.225 190.113 78.225ZM196.532 79.305C197.662 79.305 198.547 79.645 199.187 80.325C199.837 80.995 200.162 81.905 200.162 83.055C200.162 83.835 199.997 84.535 199.667 85.155C199.347 85.765 198.892 86.25 198.302 86.61C197.712 86.96 197.027 87.135 196.247 87.135C195.117 87.135 194.227 86.8 193.577 86.13C192.937 85.46 192.617 84.545 192.617 83.385C192.617 82.605 192.777 81.91 193.097 81.3C193.427 80.68 193.882 80.195 194.462 79.845C195.052 79.485 195.742 79.305 196.532 79.305ZM196.307 85.53C196.897 85.53 197.372 85.305 197.732 84.855C198.092 84.405 198.272 83.805 198.272 83.055C198.272 82.375 198.112 81.85 197.792 81.48C197.482 81.11 197.052 80.925 196.502 80.925C195.892 80.925 195.407 81.15 195.047 81.6C194.687 82.05 194.507 82.645 194.507 83.385C194.507 84.065 194.662 84.595 194.972 84.975C195.292 85.345 195.737 85.53 196.307 85.53ZM201.751 87V79.425H203.581L203.491 81.33C203.781 80.68 204.176 80.18 204.676 79.83C205.176 79.48 205.746 79.305 206.386 79.305C207.236 79.305 207.876 79.6 208.306 80.19C208.746 80.77 208.961 81.605 208.951 82.695L208.921 87H207.091L207.121 82.845C207.131 82.255 207.036 81.805 206.836 81.495C206.646 81.175 206.336 81.015 205.906 81.015C205.576 81.015 205.271 81.11 204.991 81.3C204.711 81.49 204.466 81.815 204.256 82.275C204.046 82.725 203.881 83.34 203.761 84.12C203.641 84.89 203.576 85.85 203.566 87H201.751ZM217.869 79.455V87H216.009L216.069 85.68C215.799 86.14 215.444 86.5 215.004 86.76C214.574 87.01 214.079 87.135 213.519 87.135C212.859 87.135 212.299 86.985 211.839 86.685C211.379 86.375 211.029 85.95 210.789 85.41C210.549 84.87 210.429 84.25 210.429 83.55C210.429 82.71 210.594 81.975 210.924 81.345C211.254 80.705 211.704 80.205 212.274 79.845C212.854 79.485 213.504 79.305 214.224 79.305C214.704 79.305 215.129 79.41 215.499 79.62C215.869 79.82 216.154 80.09 216.354 80.43L216.534 79.455H217.869ZM214.359 80.925C213.739 80.925 213.244 81.16 212.874 81.63C212.504 82.1 212.319 82.715 212.319 83.475C212.319 84.125 212.459 84.63 212.739 84.99C213.019 85.35 213.404 85.53 213.894 85.53C214.294 85.53 214.654 85.415 214.974 85.185C215.304 84.955 215.564 84.635 215.754 84.225C215.944 83.815 216.039 83.345 216.039 82.815C216.039 82.225 215.889 81.765 215.589 81.435C215.289 81.095 214.879 80.925 214.359 80.925ZM223.023 87.135C222.113 87.135 221.403 86.885 220.893 86.385C220.393 85.885 220.148 85.23 220.158 84.42L220.218 80.955H218.928V79.425H220.248L220.263 77.865H222.093L222.063 79.425H224.538V80.955H222.048L222.003 84.225C221.993 84.635 222.093 84.96 222.303 85.2C222.523 85.43 222.848 85.545 223.278 85.545C223.508 85.545 223.723 85.515 223.923 85.455C224.123 85.395 224.333 85.285 224.553 85.125L225.093 86.535C224.863 86.735 224.568 86.885 224.208 86.985C223.848 87.085 223.453 87.135 223.023 87.135ZM229.361 87.135C228.541 87.135 227.831 86.985 227.231 86.685C226.641 86.375 226.186 85.935 225.866 85.365C225.546 84.795 225.386 84.115 225.386 83.325C225.386 82.535 225.551 81.84 225.881 81.24C226.211 80.63 226.656 80.155 227.216 79.815C227.786 79.475 228.431 79.305 229.151 79.305C230.321 79.305 231.181 79.705 231.731 80.505C232.291 81.295 232.486 82.39 232.316 83.79H227.246C227.286 84.32 227.501 84.745 227.891 85.065C228.281 85.385 228.816 85.545 229.496 85.545C229.816 85.545 230.136 85.475 230.456 85.335C230.786 85.195 231.066 84.98 231.296 84.69L232.361 85.77C232.021 86.2 231.606 86.535 231.116 86.775C230.636 87.015 230.051 87.135 229.361 87.135ZM229.181 80.685C228.671 80.685 228.251 80.845 227.921 81.165C227.591 81.485 227.381 81.915 227.291 82.455H230.741C230.761 81.835 230.626 81.385 230.336 81.105C230.046 80.825 229.661 80.685 229.181 80.685ZM244.618 79.455V87H242.758L242.818 85.68C242.548 86.14 242.193 86.5 241.753 86.76C241.323 87.01 240.828 87.135 240.268 87.135C239.608 87.135 239.048 86.985 238.588 86.685C238.128 86.375 237.778 85.95 237.538 85.41C237.298 84.87 237.178 84.25 237.178 83.55C237.178 82.71 237.343 81.975 237.673 81.345C238.003 80.705 238.453 80.205 239.023 79.845C239.603 79.485 240.253 79.305 240.972 79.305C241.453 79.305 241.878 79.41 242.248 79.62C242.618 79.82 242.903 80.09 243.103 80.43L243.283 79.455H244.618ZM241.108 80.925C240.488 80.925 239.993 81.16 239.623 81.63C239.253 82.1 239.068 82.715 239.068 83.475C239.068 84.125 239.208 84.63 239.488 84.99C239.768 85.35 240.153 85.53 240.643 85.53C241.043 85.53 241.403 85.415 241.723 85.185C242.053 84.955 242.313 84.635 242.503 84.225C242.693 83.815 242.788 83.345 242.788 82.815C242.788 82.225 242.638 81.765 242.338 81.435C242.038 81.095 241.628 80.925 241.108 80.925ZM246.561 87V75.9H248.391V79.425L248.331 80.805C248.601 80.325 248.951 79.955 249.381 79.695C249.821 79.435 250.326 79.305 250.896 79.305C251.566 79.305 252.131 79.46 252.591 79.77C253.051 80.08 253.401 80.505 253.641 81.045C253.881 81.585 254.001 82.2 254.001 82.89C254.001 83.73 253.836 84.47 253.506 85.11C253.176 85.75 252.721 86.25 252.141 86.61C251.571 86.96 250.926 87.135 250.206 87.135C249.716 87.135 249.286 87.035 248.916 86.835C248.546 86.625 248.266 86.35 248.076 86.01L247.896 87H246.561ZM250.056 85.53C250.686 85.53 251.186 85.29 251.556 84.81C251.926 84.33 252.111 83.71 252.111 82.95C252.111 82.31 251.971 81.815 251.691 81.465C251.411 81.105 251.026 80.925 250.536 80.925C250.126 80.925 249.761 81.04 249.441 81.27C249.121 81.49 248.866 81.805 248.676 82.215C248.486 82.615 248.391 83.08 248.391 83.61C248.391 84.2 248.541 84.67 248.841 85.02C249.141 85.36 249.546 85.53 250.056 85.53ZM259.139 79.305C260.269 79.305 261.154 79.645 261.794 80.325C262.444 80.995 262.769 81.905 262.769 83.055C262.769 83.835 262.604 84.535 262.274 85.155C261.954 85.765 261.499 86.25 260.909 86.61C260.319 86.96 259.634 87.135 258.854 87.135C257.724 87.135 256.834 86.8 256.184 86.13C255.544 85.46 255.224 84.545 255.224 83.385C255.224 82.605 255.384 81.91 255.704 81.3C256.034 80.68 256.489 80.195 257.069 79.845C257.659 79.485 258.349 79.305 259.139 79.305ZM258.914 85.53C259.504 85.53 259.979 85.305 260.339 84.855C260.699 84.405 260.879 83.805 260.879 83.055C260.879 82.375 260.719 81.85 260.399 81.48C260.089 81.11 259.659 80.925 259.109 80.925C258.499 80.925 258.014 81.15 257.654 81.6C257.294 82.05 257.114 82.645 257.114 83.385C257.114 84.065 257.269 84.595 257.579 84.975C257.899 85.345 258.344 85.53 258.914 85.53ZM266.774 87.135C265.934 87.135 265.299 86.85 264.869 86.28C264.449 85.71 264.244 84.92 264.254 83.91L264.284 79.425H266.114L266.084 83.745C266.074 84.265 266.164 84.675 266.354 84.975C266.544 85.275 266.844 85.425 267.254 85.425C267.574 85.425 267.869 85.33 268.139 85.14C268.419 84.95 268.659 84.63 268.859 84.18C269.059 83.72 269.214 83.105 269.324 82.335C269.444 81.555 269.504 80.585 269.504 79.425H271.274V87H269.429L269.534 85.275C269.234 85.885 268.844 86.35 268.364 86.67C267.894 86.98 267.364 87.135 266.774 87.135ZM276.431 87.135C275.521 87.135 274.811 86.885 274.301 86.385C273.801 85.885 273.556 85.23 273.566 84.42L273.626 80.955H272.336V79.425H273.656L273.671 77.865H275.501L275.471 79.425H277.946V80.955H275.456L275.411 84.225C275.401 84.635 275.501 84.96 275.711 85.2C275.931 85.43 276.256 85.545 276.686 85.545C276.916 85.545 277.131 85.515 277.331 85.455C277.531 85.395 277.741 85.285 277.961 85.125L278.501 86.535C278.271 86.735 277.976 86.885 277.616 86.985C277.256 87.085 276.861 87.135 276.431 87.135ZM293.208 79.425H295.023L292.338 87H290.088L288.603 81.945L286.833 87H284.583L282.198 79.425H284.103L285.783 85.215L287.763 79.425H289.563L291.228 85.26L293.208 79.425ZM295.926 87V75.9H297.756L297.771 79.425L297.666 81.315C297.966 80.675 298.361 80.18 298.851 79.83C299.351 79.48 299.921 79.305 300.561 79.305C301.411 79.305 302.051 79.6 302.481 80.19C302.921 80.77 303.136 81.605 303.126 82.695L303.096 87H301.266L301.296 82.845C301.306 82.255 301.211 81.805 301.011 81.495C300.821 81.175 300.511 81.015 300.081 81.015C299.751 81.015 299.446 81.11 299.166 81.3C298.886 81.49 298.641 81.815 298.431 82.275C298.221 82.725 298.056 83.34 297.936 84.12C297.816 84.89 297.751 85.85 297.741 87H295.926ZM312.044 79.455V87H310.184L310.244 85.68C309.974 86.14 309.619 86.5 309.179 86.76C308.749 87.01 308.254 87.135 307.694 87.135C307.034 87.135 306.474 86.985 306.014 86.685C305.554 86.375 305.204 85.95 304.964 85.41C304.724 84.87 304.604 84.25 304.604 83.55C304.604 82.71 304.769 81.975 305.099 81.345C305.429 80.705 305.879 80.205 306.449 79.845C307.029 79.485 307.679 79.305 308.399 79.305C308.879 79.305 309.304 79.41 309.674 79.62C310.044 79.82 310.329 80.09 310.529 80.43L310.709 79.455H312.044ZM308.534 80.925C307.914 80.925 307.419 81.16 307.049 81.63C306.679 82.1 306.494 82.715 306.494 83.475C306.494 84.125 306.634 84.63 306.914 84.99C307.194 85.35 307.579 85.53 308.069 85.53C308.469 85.53 308.829 85.415 309.149 85.185C309.479 84.955 309.739 84.635 309.929 84.225C310.119 83.815 310.214 83.345 310.214 82.815C310.214 82.225 310.064 81.765 309.764 81.435C309.464 81.095 309.054 80.925 308.534 80.925ZM317.198 87.135C316.288 87.135 315.578 86.885 315.068 86.385C314.568 85.885 314.323 85.23 314.333 84.42L314.393 80.955H313.103V79.425H314.423L314.438 77.865H316.268L316.238 79.425H318.713V80.955H316.223L316.178 84.225C316.168 84.635 316.268 84.96 316.478 85.2C316.698 85.43 317.023 85.545 317.453 85.545C317.683 85.545 317.898 85.515 318.098 85.455C318.298 85.395 318.508 85.285 318.728 85.125L319.268 86.535C319.038 86.735 318.743 86.885 318.383 86.985C318.023 87.085 317.628 87.135 317.198 87.135ZM326.924 87.135C326.014 87.135 325.304 86.885 324.794 86.385C324.294 85.885 324.049 85.23 324.059 84.42L324.119 80.955H322.829V79.425H324.149L324.164 77.865H325.994L325.964 79.425H328.439V80.955H325.949L325.904 84.225C325.894 84.635 325.994 84.96 326.204 85.2C326.424 85.43 326.749 85.545 327.179 85.545C327.409 85.545 327.624 85.515 327.824 85.455C328.024 85.395 328.234 85.285 328.454 85.125L328.994 86.535C328.764 86.735 328.469 86.885 328.109 86.985C327.749 87.085 327.354 87.135 326.924 87.135ZM329.793 87V75.9H331.623L331.638 79.425L331.533 81.315C331.833 80.675 332.228 80.18 332.718 79.83C333.218 79.48 333.788 79.305 334.428 79.305C335.278 79.305 335.918 79.6 336.348 80.19C336.788 80.77 337.003 81.605 336.993 82.695L336.963 87H335.133L335.163 82.845C335.173 82.255 335.078 81.805 334.878 81.495C334.688 81.175 334.378 81.015 333.948 81.015C333.618 81.015 333.313 81.11 333.033 81.3C332.753 81.49 332.508 81.815 332.298 82.275C332.088 82.725 331.923 83.34 331.803 84.12C331.683 84.89 331.618 85.85 331.608 87H329.793ZM342.446 87.135C341.626 87.135 340.916 86.985 340.316 86.685C339.726 86.375 339.271 85.935 338.951 85.365C338.631 84.795 338.471 84.115 338.471 83.325C338.471 82.535 338.636 81.84 338.966 81.24C339.296 80.63 339.741 80.155 340.301 79.815C340.871 79.475 341.516 79.305 342.236 79.305C343.406 79.305 344.266 79.705 344.816 80.505C345.376 81.295 345.571 82.39 345.401 83.79H340.331C340.371 84.32 340.586 84.745 340.976 85.065C341.366 85.385 341.901 85.545 342.581 85.545C342.901 85.545 343.221 85.475 343.541 85.335C343.871 85.195 344.151 84.98 344.381 84.69L345.446 85.77C345.106 86.2 344.691 86.535 344.201 86.775C343.721 87.015 343.136 87.135 342.446 87.135ZM342.266 80.685C341.756 80.685 341.336 80.845 341.006 81.165C340.676 81.485 340.466 81.915 340.376 82.455H343.826C343.846 81.835 343.711 81.385 343.421 81.105C343.131 80.825 342.746 80.685 342.266 80.685ZM349.631 90.15C349.181 90.15 348.701 90.105 348.191 90.015C347.691 89.925 347.276 89.775 346.946 89.565L347.396 87.975C347.736 88.145 348.096 88.28 348.476 88.38C348.856 88.48 349.271 88.53 349.721 88.53C350.601 88.53 351.226 88.32 351.596 87.9C351.966 87.49 352.171 86.83 352.211 85.92L352.271 84.93C351.971 85.57 351.571 86.06 351.071 86.4C350.581 86.73 350.031 86.895 349.421 86.895C348.571 86.895 347.931 86.61 347.501 86.04C347.071 85.47 346.861 84.68 346.871 83.67L346.901 79.425H348.731L348.701 83.52C348.701 84.04 348.791 84.45 348.971 84.75C349.161 85.04 349.466 85.185 349.886 85.185C350.346 85.185 350.746 85.01 351.086 84.66C351.426 84.3 351.691 83.705 351.881 82.875C352.081 82.035 352.186 80.885 352.196 79.425H353.966V85.695C353.966 87.215 353.586 88.335 352.826 89.055C352.066 89.785 351.001 90.15 349.631 90.15ZM366.639 75.9V87H364.779L364.839 85.68C364.569 86.15 364.219 86.51 363.789 86.76C363.359 87.01 362.859 87.135 362.289 87.135C361.629 87.135 361.069 86.985 360.609 86.685C360.149 86.375 359.799 85.95 359.559 85.41C359.319 84.87 359.199 84.25 359.199 83.55C359.199 82.71 359.364 81.975 359.694 81.345C360.024 80.705 360.474 80.205 361.044 79.845C361.624 79.485 362.274 79.305 362.994 79.305C363.374 79.305 363.719 79.37 364.029 79.5C364.349 79.63 364.614 79.81 364.824 80.04L364.809 79.425V75.9H366.639ZM363.129 80.925C362.509 80.925 362.014 81.16 361.644 81.63C361.274 82.1 361.089 82.715 361.089 83.475C361.089 84.125 361.229 84.63 361.509 84.99C361.789 85.35 362.174 85.53 362.664 85.53C363.064 85.53 363.424 85.415 363.744 85.185C364.074 84.955 364.334 84.635 364.524 84.225C364.714 83.815 364.809 83.345 364.809 82.815C364.809 82.225 364.659 81.765 364.359 81.435C364.059 81.095 363.649 80.925 363.129 80.925ZM372.137 79.305C373.267 79.305 374.152 79.645 374.792 80.325C375.442 80.995 375.767 81.905 375.767 83.055C375.767 83.835 375.602 84.535 375.272 85.155C374.952 85.765 374.497 86.25 373.907 86.61C373.317 86.96 372.632 87.135 371.852 87.135C370.722 87.135 369.832 86.8 369.182 86.13C368.542 85.46 368.222 84.545 368.222 83.385C368.222 82.605 368.382 81.91 368.702 81.3C369.032 80.68 369.487 80.195 370.067 79.845C370.657 79.485 371.347 79.305 372.137 79.305ZM371.912 85.53C372.502 85.53 372.977 85.305 373.337 84.855C373.697 84.405 373.877 83.805 373.877 83.055C373.877 82.375 373.717 81.85 373.397 81.48C373.087 81.11 372.657 80.925 372.107 80.925C371.497 80.925 371.012 81.15 370.652 81.6C370.292 82.05 370.112 82.645 370.112 83.385C370.112 84.065 370.267 84.595 370.577 84.975C370.897 85.345 371.342 85.53 371.912 85.53ZM377.757 87.135C377.367 87.135 377.057 87.015 376.827 86.775C376.597 86.535 376.482 86.24 376.482 85.89C376.482 85.54 376.597 85.245 376.827 85.005C377.057 84.765 377.367 84.645 377.757 84.645C378.147 84.645 378.457 84.765 378.687 85.005C378.917 85.245 379.032 85.54 379.032 85.89C379.032 86.24 378.917 86.535 378.687 86.775C378.457 87.015 378.147 87.135 377.757 87.135Z" fill="white"/>
<path d="M104.954 10.758H99.086V13.296H104.576V15.834H99.086V18.462H105.134L104.954 21H96.206V8.22H104.954V10.758ZM108.074 21H104.87L108.254 16.302L105.05 11.838H108.398L109.946 14.034L111.53 11.838H114.716L111.494 16.194L114.86 21H111.512L109.82 18.462L108.074 21ZM115.591 24.6V11.838H118.363L118.273 13.242C118.933 12.21 119.911 11.694 121.207 11.694C122.023 11.694 122.719 11.88 123.295 12.252C123.871 12.624 124.309 13.14 124.609 13.8C124.909 14.46 125.059 15.216 125.059 16.068C125.059 17.088 124.849 17.982 124.429 18.75C124.009 19.518 123.445 20.118 122.737 20.55C122.029 20.97 121.237 21.18 120.361 21.18C119.941 21.18 119.557 21.12 119.209 21C118.873 20.88 118.573 20.712 118.309 20.496L118.345 21V24.6H115.591ZM120.073 18.786C120.733 18.786 121.255 18.54 121.639 18.048C122.023 17.544 122.215 16.908 122.215 16.14C122.215 15.492 122.065 14.988 121.765 14.628C121.477 14.268 121.081 14.088 120.577 14.088C119.965 14.088 119.437 14.34 118.993 14.844C118.561 15.348 118.345 16.008 118.345 16.824C118.345 17.424 118.501 17.904 118.813 18.264C119.125 18.612 119.545 18.786 120.073 18.786ZM131.236 21.18C130.216 21.18 129.334 20.994 128.59 20.622C127.846 20.238 127.27 19.704 126.862 19.02C126.454 18.324 126.25 17.502 126.25 16.554C126.25 15.594 126.454 14.748 126.862 14.016C127.282 13.284 127.84 12.714 128.536 12.306C129.244 11.898 130.042 11.694 130.93 11.694C131.938 11.694 132.76 11.922 133.396 12.378C134.032 12.834 134.47 13.482 134.71 14.322C134.962 15.15 135.016 16.116 134.872 17.22H129.058C129.13 17.676 129.37 18.06 129.778 18.372C130.186 18.672 130.744 18.822 131.452 18.822C131.776 18.822 132.118 18.756 132.478 18.624C132.838 18.48 133.144 18.27 133.396 17.994L134.926 19.614C134.53 20.094 134.038 20.478 133.45 20.766C132.874 21.042 132.136 21.18 131.236 21.18ZM130.984 13.692C130.504 13.692 130.096 13.836 129.76 14.124C129.436 14.412 129.22 14.814 129.112 15.33H132.55C132.562 14.766 132.424 14.352 132.136 14.088C131.86 13.824 131.476 13.692 130.984 13.692ZM142.844 14.502C142.604 14.406 142.28 14.358 141.872 14.358C141.248 14.358 140.75 14.58 140.378 15.024C140.006 15.456 139.736 16.164 139.568 17.148C139.4 18.12 139.316 19.404 139.316 21H136.58V15.06L136.544 11.838H139.298L139.172 14.124C139.496 13.248 139.928 12.624 140.468 12.252C141.02 11.88 141.608 11.694 142.232 11.694C142.436 11.694 142.622 11.706 142.79 11.73C142.97 11.754 143.15 11.796 143.33 11.856L142.844 14.502ZM146.998 11.838V21H144.244V11.838H146.998ZM145.612 10.758C145.084 10.758 144.664 10.596 144.352 10.272C144.04 9.948 143.884 9.564 143.884 9.12C143.884 8.676 144.034 8.292 144.334 7.968C144.646 7.644 145.072 7.482 145.612 7.482C146.14 7.482 146.56 7.644 146.872 7.968C147.184 8.292 147.34 8.676 147.34 9.12C147.34 9.564 147.184 9.948 146.872 10.272C146.56 10.596 146.14 10.758 145.612 10.758ZM153.613 21.18C152.593 21.18 151.711 20.994 150.967 20.622C150.223 20.238 149.647 19.704 149.239 19.02C148.831 18.324 148.627 17.502 148.627 16.554C148.627 15.594 148.831 14.748 149.239 14.016C149.659 13.284 150.217 12.714 150.913 12.306C151.621 11.898 152.419 11.694 153.307 11.694C154.315 11.694 155.137 11.922 155.773 12.378C156.409 12.834 156.847 13.482 157.087 14.322C157.339 15.15 157.393 16.116 157.249 17.22H151.435C151.507 17.676 151.747 18.06 152.155 18.372C152.563 18.672 153.121 18.822 153.829 18.822C154.153 18.822 154.495 18.756 154.855 18.624C155.215 18.48 155.521 18.27 155.773 17.994L157.303 19.614C156.907 20.094 156.415 20.478 155.827 20.766C155.251 21.042 154.513 21.18 153.613 21.18ZM153.361 13.692C152.881 13.692 152.473 13.836 152.137 14.124C151.813 14.412 151.597 14.814 151.489 15.33H154.927C154.939 14.766 154.801 14.352 154.513 14.088C154.237 13.824 153.853 13.692 153.361 13.692ZM158.939 21V11.838H161.675L161.549 13.8C161.921 13.128 162.395 12.612 162.971 12.252C163.559 11.88 164.213 11.694 164.933 11.694C166.025 11.694 166.841 12.066 167.381 12.81C167.921 13.542 168.185 14.598 168.173 15.978L168.137 21H165.383L165.419 16.176C165.431 15.552 165.335 15.078 165.131 14.754C164.939 14.418 164.627 14.25 164.195 14.25C163.835 14.25 163.505 14.358 163.205 14.574C162.905 14.778 162.641 15.132 162.413 15.636C162.197 16.14 162.023 16.83 161.891 17.706C161.759 18.582 161.687 19.68 161.675 21H158.939ZM174.348 21.18C173.4 21.18 172.578 21 171.882 20.64C171.186 20.268 170.646 19.74 170.262 19.056C169.878 18.372 169.686 17.556 169.686 16.608C169.686 15.636 169.89 14.784 170.298 14.052C170.718 13.308 171.294 12.732 172.026 12.324C172.758 11.904 173.61 11.694 174.582 11.694C175.374 11.694 176.076 11.85 176.688 12.162C177.3 12.474 177.792 12.96 178.164 13.62L176.22 15.096C176.028 14.748 175.8 14.496 175.536 14.34C175.284 14.184 174.966 14.106 174.582 14.106C173.994 14.106 173.508 14.334 173.124 14.79C172.74 15.234 172.548 15.822 172.548 16.554C172.548 17.262 172.716 17.808 173.052 18.192C173.4 18.576 173.898 18.768 174.546 18.768C174.894 18.768 175.212 18.69 175.5 18.534C175.8 18.366 176.052 18.108 176.256 17.76L178.146 19.272C177.738 19.968 177.198 20.46 176.526 20.748C175.866 21.036 175.14 21.18 174.348 21.18ZM183.268 21.18C182.248 21.18 181.366 20.994 180.622 20.622C179.878 20.238 179.302 19.704 178.894 19.02C178.486 18.324 178.281 17.502 178.281 16.554C178.281 15.594 178.486 14.748 178.894 14.016C179.314 13.284 179.872 12.714 180.568 12.306C181.276 11.898 182.074 11.694 182.962 11.694C183.97 11.694 184.792 11.922 185.428 12.378C186.064 12.834 186.502 13.482 186.742 14.322C186.994 15.15 187.048 16.116 186.904 17.22H181.09C181.162 17.676 181.402 18.06 181.81 18.372C182.218 18.672 182.776 18.822 183.484 18.822C183.808 18.822 184.15 18.756 184.51 18.624C184.87 18.48 185.176 18.27 185.428 17.994L186.958 19.614C186.562 20.094 186.07 20.478 185.482 20.766C184.906 21.042 184.168 21.18 183.268 21.18ZM183.016 13.692C182.536 13.692 182.128 13.836 181.792 14.124C181.468 14.412 181.252 14.814 181.144 15.33H184.582C184.594 14.766 184.456 14.352 184.168 14.088C183.892 13.824 183.508 13.692 183.016 13.692ZM197.593 7.68V21H194.821L194.911 19.65C194.251 20.67 193.273 21.18 191.977 21.18C191.161 21.18 190.465 20.994 189.889 20.622C189.313 20.25 188.875 19.734 188.575 19.074C188.275 18.414 188.125 17.658 188.125 16.806C188.125 15.786 188.335 14.892 188.755 14.124C189.175 13.356 189.739 12.762 190.447 12.342C191.155 11.91 191.947 11.694 192.823 11.694C193.231 11.694 193.609 11.754 193.957 11.874C194.305 11.994 194.605 12.162 194.857 12.378L194.839 11.838V7.68H197.593ZM193.093 14.088C192.433 14.088 191.911 14.334 191.527 14.826C191.155 15.318 190.969 15.948 190.969 16.716C190.969 17.376 191.113 17.886 191.401 18.246C191.701 18.606 192.103 18.786 192.607 18.786C193.219 18.786 193.741 18.534 194.173 18.03C194.617 17.526 194.839 16.866 194.839 16.05C194.839 15.438 194.683 14.958 194.371 14.61C194.059 14.262 193.633 14.088 193.093 14.088ZM204.399 21V8.22H207.333V21H204.399ZM209.599 21V11.838H212.335L212.209 13.8C212.581 13.128 213.055 12.612 213.631 12.252C214.219 11.88 214.873 11.694 215.593 11.694C216.685 11.694 217.501 12.066 218.041 12.81C218.581 13.542 218.845 14.598 218.833 15.978L218.797 21H216.043L216.079 16.176C216.091 15.552 215.995 15.078 215.791 14.754C215.599 14.418 215.287 14.25 214.855 14.25C214.495 14.25 214.165 14.358 213.865 14.574C213.565 14.778 213.301 15.132 213.073 15.636C212.857 16.14 212.683 16.83 212.551 17.706C212.419 18.582 212.347 19.68 212.335 21H209.599ZM229.814 7.68V21H227.042L227.132 19.65C226.472 20.67 225.494 21.18 224.198 21.18C223.382 21.18 222.686 20.994 222.11 20.622C221.534 20.25 221.096 19.734 220.796 19.074C220.496 18.414 220.346 17.658 220.346 16.806C220.346 15.786 220.556 14.892 220.976 14.124C221.396 13.356 221.96 12.762 222.668 12.342C223.376 11.91 224.168 11.694 225.044 11.694C225.452 11.694 225.83 11.754 226.178 11.874C226.526 11.994 226.826 12.162 227.078 12.378L227.06 11.838V7.68H229.814ZM225.314 14.088C224.654 14.088 224.132 14.334 223.748 14.826C223.376 15.318 223.19 15.948 223.19 16.716C223.19 17.376 223.334 17.886 223.622 18.246C223.922 18.606 224.324 18.786 224.828 18.786C225.44 18.786 225.962 18.534 226.394 18.03C226.838 17.526 227.06 16.866 227.06 16.05C227.06 15.438 226.904 14.958 226.592 14.61C226.28 14.262 225.854 14.088 225.314 14.088ZM234.695 11.838V21H231.941V11.838H234.695ZM233.309 10.758C232.781 10.758 232.361 10.596 232.049 10.272C231.737 9.948 231.581 9.564 231.581 9.12C231.581 8.676 231.731 8.292 232.031 7.968C232.343 7.644 232.769 7.482 233.309 7.482C233.837 7.482 234.257 7.644 234.569 7.968C234.881 8.292 235.037 8.676 235.037 9.12C235.037 9.564 234.881 9.948 234.569 10.272C234.257 10.596 233.837 10.758 233.309 10.758ZM243.164 11.838H245.9L242.534 21H238.61L235.73 11.838H238.718L240.734 18.732L243.164 11.838ZM249.355 11.838V21H246.601V11.838H249.355ZM247.969 10.758C247.441 10.758 247.021 10.596 246.709 10.272C246.397 9.948 246.241 9.564 246.241 9.12C246.241 8.676 246.391 8.292 246.691 7.968C247.003 7.644 247.429 7.482 247.969 7.482C248.497 7.482 248.917 7.644 249.229 7.968C249.541 8.292 249.697 8.676 249.697 9.12C249.697 9.564 249.541 9.948 249.229 10.272C248.917 10.596 248.497 10.758 247.969 10.758ZM260.453 7.68V21H257.681L257.771 19.65C257.111 20.67 256.133 21.18 254.837 21.18C254.021 21.18 253.325 20.994 252.749 20.622C252.173 20.25 251.735 19.734 251.435 19.074C251.135 18.414 250.985 17.658 250.985 16.806C250.985 15.786 251.195 14.892 251.615 14.124C252.035 13.356 252.599 12.762 253.307 12.342C254.015 11.91 254.807 11.694 255.683 11.694C256.091 11.694 256.469 11.754 256.817 11.874C257.165 11.994 257.465 12.162 257.717 12.378L257.699 11.838V7.68H260.453ZM255.953 14.088C255.293 14.088 254.771 14.334 254.387 14.826C254.015 15.318 253.829 15.948 253.829 16.716C253.829 17.376 253.973 17.886 254.261 18.246C254.561 18.606 254.963 18.786 255.467 18.786C256.079 18.786 256.601 18.534 257.033 18.03C257.477 17.526 257.699 16.866 257.699 16.05C257.699 15.438 257.543 14.958 257.231 14.61C256.919 14.262 256.493 14.088 255.953 14.088ZM265.604 21.18C264.548 21.18 263.75 20.82 263.21 20.1C262.67 19.38 262.406 18.378 262.418 17.094L262.454 11.838H265.208L265.172 16.878C265.172 17.418 265.268 17.844 265.46 18.156C265.652 18.468 265.952 18.624 266.36 18.624C266.708 18.624 267.026 18.516 267.314 18.3C267.602 18.084 267.854 17.724 268.07 17.22C268.286 16.716 268.454 16.026 268.574 15.15C268.706 14.274 268.778 13.17 268.79 11.838H271.454V21H268.7L268.826 19.236C268.466 19.86 268.01 20.34 267.458 20.676C266.906 21.012 266.288 21.18 265.604 21.18ZM282.566 11.874V21H279.794L279.884 19.632C279.224 20.664 278.246 21.18 276.95 21.18C276.134 21.18 275.438 20.994 274.862 20.622C274.286 20.25 273.848 19.734 273.548 19.074C273.248 18.414 273.098 17.658 273.098 16.806C273.098 15.786 273.308 14.892 273.728 14.124C274.148 13.356 274.712 12.762 275.42 12.342C276.128 11.91 276.92 11.694 277.796 11.694C278.372 11.694 278.882 11.814 279.326 12.054C279.77 12.282 280.112 12.588 280.352 12.972L280.586 11.874H282.566ZM278.066 14.088C277.406 14.088 276.884 14.334 276.5 14.826C276.128 15.318 275.942 15.948 275.942 16.716C275.942 17.376 276.086 17.886 276.374 18.246C276.674 18.606 277.076 18.786 277.58 18.786C278.192 18.786 278.714 18.534 279.146 18.03C279.59 17.526 279.812 16.866 279.812 16.05C279.812 15.438 279.656 14.958 279.344 14.61C279.032 14.262 278.606 14.088 278.066 14.088ZM287.573 21.18C286.649 21.18 285.935 20.928 285.431 20.424C284.939 19.908 284.693 19.164 284.693 18.192V7.68H287.447V17.994C287.447 18.546 287.705 18.822 288.221 18.822C288.497 18.822 288.731 18.756 288.923 18.624L289.589 20.586C289.385 20.754 289.103 20.892 288.743 21C288.383 21.12 287.993 21.18 287.573 21.18ZM293.631 21.18C292.299 21.18 291.291 20.934 290.607 20.442C289.923 19.938 289.521 19.278 289.401 18.462L291.687 17.886C291.759 18.234 291.957 18.516 292.281 18.732C292.605 18.936 293.049 19.038 293.613 19.038C294.513 19.038 294.963 18.828 294.963 18.408C294.963 18.192 294.831 18.03 294.567 17.922C294.315 17.802 293.901 17.688 293.325 17.58C292.245 17.388 291.405 17.082 290.805 16.662C290.217 16.242 289.923 15.6 289.923 14.736C289.923 14.148 290.091 13.626 290.427 13.17C290.763 12.714 291.225 12.354 291.813 12.09C292.401 11.826 293.079 11.694 293.847 11.694C294.843 11.694 295.665 11.928 296.313 12.396C296.973 12.864 297.363 13.44 297.483 14.124L295.233 14.736C295.149 14.472 294.981 14.256 294.729 14.088C294.489 13.92 294.159 13.836 293.739 13.836C293.343 13.836 293.049 13.902 292.857 14.034C292.677 14.166 292.587 14.322 292.587 14.502C292.587 14.718 292.713 14.892 292.965 15.024C293.217 15.144 293.661 15.27 294.297 15.402C294.945 15.522 295.515 15.69 296.007 15.906C296.511 16.11 296.901 16.398 297.177 16.77C297.465 17.13 297.609 17.622 297.609 18.246C297.609 18.834 297.435 19.35 297.087 19.794C296.751 20.238 296.283 20.58 295.683 20.82C295.083 21.06 294.399 21.18 293.631 21.18Z" fill="#F67E7E"/>
</g>
<circle cx="44" cy="44" r="28" fill="#2C6269"/>
<path fill-rule="evenodd" clip-rule="evenodd" d="M14.4958 0H28.4958C34.1565 0 38.7625 4.606 38.7625 10.2666V10.2667V14.9333C40.8214 14.9333 42.4958 16.6078 42.4958 18.6667C42.4958 20.7256 40.8214 22.4 38.7625 22.4H38.55C38.2613 26.0674 36.1975 29.2747 33.1623 31.101V32.6667H36.1118C38.6029 32.6667 40.6292 34.693 40.6291 37.1842C40.6298 37.2541 40.6289 37.3238 40.6263 37.3934L40.7476 37.4014C44.9636 37.9624 48.0958 41.5427 48.0959 45.7333V56H46.2292V45.7334C46.2292 42.4733 43.7932 39.6891 40.561 39.258L40.1563 39.2323C40.0733 39.3986 39.9798 39.5606 39.8759 39.7172L35.0291 46.9513V56H33.1623V42.9565C31.5585 44.1449 29.6053 44.8 27.5625 44.8C25.5193 44.8 23.5662 44.1451 21.9625 42.9571V56H20.0958V46.9507L15.251 39.7198C15.1464 39.5623 15.0523 39.3996 14.9689 39.2326L14.5023 39.2634C11.3318 39.689 8.89576 42.4732 8.89576 45.7333V56H7.02905V45.7333C7.02905 41.5426 10.1613 37.9633 14.3165 37.407L14.4982 37.3946C14.4954 37.3215 14.4943 37.2481 14.495 37.1746C14.495 34.6929 16.5212 32.6666 19.0123 32.6666H21.9625V31.1315C19.2932 29.5509 17.3029 26.8626 16.72 23.577C16.6621 23.2503 16.6183 22.9208 16.5903 22.5904L16.5756 22.4H16.3625C14.3035 22.4 12.6292 20.7255 12.6292 18.6666C12.6292 16.6077 14.3035 14.9333 16.3625 14.9333H16.3639L16.3626 10.5691C14.1571 9.51877 12.6292 7.26788 12.6292 4.66659C12.6292 4.15144 13.0473 3.7333 13.5625 3.7333H14.0636C13.7445 3.18358 13.5625 2.54603 13.5625 1.86659V0.933297C13.5625 0.418141 13.9806 0 14.4958 0ZM33.1623 35.672V34.5334H36.1118C37.5733 34.5334 38.7625 35.7234 38.7625 37.1934C38.768 37.7264 38.615 38.2415 38.3229 38.6811L35.0291 43.5973V37.5387C35.0292 37.0226 34.6119 36.6053 34.0958 36.6053H33.9371C33.4891 36.5287 33.1586 36.1377 33.1623 35.672ZM29.5133 32.4996C30.1282 32.3806 30.7236 32.2126 31.2956 32V35.6636C31.2863 36.8807 32.0563 37.9363 33.1623 38.3254V40.4479C31.7314 42.032 29.7086 42.9333 27.5625 42.9333C25.4163 42.9333 23.3935 42.0319 21.9625 40.4494V38.3264C23.0676 37.9373 23.8375 36.8826 23.8292 35.672V32.0136C25.0092 32.4416 26.2729 32.6723 27.5728 32.6723C28.2121 32.6723 28.8618 32.6153 29.5133 32.4996ZM20.0958 37.5387V43.5959L16.804 38.6829C16.51 38.2414 16.357 37.7253 16.3626 37.1839C16.3625 35.7224 17.5515 34.5333 19.0132 34.5333H21.9625V35.6786C21.9653 36.1377 21.6358 36.5288 21.1878 36.6054H21.0291C20.5139 36.6054 20.0958 37.0226 20.0958 37.5387ZM35.1286 11.1999H36.896L36.8969 14.0611C36.1833 13.4162 35.4004 12.4564 35.1286 11.1999ZM33.2295 11.1999C33.6437 14.0413 35.8703 15.7542 36.8976 16.4045L36.8986 19.5273L36.7016 22.0715C36.4422 26.3238 33.3398 29.8584 29.1725 30.6647C24.2034 31.5467 19.4396 28.2213 18.5567 23.2503C18.5092 22.9796 18.4727 22.7071 18.4503 22.4401L18.2292 19.6V16.4032C19.2574 15.752 21.4814 14.0394 21.8953 11.1999H33.2295ZM16.3625 16.8H16.3644L16.3653 19.6719L16.4317 20.5333H16.3625C15.333 20.5333 14.4958 19.6961 14.4958 18.6666C14.4958 17.6372 15.333 16.8 16.3625 16.8ZM19.9963 11.1999C19.7247 12.4555 18.9424 13.4148 18.2292 14.0597V11.1334C18.534 11.1772 18.8457 11.1999 19.1625 11.1999H19.9963ZM38.7625 19.6V16.8C39.7919 16.8 40.6292 17.6372 40.6292 18.6667C40.6292 19.6961 39.792 20.5334 38.7625 20.5334H38.6912L38.7625 19.6ZM14.59 5.6C15.0232 7.72702 16.9094 9.3333 19.1625 9.3333V9.33341H36.8435C36.3778 5.13898 32.8125 1.8667 28.4958 1.8667H15.4291C15.4291 2.89625 16.2663 3.73341 17.2958 3.73341C17.8109 3.73341 18.2291 4.15155 18.2291 4.6667C18.2291 5.18186 17.8109 5.6 17.2958 5.6H14.59ZM23.8292 17.7333C23.8292 18.7642 22.9934 19.6 21.9625 19.6C20.9315 19.6 20.0958 18.7642 20.0958 17.7333C20.0958 16.7023 20.9315 15.8666 21.9625 15.8666C22.9934 15.8666 23.8292 16.7023 23.8292 17.7333ZM33.1625 19.6C34.1934 19.6 35.0292 18.7642 35.0292 17.7333C35.0292 16.7023 34.1934 15.8666 33.1625 15.8666C32.1315 15.8666 31.2958 16.7023 31.2958 17.7333C31.2958 18.7642 32.1315 19.6 33.1625 19.6ZM27.0743 20.5333L28.4286 17.1472L26.6954 16.4537L24.8287 21.1204C24.7139 21.4079 24.7494 21.7346 24.923 21.9903C25.0966 22.246 25.386 22.4 25.6959 22.4H28.4959V20.5333H27.0743ZM25.8545 24.2667C27.3076 24.2657 28.674 23.7001 29.7026 22.6726L31.0223 23.9933C29.6419 25.3727 27.806 26.1324 25.8545 26.1334H25.6958V24.2667H25.8545ZM17.2959 47.6C17.2959 47.0839 17.714 46.6667 18.2292 46.6667C18.7443 46.6667 19.1625 47.0839 19.1625 47.6V53.2C19.1625 53.7161 18.7443 54.1333 18.2292 54.1333C17.714 54.1333 17.2959 53.7161 17.2959 53.2V47.6ZM35.9625 47.6C35.9625 47.0839 36.3796 46.6667 36.8958 46.6667C37.4119 46.6667 37.8292 47.0839 37.8291 47.6V53.2C37.8291 53.7161 37.4119 54.1333 36.8958 54.1333C36.3796 54.1333 35.9625 53.7161 35.9625 53.2V47.6Z" fill="#79C8C7"/>
<defs>
<clipPath id="clip0_0_4303">
<rect width="445" height="94" fill="white" transform="translate(95)"/>
</clipPath>
</defs>
</svg>
