<svg width="540" height="94" viewBox="0 0 540 94" fill="none" xmlns="http://www.w3.org/2000/svg">
<g clip-path="url(#clip0_0_4333)">
<path opacity="0.8" d="M100.835 62.135C99.755 62.145 98.83 61.945 98.06 61.535C97.29 61.115 96.7 60.51 96.29 59.72C95.88 58.93 95.675 57.98 95.675 56.87C95.675 55.76 95.895 54.78 96.335 53.93C96.775 53.07 97.395 52.4 98.195 51.92C99.005 51.44 99.96 51.2 101.06 51.2C102.04 51.2 102.9 51.42 103.64 51.86C104.38 52.3 104.955 52.915 105.365 53.705C105.775 54.485 105.98 55.405 105.98 56.465C105.98 57.615 105.755 58.615 105.305 59.465C104.865 60.305 104.255 60.96 103.475 61.43C102.705 61.9 101.825 62.135 100.835 62.135ZM100.775 60.38C101.405 60.38 101.96 60.225 102.44 59.915C102.93 59.605 103.31 59.16 103.58 58.58C103.86 58 104 57.295 104 56.465C104 55.395 103.73 54.54 103.19 53.9C102.65 53.26 101.925 52.94 101.015 52.94C100.365 52.94 99.785 53.105 99.275 53.435C98.775 53.765 98.38 54.22 98.09 54.8C97.8 55.38 97.655 56.06 97.655 56.84C97.655 57.97 97.93 58.845 98.48 59.465C99.04 60.075 99.805 60.38 100.775 60.38ZM110.05 62.135C109.21 62.135 108.575 61.85 108.145 61.28C107.725 60.71 107.52 59.92 107.53 58.91L107.56 54.425H109.39L109.36 58.745C109.35 59.265 109.44 59.675 109.63 59.975C109.82 60.275 110.12 60.425 110.53 60.425C110.85 60.425 111.145 60.33 111.415 60.14C111.695 59.95 111.935 59.63 112.135 59.18C112.335 58.72 112.49 58.105 112.6 57.335C112.72 56.555 112.78 55.585 112.78 54.425H114.55V62H112.705L112.81 60.275C112.51 60.885 112.12 61.35 111.64 61.67C111.17 61.98 110.64 62.135 110.05 62.135ZM121.357 56.195C121.157 56.125 120.902 56.09 120.592 56.09C120.052 56.09 119.617 56.29 119.287 56.69C118.957 57.08 118.712 57.71 118.552 58.58C118.402 59.44 118.327 60.58 118.327 62H116.512V57.11L116.497 54.425H118.327L118.237 56.54C118.497 55.73 118.857 55.155 119.317 54.815C119.787 54.475 120.287 54.305 120.817 54.305C120.977 54.305 121.127 54.315 121.267 54.335C121.407 54.355 121.537 54.385 121.657 54.425L121.357 56.195ZM126.268 65V54.425H128.113L128.053 55.775C128.323 55.305 128.673 54.945 129.103 54.695C129.533 54.435 130.033 54.305 130.603 54.305C131.273 54.305 131.838 54.46 132.298 54.77C132.758 55.08 133.108 55.505 133.348 56.045C133.588 56.585 133.708 57.2 133.708 57.89C133.708 58.73 133.543 59.47 133.213 60.11C132.883 60.75 132.428 61.25 131.848 61.61C131.278 61.96 130.628 62.135 129.898 62.135C129.518 62.135 129.173 62.07 128.863 61.94C128.553 61.81 128.293 61.635 128.083 61.415L128.098 62V65H126.268ZM129.763 60.53C130.393 60.53 130.893 60.29 131.263 59.81C131.633 59.33 131.818 58.71 131.818 57.95C131.818 57.31 131.678 56.815 131.398 56.465C131.118 56.105 130.733 55.925 130.243 55.925C129.833 55.925 129.468 56.04 129.148 56.27C128.828 56.49 128.573 56.805 128.383 57.215C128.193 57.615 128.098 58.08 128.098 58.61C128.098 59.2 128.248 59.67 128.548 60.02C128.848 60.36 129.253 60.53 129.763 60.53ZM140.151 56.195C139.951 56.125 139.696 56.09 139.386 56.09C138.846 56.09 138.411 56.29 138.081 56.69C137.751 57.08 137.506 57.71 137.346 58.58C137.196 59.44 137.121 60.58 137.121 62H135.306V57.11L135.291 54.425H137.121L137.031 56.54C137.291 55.73 137.651 55.155 138.111 54.815C138.581 54.475 139.081 54.305 139.611 54.305C139.771 54.305 139.921 54.315 140.061 54.335C140.201 54.355 140.331 54.385 140.451 54.425L140.151 56.195ZM144.618 54.305C145.748 54.305 146.633 54.645 147.273 55.325C147.923 55.995 148.248 56.905 148.248 58.055C148.248 58.835 148.083 59.535 147.753 60.155C147.433 60.765 146.978 61.25 146.388 61.61C145.798 61.96 145.113 62.135 144.333 62.135C143.203 62.135 142.313 61.8 141.663 61.13C141.023 60.46 140.703 59.545 140.703 58.385C140.703 57.605 140.863 56.91 141.183 56.3C141.513 55.68 141.968 55.195 142.548 54.845C143.138 54.485 143.828 54.305 144.618 54.305ZM144.393 60.53C144.983 60.53 145.458 60.305 145.818 59.855C146.178 59.405 146.358 58.805 146.358 58.055C146.358 57.375 146.198 56.85 145.878 56.48C145.568 56.11 145.138 55.925 144.588 55.925C143.978 55.925 143.493 56.15 143.133 56.6C142.773 57.05 142.593 57.645 142.593 58.385C142.593 59.065 142.748 59.595 143.058 59.975C143.378 60.345 143.823 60.53 144.393 60.53ZM153.212 62.135C152.062 62.135 151.152 61.805 150.482 61.145C149.812 60.475 149.477 59.545 149.477 58.355C149.477 57.555 149.642 56.85 149.972 56.24C150.302 55.63 150.762 55.155 151.352 54.815C151.942 54.475 152.622 54.305 153.392 54.305C154.032 54.305 154.592 54.43 155.072 54.68C155.552 54.93 155.942 55.32 156.242 55.85L154.937 56.84C154.747 56.52 154.527 56.29 154.277 56.15C154.037 56.01 153.742 55.94 153.392 55.94C152.802 55.94 152.317 56.16 151.937 56.6C151.567 57.04 151.382 57.62 151.382 58.34C151.382 59.04 151.547 59.58 151.877 59.96C152.217 60.33 152.702 60.515 153.332 60.515C153.662 60.515 153.967 60.44 154.247 60.29C154.537 60.14 154.777 59.905 154.967 59.585L156.242 60.605C155.902 61.155 155.472 61.55 154.952 61.79C154.432 62.02 153.852 62.135 153.212 62.135ZM160.557 62.135C159.737 62.135 159.027 61.985 158.427 61.685C157.837 61.375 157.382 60.935 157.062 60.365C156.742 59.795 156.582 59.115 156.582 58.325C156.582 57.535 156.747 56.84 157.077 56.24C157.407 55.63 157.852 55.155 158.412 54.815C158.982 54.475 159.627 54.305 160.347 54.305C161.517 54.305 162.377 54.705 162.927 55.505C163.487 56.295 163.682 57.39 163.512 58.79H158.442C158.482 59.32 158.697 59.745 159.087 60.065C159.477 60.385 160.012 60.545 160.692 60.545C161.012 60.545 161.332 60.475 161.652 60.335C161.982 60.195 162.262 59.98 162.492 59.69L163.557 60.77C163.217 61.2 162.802 61.535 162.312 61.775C161.832 62.015 161.247 62.135 160.557 62.135ZM160.377 55.685C159.867 55.685 159.447 55.845 159.117 56.165C158.787 56.485 158.577 56.915 158.487 57.455H161.937C161.957 56.835 161.822 56.385 161.532 56.105C161.242 55.825 160.857 55.685 160.377 55.685ZM167.741 62.135C166.701 62.135 165.906 61.94 165.356 61.55C164.806 61.15 164.486 60.595 164.396 59.885L165.941 59.51C166.001 59.89 166.176 60.185 166.466 60.395C166.756 60.595 167.171 60.695 167.711 60.695C168.151 60.695 168.481 60.625 168.701 60.485C168.931 60.345 169.046 60.155 169.046 59.915C169.046 59.675 168.921 59.49 168.671 59.36C168.431 59.23 168.056 59.115 167.546 59.015C166.976 58.905 166.486 58.765 166.076 58.595C165.676 58.425 165.366 58.195 165.146 57.905C164.936 57.605 164.831 57.215 164.831 56.735C164.831 56.275 164.961 55.865 165.221 55.505C165.481 55.135 165.836 54.845 166.286 54.635C166.746 54.415 167.271 54.305 167.861 54.305C168.651 54.305 169.296 54.49 169.796 54.86C170.306 55.23 170.611 55.705 170.711 56.285L169.196 56.69C169.126 56.4 168.976 56.175 168.746 56.015C168.516 55.845 168.206 55.76 167.816 55.76C167.426 55.76 167.126 55.84 166.916 56C166.716 56.16 166.616 56.36 166.616 56.6C166.616 56.84 166.731 57.03 166.961 57.17C167.201 57.3 167.606 57.425 168.176 57.545C168.706 57.655 169.166 57.795 169.556 57.965C169.956 58.125 170.271 58.35 170.501 58.64C170.731 58.92 170.846 59.3 170.846 59.78C170.846 60.25 170.711 60.665 170.441 61.025C170.181 61.375 169.816 61.65 169.346 61.85C168.876 62.04 168.341 62.135 167.741 62.135ZM174.817 62.135C173.777 62.135 172.982 61.94 172.432 61.55C171.882 61.15 171.562 60.595 171.472 59.885L173.017 59.51C173.077 59.89 173.252 60.185 173.542 60.395C173.832 60.595 174.247 60.695 174.787 60.695C175.227 60.695 175.557 60.625 175.777 60.485C176.007 60.345 176.122 60.155 176.122 59.915C176.122 59.675 175.997 59.49 175.747 59.36C175.507 59.23 175.132 59.115 174.622 59.015C174.052 58.905 173.562 58.765 173.152 58.595C172.752 58.425 172.442 58.195 172.222 57.905C172.012 57.605 171.907 57.215 171.907 56.735C171.907 56.275 172.037 55.865 172.297 55.505C172.557 55.135 172.912 54.845 173.362 54.635C173.822 54.415 174.347 54.305 174.937 54.305C175.727 54.305 176.372 54.49 176.872 54.86C177.382 55.23 177.687 55.705 177.787 56.285L176.272 56.69C176.202 56.4 176.052 56.175 175.822 56.015C175.592 55.845 175.282 55.76 174.892 55.76C174.502 55.76 174.202 55.84 173.992 56C173.792 56.16 173.692 56.36 173.692 56.6C173.692 56.84 173.807 57.03 174.037 57.17C174.277 57.3 174.682 57.425 175.252 57.545C175.782 57.655 176.242 57.795 176.632 57.965C177.032 58.125 177.347 58.35 177.577 58.64C177.807 58.92 177.922 59.3 177.922 59.78C177.922 60.25 177.787 60.665 177.517 61.025C177.257 61.375 176.892 61.65 176.422 61.85C175.952 62.04 175.417 62.135 174.817 62.135ZM182.852 62.135C182.032 62.135 181.322 61.985 180.722 61.685C180.132 61.375 179.677 60.935 179.357 60.365C179.037 59.795 178.877 59.115 178.877 58.325C178.877 57.535 179.042 56.84 179.372 56.24C179.702 55.63 180.147 55.155 180.707 54.815C181.277 54.475 181.922 54.305 182.642 54.305C183.812 54.305 184.672 54.705 185.222 55.505C185.782 56.295 185.977 57.39 185.807 58.79H180.737C180.777 59.32 180.992 59.745 181.382 60.065C181.772 60.385 182.307 60.545 182.987 60.545C183.307 60.545 183.627 60.475 183.947 60.335C184.277 60.195 184.557 59.98 184.787 59.69L185.852 60.77C185.512 61.2 185.097 61.535 184.607 61.775C184.127 62.015 183.542 62.135 182.852 62.135ZM182.672 55.685C182.162 55.685 181.742 55.845 181.412 56.165C181.082 56.485 180.872 56.915 180.782 57.455H184.232C184.252 56.835 184.117 56.385 183.827 56.105C183.537 55.825 183.152 55.685 182.672 55.685ZM190.036 62.135C188.996 62.135 188.201 61.94 187.651 61.55C187.101 61.15 186.781 60.595 186.691 59.885L188.236 59.51C188.296 59.89 188.471 60.185 188.761 60.395C189.051 60.595 189.466 60.695 190.006 60.695C190.446 60.695 190.776 60.625 190.996 60.485C191.226 60.345 191.341 60.155 191.341 59.915C191.341 59.675 191.216 59.49 190.966 59.36C190.726 59.23 190.351 59.115 189.841 59.015C189.271 58.905 188.781 58.765 188.371 58.595C187.971 58.425 187.661 58.195 187.441 57.905C187.231 57.605 187.126 57.215 187.126 56.735C187.126 56.275 187.256 55.865 187.516 55.505C187.776 55.135 188.131 54.845 188.581 54.635C189.041 54.415 189.566 54.305 190.156 54.305C190.946 54.305 191.591 54.49 192.091 54.86C192.601 55.23 192.906 55.705 193.006 56.285L191.491 56.69C191.421 56.4 191.271 56.175 191.041 56.015C190.811 55.845 190.501 55.76 190.111 55.76C189.721 55.76 189.421 55.84 189.211 56C189.011 56.16 188.911 56.36 188.911 56.6C188.911 56.84 189.026 57.03 189.256 57.17C189.496 57.3 189.901 57.425 190.471 57.545C191.001 57.655 191.461 57.795 191.851 57.965C192.251 58.125 192.566 58.35 192.796 58.64C193.026 58.92 193.141 59.3 193.141 59.78C193.141 60.25 193.006 60.665 192.736 61.025C192.476 61.375 192.111 61.65 191.641 61.85C191.171 62.04 190.636 62.135 190.036 62.135ZM198.104 62V50.9H199.934L199.949 54.425L199.844 56.315C200.144 55.675 200.539 55.18 201.029 54.83C201.529 54.48 202.099 54.305 202.739 54.305C203.589 54.305 204.229 54.6 204.659 55.19C205.099 55.77 205.314 56.605 205.304 57.695L205.274 62H203.444L203.474 57.845C203.484 57.255 203.389 56.805 203.189 56.495C202.999 56.175 202.689 56.015 202.259 56.015C201.929 56.015 201.624 56.11 201.344 56.3C201.064 56.49 200.819 56.815 200.609 57.275C200.399 57.725 200.234 58.34 200.114 59.12C199.994 59.89 199.929 60.85 199.919 62H198.104ZM214.222 54.455V62H212.362L212.422 60.68C212.152 61.14 211.797 61.5 211.357 61.76C210.927 62.01 210.432 62.135 209.872 62.135C209.212 62.135 208.652 61.985 208.192 61.685C207.732 61.375 207.382 60.95 207.142 60.41C206.902 59.87 206.782 59.25 206.782 58.55C206.782 57.71 206.947 56.975 207.277 56.345C207.607 55.705 208.057 55.205 208.627 54.845C209.207 54.485 209.857 54.305 210.577 54.305C211.057 54.305 211.482 54.41 211.852 54.62C212.222 54.82 212.507 55.09 212.707 55.43L212.887 54.455H214.222ZM210.712 55.925C210.092 55.925 209.597 56.16 209.227 56.63C208.857 57.1 208.672 57.715 208.672 58.475C208.672 59.125 208.812 59.63 209.092 59.99C209.372 60.35 209.757 60.53 210.247 60.53C210.647 60.53 211.007 60.415 211.327 60.185C211.657 59.955 211.917 59.635 212.107 59.225C212.297 58.815 212.392 58.345 212.392 57.815C212.392 57.225 212.242 56.765 211.942 56.435C211.642 56.095 211.232 55.925 210.712 55.925ZM221.4 54.425H223.23L220.395 62H217.785L215.385 54.425H217.365L219.195 60.515L221.4 54.425ZM227.427 62.135C226.607 62.135 225.897 61.985 225.297 61.685C224.707 61.375 224.252 60.935 223.932 60.365C223.612 59.795 223.452 59.115 223.452 58.325C223.452 57.535 223.617 56.84 223.947 56.24C224.277 55.63 224.722 55.155 225.282 54.815C225.852 54.475 226.497 54.305 227.217 54.305C228.387 54.305 229.247 54.705 229.797 55.505C230.357 56.295 230.552 57.39 230.382 58.79H225.312C225.352 59.32 225.567 59.745 225.957 60.065C226.347 60.385 226.882 60.545 227.562 60.545C227.882 60.545 228.202 60.475 228.522 60.335C228.852 60.195 229.132 59.98 229.362 59.69L230.427 60.77C230.087 61.2 229.672 61.535 229.182 61.775C228.702 62.015 228.117 62.135 227.427 62.135ZM227.247 55.685C226.737 55.685 226.317 55.845 225.987 56.165C225.657 56.485 225.447 56.915 225.357 57.455H228.807C228.827 56.835 228.692 56.385 228.402 56.105C228.112 55.825 227.727 55.685 227.247 55.685ZM235.604 62V50.9H237.434V54.425L237.374 55.805C237.644 55.325 237.994 54.955 238.424 54.695C238.864 54.435 239.369 54.305 239.939 54.305C240.609 54.305 241.174 54.46 241.634 54.77C242.094 55.08 242.444 55.505 242.684 56.045C242.924 56.585 243.044 57.2 243.044 57.89C243.044 58.73 242.879 59.47 242.549 60.11C242.219 60.75 241.764 61.25 241.184 61.61C240.614 61.96 239.969 62.135 239.249 62.135C238.759 62.135 238.329 62.035 237.959 61.835C237.589 61.625 237.309 61.35 237.119 61.01L236.939 62H235.604ZM239.099 60.53C239.729 60.53 240.229 60.29 240.599 59.81C240.969 59.33 241.154 58.71 241.154 57.95C241.154 57.31 241.014 56.815 240.734 56.465C240.454 56.105 240.069 55.925 239.579 55.925C239.169 55.925 238.804 56.04 238.484 56.27C238.164 56.49 237.909 56.805 237.719 57.215C237.529 57.615 237.434 58.08 237.434 58.61C237.434 59.2 237.584 59.67 237.884 60.02C238.184 60.36 238.589 60.53 239.099 60.53ZM248.242 62.135C247.422 62.135 246.712 61.985 246.112 61.685C245.522 61.375 245.067 60.935 244.747 60.365C244.427 59.795 244.267 59.115 244.267 58.325C244.267 57.535 244.432 56.84 244.762 56.24C245.092 55.63 245.537 55.155 246.097 54.815C246.667 54.475 247.312 54.305 248.032 54.305C249.202 54.305 250.062 54.705 250.612 55.505C251.172 56.295 251.367 57.39 251.197 58.79H246.127C246.167 59.32 246.382 59.745 246.772 60.065C247.162 60.385 247.697 60.545 248.377 60.545C248.697 60.545 249.017 60.475 249.337 60.335C249.667 60.195 249.947 59.98 250.177 59.69L251.242 60.77C250.902 61.2 250.487 61.535 249.997 61.775C249.517 62.015 248.932 62.135 248.242 62.135ZM248.062 55.685C247.552 55.685 247.132 55.845 246.802 56.165C246.472 56.485 246.262 56.915 246.172 57.455H249.622C249.642 56.835 249.507 56.385 249.217 56.105C248.927 55.825 248.542 55.685 248.062 55.685ZM256.387 62.135C255.567 62.135 254.857 61.985 254.257 61.685C253.667 61.375 253.212 60.935 252.892 60.365C252.572 59.795 252.412 59.115 252.412 58.325C252.412 57.535 252.577 56.84 252.907 56.24C253.237 55.63 253.682 55.155 254.242 54.815C254.812 54.475 255.457 54.305 256.177 54.305C257.347 54.305 258.207 54.705 258.757 55.505C259.317 56.295 259.512 57.39 259.342 58.79H254.272C254.312 59.32 254.527 59.745 254.917 60.065C255.307 60.385 255.842 60.545 256.522 60.545C256.842 60.545 257.162 60.475 257.482 60.335C257.812 60.195 258.092 59.98 258.322 59.69L259.387 60.77C259.047 61.2 258.632 61.535 258.142 61.775C257.662 62.015 257.077 62.135 256.387 62.135ZM256.207 55.685C255.697 55.685 255.277 55.845 254.947 56.165C254.617 56.485 254.407 56.915 254.317 57.455H257.767C257.787 56.835 257.652 56.385 257.362 56.105C257.072 55.825 256.687 55.685 256.207 55.685ZM260.916 62V54.425H262.746L262.656 56.33C262.946 55.68 263.341 55.18 263.841 54.83C264.341 54.48 264.911 54.305 265.551 54.305C266.401 54.305 267.041 54.6 267.471 55.19C267.911 55.77 268.126 56.605 268.116 57.695L268.086 62H266.256L266.286 57.845C266.296 57.255 266.201 56.805 266.001 56.495C265.811 56.175 265.501 56.015 265.071 56.015C264.741 56.015 264.436 56.11 264.156 56.3C263.876 56.49 263.631 56.815 263.421 57.275C263.211 57.725 263.046 58.34 262.926 59.12C262.806 59.89 262.741 60.85 262.731 62H260.916ZM278.462 56.195C278.262 56.125 278.007 56.09 277.697 56.09C277.157 56.09 276.722 56.29 276.392 56.69C276.062 57.08 275.817 57.71 275.657 58.58C275.507 59.44 275.432 60.58 275.432 62H273.617V57.11L273.602 54.425H275.432L275.342 56.54C275.602 55.73 275.962 55.155 276.422 54.815C276.892 54.475 277.392 54.305 277.922 54.305C278.082 54.305 278.232 54.315 278.372 54.335C278.512 54.355 278.642 54.385 278.762 54.425L278.462 56.195ZM282.988 62.135C282.168 62.135 281.458 61.985 280.858 61.685C280.268 61.375 279.813 60.935 279.493 60.365C279.173 59.795 279.013 59.115 279.013 58.325C279.013 57.535 279.178 56.84 279.508 56.24C279.838 55.63 280.283 55.155 280.843 54.815C281.413 54.475 282.058 54.305 282.778 54.305C283.948 54.305 284.808 54.705 285.358 55.505C285.918 56.295 286.113 57.39 285.943 58.79H280.873C280.913 59.32 281.128 59.745 281.518 60.065C281.908 60.385 282.443 60.545 283.123 60.545C283.443 60.545 283.763 60.475 284.083 60.335C284.413 60.195 284.693 59.98 284.923 59.69L285.988 60.77C285.648 61.2 285.233 61.535 284.743 61.775C284.263 62.015 283.678 62.135 282.988 62.135ZM282.808 55.685C282.298 55.685 281.878 55.845 281.548 56.165C281.218 56.485 281.008 56.915 280.918 57.455H284.368C284.388 56.835 284.253 56.385 283.963 56.105C283.673 55.825 283.288 55.685 282.808 55.685ZM287.893 62V55.955H286.453V54.425H287.893V54.095C287.893 53.405 288.028 52.81 288.298 52.31C288.568 51.81 288.938 51.425 289.408 51.155C289.888 50.885 290.433 50.75 291.043 50.75C291.723 50.75 292.243 50.895 292.603 51.185L291.838 52.505C291.608 52.365 291.343 52.295 291.043 52.295C290.633 52.295 290.308 52.43 290.068 52.7C289.828 52.97 289.708 53.375 289.708 53.915V54.425H291.958V55.955H289.738V62H287.893ZM294.613 54.425V62H292.783V54.425H294.613ZM293.698 53.225C293.338 53.225 293.053 53.115 292.843 52.895C292.633 52.675 292.528 52.41 292.528 52.1C292.528 51.79 292.633 51.525 292.843 51.305C293.053 51.085 293.338 50.975 293.698 50.975C294.058 50.975 294.343 51.085 294.553 51.305C294.763 51.525 294.868 51.79 294.868 52.1C294.868 52.41 294.763 52.675 294.553 52.895C294.343 53.115 294.058 53.225 293.698 53.225ZM296.541 62V54.425H298.371L298.281 56.33C298.571 55.68 298.966 55.18 299.466 54.83C299.966 54.48 300.536 54.305 301.176 54.305C302.026 54.305 302.666 54.6 303.096 55.19C303.536 55.77 303.751 56.605 303.741 57.695L303.711 62H301.881L301.911 57.845C301.921 57.255 301.826 56.805 301.626 56.495C301.436 56.175 301.126 56.015 300.696 56.015C300.366 56.015 300.061 56.11 299.781 56.3C299.501 56.49 299.256 56.815 299.046 57.275C298.836 57.725 298.671 58.34 298.551 59.12C298.431 59.89 298.366 60.85 298.356 62H296.541ZM309.194 62.135C308.374 62.135 307.664 61.985 307.064 61.685C306.474 61.375 306.019 60.935 305.699 60.365C305.379 59.795 305.219 59.115 305.219 58.325C305.219 57.535 305.384 56.84 305.714 56.24C306.044 55.63 306.489 55.155 307.049 54.815C307.619 54.475 308.264 54.305 308.984 54.305C310.154 54.305 311.014 54.705 311.564 55.505C312.124 56.295 312.319 57.39 312.149 58.79H307.079C307.119 59.32 307.334 59.745 307.724 60.065C308.114 60.385 308.649 60.545 309.329 60.545C309.649 60.545 309.969 60.475 310.289 60.335C310.619 60.195 310.899 59.98 311.129 59.69L312.194 60.77C311.854 61.2 311.439 61.535 310.949 61.775C310.469 62.015 309.884 62.135 309.194 62.135ZM309.014 55.685C308.504 55.685 308.084 55.845 307.754 56.165C307.424 56.485 307.214 56.915 307.124 57.455H310.574C310.594 56.835 310.459 56.385 310.169 56.105C309.879 55.825 309.494 55.685 309.014 55.685ZM320.804 50.9V62H318.944L319.004 60.68C318.734 61.15 318.384 61.51 317.954 61.76C317.524 62.01 317.024 62.135 316.454 62.135C315.794 62.135 315.234 61.985 314.774 61.685C314.314 61.375 313.964 60.95 313.724 60.41C313.484 59.87 313.364 59.25 313.364 58.55C313.364 57.71 313.529 56.975 313.859 56.345C314.189 55.705 314.639 55.205 315.209 54.845C315.789 54.485 316.439 54.305 317.159 54.305C317.539 54.305 317.884 54.37 318.194 54.5C318.514 54.63 318.779 54.81 318.989 55.04L318.974 54.425V50.9H320.804ZM317.294 55.925C316.674 55.925 316.179 56.16 315.809 56.63C315.439 57.1 315.254 57.715 315.254 58.475C315.254 59.125 315.394 59.63 315.674 59.99C315.954 60.35 316.339 60.53 316.829 60.53C317.229 60.53 317.589 60.415 317.909 60.185C318.239 59.955 318.499 59.635 318.689 59.225C318.879 58.815 318.974 58.345 318.974 57.815C318.974 57.225 318.824 56.765 318.524 56.435C318.224 56.095 317.814 55.925 317.294 55.925ZM329.95 54.305C331.08 54.305 331.965 54.645 332.605 55.325C333.255 55.995 333.58 56.905 333.58 58.055C333.58 58.835 333.415 59.535 333.085 60.155C332.765 60.765 332.31 61.25 331.72 61.61C331.13 61.96 330.445 62.135 329.665 62.135C328.535 62.135 327.645 61.8 326.995 61.13C326.355 60.46 326.035 59.545 326.035 58.385C326.035 57.605 326.195 56.91 326.515 56.3C326.845 55.68 327.3 55.195 327.88 54.845C328.47 54.485 329.16 54.305 329.95 54.305ZM329.725 60.53C330.315 60.53 330.79 60.305 331.15 59.855C331.51 59.405 331.69 58.805 331.69 58.055C331.69 57.375 331.53 56.85 331.21 56.48C330.9 56.11 330.47 55.925 329.92 55.925C329.31 55.925 328.825 56.15 328.465 56.6C328.105 57.05 327.925 57.645 327.925 58.385C327.925 59.065 328.08 59.595 328.39 59.975C328.71 60.345 329.155 60.53 329.725 60.53ZM340.155 54.425H341.985L339.15 62H336.54L334.14 54.425H336.12L337.95 60.515L340.155 54.425ZM346.182 62.135C345.362 62.135 344.652 61.985 344.052 61.685C343.462 61.375 343.007 60.935 342.687 60.365C342.367 59.795 342.207 59.115 342.207 58.325C342.207 57.535 342.372 56.84 342.702 56.24C343.032 55.63 343.477 55.155 344.037 54.815C344.607 54.475 345.252 54.305 345.972 54.305C347.142 54.305 348.002 54.705 348.552 55.505C349.112 56.295 349.307 57.39 349.137 58.79H344.067C344.107 59.32 344.322 59.745 344.712 60.065C345.102 60.385 345.637 60.545 346.317 60.545C346.637 60.545 346.957 60.475 347.277 60.335C347.607 60.195 347.887 59.98 348.117 59.69L349.182 60.77C348.842 61.2 348.427 61.535 347.937 61.775C347.457 62.015 346.872 62.135 346.182 62.135ZM346.002 55.685C345.492 55.685 345.072 55.845 344.742 56.165C344.412 56.485 344.202 56.915 344.112 57.455H347.562C347.582 56.835 347.447 56.385 347.157 56.105C346.867 55.825 346.482 55.685 346.002 55.685ZM355.571 56.195C355.371 56.125 355.116 56.09 354.806 56.09C354.266 56.09 353.831 56.29 353.501 56.69C353.171 57.08 352.926 57.71 352.766 58.58C352.616 59.44 352.541 60.58 352.541 62H350.726V57.11L350.711 54.425H352.541L352.451 56.54C352.711 55.73 353.071 55.155 353.531 54.815C354.001 54.475 354.501 54.305 355.031 54.305C355.191 54.305 355.341 54.315 355.481 54.335C355.621 54.355 355.751 54.385 355.871 54.425L355.571 56.195ZM363.137 65.15C362.687 65.15 362.207 65.105 361.697 65.015C361.197 64.925 360.782 64.775 360.452 64.565L360.902 62.975C361.242 63.145 361.602 63.28 361.982 63.38C362.362 63.48 362.777 63.53 363.227 63.53C364.107 63.53 364.732 63.32 365.102 62.9C365.472 62.49 365.677 61.83 365.717 60.92L365.777 59.93C365.477 60.57 365.077 61.06 364.577 61.4C364.087 61.73 363.537 61.895 362.927 61.895C362.077 61.895 361.437 61.61 361.007 61.04C360.577 60.47 360.367 59.68 360.377 58.67L360.407 54.425H362.237L362.207 58.52C362.207 59.04 362.297 59.45 362.477 59.75C362.667 60.04 362.972 60.185 363.392 60.185C363.852 60.185 364.252 60.01 364.592 59.66C364.932 59.3 365.197 58.705 365.387 57.875C365.587 57.035 365.692 55.885 365.702 54.425H367.472V60.695C367.472 62.215 367.092 63.335 366.332 64.055C365.572 64.785 364.507 65.15 363.137 65.15ZM373.032 62.135C372.212 62.135 371.502 61.985 370.902 61.685C370.312 61.375 369.857 60.935 369.537 60.365C369.217 59.795 369.057 59.115 369.057 58.325C369.057 57.535 369.222 56.84 369.552 56.24C369.882 55.63 370.327 55.155 370.887 54.815C371.457 54.475 372.102 54.305 372.822 54.305C373.992 54.305 374.852 54.705 375.402 55.505C375.962 56.295 376.157 57.39 375.987 58.79H370.917C370.957 59.32 371.172 59.745 371.562 60.065C371.952 60.385 372.487 60.545 373.167 60.545C373.487 60.545 373.807 60.475 374.127 60.335C374.457 60.195 374.737 59.98 374.967 59.69L376.032 60.77C375.692 61.2 375.277 61.535 374.787 61.775C374.307 62.015 373.722 62.135 373.032 62.135ZM372.852 55.685C372.342 55.685 371.922 55.845 371.592 56.165C371.262 56.485 371.052 56.915 370.962 57.455H374.412C374.432 56.835 374.297 56.385 374.007 56.105C373.717 55.825 373.332 55.685 372.852 55.685ZM384.642 54.455V62H382.782L382.842 60.68C382.572 61.14 382.217 61.5 381.777 61.76C381.347 62.01 380.852 62.135 380.292 62.135C379.632 62.135 379.072 61.985 378.612 61.685C378.152 61.375 377.802 60.95 377.562 60.41C377.322 59.87 377.202 59.25 377.202 58.55C377.202 57.71 377.367 56.975 377.697 56.345C378.027 55.705 378.477 55.205 379.047 54.845C379.627 54.485 380.277 54.305 380.997 54.305C381.477 54.305 381.902 54.41 382.272 54.62C382.642 54.82 382.927 55.09 383.127 55.43L383.307 54.455H384.642ZM381.132 55.925C380.512 55.925 380.017 56.16 379.647 56.63C379.277 57.1 379.092 57.715 379.092 58.475C379.092 59.125 379.232 59.63 379.512 59.99C379.792 60.35 380.177 60.53 380.667 60.53C381.067 60.53 381.427 60.415 381.747 60.185C382.077 59.955 382.337 59.635 382.527 59.225C382.717 58.815 382.812 58.345 382.812 57.815C382.812 57.225 382.662 56.765 382.362 56.435C382.062 56.095 381.652 55.925 381.132 55.925ZM391.445 56.195C391.245 56.125 390.99 56.09 390.68 56.09C390.14 56.09 389.705 56.29 389.375 56.69C389.045 57.08 388.8 57.71 388.64 58.58C388.49 59.44 388.415 60.58 388.415 62H386.6V57.11L386.585 54.425H388.415L388.325 56.54C388.585 55.73 388.945 55.155 389.405 54.815C389.875 54.475 390.375 54.305 390.905 54.305C391.065 54.305 391.215 54.315 391.355 54.335C391.495 54.355 391.625 54.385 391.745 54.425L391.445 56.195ZM395.246 62.135C394.206 62.135 393.411 61.94 392.861 61.55C392.311 61.15 391.991 60.595 391.901 59.885L393.446 59.51C393.506 59.89 393.681 60.185 393.971 60.395C394.261 60.595 394.676 60.695 395.216 60.695C395.656 60.695 395.986 60.625 396.206 60.485C396.436 60.345 396.551 60.155 396.551 59.915C396.551 59.675 396.426 59.49 396.176 59.36C395.936 59.23 395.561 59.115 395.051 59.015C394.481 58.905 393.991 58.765 393.581 58.595C393.181 58.425 392.871 58.195 392.651 57.905C392.441 57.605 392.336 57.215 392.336 56.735C392.336 56.275 392.466 55.865 392.726 55.505C392.986 55.135 393.341 54.845 393.791 54.635C394.251 54.415 394.776 54.305 395.366 54.305C396.156 54.305 396.801 54.49 397.301 54.86C397.811 55.23 398.116 55.705 398.216 56.285L396.701 56.69C396.631 56.4 396.481 56.175 396.251 56.015C396.021 55.845 395.711 55.76 395.321 55.76C394.931 55.76 394.631 55.84 394.421 56C394.221 56.16 394.121 56.36 394.121 56.6C394.121 56.84 394.236 57.03 394.466 57.17C394.706 57.3 395.111 57.425 395.681 57.545C396.211 57.655 396.671 57.795 397.061 57.965C397.461 58.125 397.776 58.35 398.006 58.64C398.236 58.92 398.351 59.3 398.351 59.78C398.351 60.25 398.216 60.665 397.946 61.025C397.686 61.375 397.321 61.65 396.851 61.85C396.381 62.04 395.846 62.135 395.246 62.135ZM406.869 54.305C407.999 54.305 408.884 54.645 409.524 55.325C410.174 55.995 410.499 56.905 410.499 58.055C410.499 58.835 410.334 59.535 410.004 60.155C409.684 60.765 409.229 61.25 408.639 61.61C408.049 61.96 407.364 62.135 406.584 62.135C405.454 62.135 404.564 61.8 403.914 61.13C403.274 60.46 402.954 59.545 402.954 58.385C402.954 57.605 403.114 56.91 403.434 56.3C403.764 55.68 404.219 55.195 404.799 54.845C405.389 54.485 406.079 54.305 406.869 54.305ZM406.644 60.53C407.234 60.53 407.709 60.305 408.069 59.855C408.429 59.405 408.609 58.805 408.609 58.055C408.609 57.375 408.449 56.85 408.129 56.48C407.819 56.11 407.389 55.925 406.839 55.925C406.229 55.925 405.744 56.15 405.384 56.6C405.024 57.05 404.844 57.645 404.844 58.385C404.844 59.065 404.999 59.595 405.309 59.975C405.629 60.345 406.074 60.53 406.644 60.53ZM412.463 62V55.955H411.023V54.425H412.463V54.02C412.463 53.35 412.598 52.775 412.868 52.295C413.148 51.805 413.523 51.425 413.993 51.155C414.473 50.885 415.023 50.75 415.643 50.75C416.383 50.75 416.973 50.935 417.413 51.305C417.863 51.665 418.133 52.21 418.223 52.94L416.663 53.12C416.633 52.86 416.523 52.66 416.333 52.52C416.143 52.37 415.898 52.295 415.598 52.295C415.188 52.295 414.863 52.43 414.623 52.7C414.393 52.97 414.278 53.355 414.278 53.855V54.425H416.528V55.955H414.308V62H412.463ZM423 54.425V62H421.17V54.425H423ZM422.085 53.225C421.725 53.225 421.44 53.115 421.23 52.895C421.02 52.675 420.915 52.41 420.915 52.1C420.915 51.79 421.02 51.525 421.23 51.305C421.44 51.085 421.725 50.975 422.085 50.975C422.445 50.975 422.73 51.085 422.94 51.305C423.15 51.525 423.255 51.79 423.255 52.1C423.255 52.41 423.15 52.675 422.94 52.895C422.73 53.115 422.445 53.225 422.085 53.225ZM424.95 62V54.425H426.78L426.69 56.285C427 55.595 427.4 55.095 427.89 54.785C428.39 54.465 428.925 54.305 429.495 54.305C430.045 54.305 430.53 54.455 430.95 54.755C431.37 55.055 431.67 55.525 431.85 56.165C432.17 55.535 432.59 55.07 433.11 54.77C433.64 54.46 434.185 54.305 434.745 54.305C435.585 54.305 436.22 54.6 436.65 55.19C437.09 55.77 437.305 56.605 437.295 57.695L437.265 62H435.435L435.465 57.755C435.465 57.205 435.365 56.78 435.165 56.48C434.965 56.17 434.655 56.015 434.235 56.015C433.945 56.015 433.665 56.11 433.395 56.3C433.135 56.48 432.9 56.795 432.69 57.245C432.49 57.695 432.33 58.31 432.21 59.09C432.09 59.86 432.025 60.83 432.015 62H430.2V57.755C430.2 57.205 430.105 56.78 429.915 56.48C429.725 56.17 429.42 56.015 429 56.015C428.71 56.015 428.43 56.11 428.16 56.3C427.9 56.48 427.665 56.795 427.455 57.245C427.255 57.695 427.09 58.31 426.96 59.09C426.84 59.86 426.775 60.83 426.765 62H424.95ZM439.144 65V54.425H440.989L440.929 55.775C441.199 55.305 441.549 54.945 441.979 54.695C442.409 54.435 442.909 54.305 443.479 54.305C444.149 54.305 444.714 54.46 445.174 54.77C445.634 55.08 445.984 55.505 446.224 56.045C446.464 56.585 446.584 57.2 446.584 57.89C446.584 58.73 446.419 59.47 446.089 60.11C445.759 60.75 445.304 61.25 444.724 61.61C444.154 61.96 443.504 62.135 442.774 62.135C442.394 62.135 442.049 62.07 441.739 61.94C441.429 61.81 441.169 61.635 440.959 61.415L440.974 62V65H439.144ZM442.639 60.53C443.269 60.53 443.769 60.29 444.139 59.81C444.509 59.33 444.694 58.71 444.694 57.95C444.694 57.31 444.554 56.815 444.274 56.465C443.994 56.105 443.609 55.925 443.119 55.925C442.709 55.925 442.344 56.04 442.024 56.27C441.704 56.49 441.449 56.805 441.259 57.215C441.069 57.615 440.974 58.08 440.974 58.61C440.974 59.2 441.124 59.67 441.424 60.02C441.724 60.36 442.129 60.53 442.639 60.53ZM450.357 62.135C449.637 62.135 449.092 61.94 448.722 61.55C448.352 61.16 448.167 60.605 448.167 59.885V50.9H449.997V59.735C449.997 60.275 450.247 60.545 450.747 60.545C450.997 60.545 451.217 60.485 451.407 60.365L451.857 61.7C451.697 61.82 451.482 61.92 451.212 62C450.942 62.09 450.657 62.135 450.357 62.135ZM456.089 62.135C455.269 62.135 454.559 61.985 453.959 61.685C453.369 61.375 452.914 60.935 452.594 60.365C452.274 59.795 452.114 59.115 452.114 58.325C452.114 57.535 452.279 56.84 452.609 56.24C452.939 55.63 453.384 55.155 453.944 54.815C454.514 54.475 455.159 54.305 455.879 54.305C457.049 54.305 457.909 54.705 458.459 55.505C459.019 56.295 459.214 57.39 459.044 58.79H453.974C454.014 59.32 454.229 59.745 454.619 60.065C455.009 60.385 455.544 60.545 456.224 60.545C456.544 60.545 456.864 60.475 457.184 60.335C457.514 60.195 457.794 59.98 458.024 59.69L459.089 60.77C458.749 61.2 458.334 61.535 457.844 61.775C457.364 62.015 456.779 62.135 456.089 62.135ZM455.909 55.685C455.399 55.685 454.979 55.845 454.649 56.165C454.319 56.485 454.109 56.915 454.019 57.455H457.469C457.489 56.835 457.354 56.385 457.064 56.105C456.774 55.825 456.389 55.685 455.909 55.685ZM460.619 62V54.425H462.449L462.359 56.285C462.669 55.595 463.069 55.095 463.559 54.785C464.059 54.465 464.594 54.305 465.164 54.305C465.714 54.305 466.199 54.455 466.619 54.755C467.039 55.055 467.339 55.525 467.519 56.165C467.839 55.535 468.259 55.07 468.779 54.77C469.309 54.46 469.854 54.305 470.414 54.305C471.254 54.305 471.889 54.6 472.319 55.19C472.759 55.77 472.974 56.605 472.964 57.695L472.934 62H471.104L471.134 57.755C471.134 57.205 471.034 56.78 470.834 56.48C470.634 56.17 470.324 56.015 469.904 56.015C469.614 56.015 469.334 56.11 469.064 56.3C468.804 56.48 468.569 56.795 468.359 57.245C468.159 57.695 467.999 58.31 467.879 59.09C467.759 59.86 467.694 60.83 467.684 62H465.869V57.755C465.869 57.205 465.774 56.78 465.584 56.48C465.394 56.17 465.089 56.015 464.669 56.015C464.379 56.015 464.099 56.11 463.829 56.3C463.569 56.48 463.334 56.795 463.124 57.245C462.924 57.695 462.759 58.31 462.629 59.09C462.509 59.86 462.444 60.83 462.434 62H460.619ZM478.428 62.135C477.608 62.135 476.898 61.985 476.298 61.685C475.708 61.375 475.253 60.935 474.933 60.365C474.613 59.795 474.453 59.115 474.453 58.325C474.453 57.535 474.618 56.84 474.948 56.24C475.278 55.63 475.723 55.155 476.283 54.815C476.853 54.475 477.498 54.305 478.218 54.305C479.388 54.305 480.248 54.705 480.798 55.505C481.358 56.295 481.553 57.39 481.383 58.79H476.313C476.353 59.32 476.568 59.745 476.958 60.065C477.348 60.385 477.883 60.545 478.563 60.545C478.883 60.545 479.203 60.475 479.523 60.335C479.853 60.195 480.133 59.98 480.363 59.69L481.428 60.77C481.088 61.2 480.673 61.535 480.183 61.775C479.703 62.015 479.118 62.135 478.428 62.135ZM478.248 55.685C477.738 55.685 477.318 55.845 476.988 56.165C476.658 56.485 476.448 56.915 476.358 57.455H479.808C479.828 56.835 479.693 56.385 479.403 56.105C479.113 55.825 478.728 55.685 478.248 55.685ZM482.957 62V54.425H484.787L484.697 56.33C484.987 55.68 485.382 55.18 485.882 54.83C486.382 54.48 486.952 54.305 487.592 54.305C488.442 54.305 489.082 54.6 489.512 55.19C489.952 55.77 490.167 56.605 490.157 57.695L490.127 62H488.297L488.327 57.845C488.337 57.255 488.242 56.805 488.042 56.495C487.852 56.175 487.542 56.015 487.112 56.015C486.782 56.015 486.477 56.11 486.197 56.3C485.917 56.49 485.672 56.815 485.462 57.275C485.252 57.725 485.087 58.34 484.967 59.12C484.847 59.89 484.782 60.85 484.772 62H482.957ZM495.206 62.135C494.296 62.135 493.586 61.885 493.076 61.385C492.576 60.885 492.331 60.23 492.341 59.42L492.401 55.955H491.111V54.425H492.431L492.446 52.865H494.276L494.246 54.425H496.721V55.955H494.231L494.186 59.225C494.176 59.635 494.276 59.96 494.486 60.2C494.706 60.43 495.031 60.545 495.461 60.545C495.691 60.545 495.906 60.515 496.106 60.455C496.306 60.395 496.516 60.285 496.736 60.125L497.276 61.535C497.046 61.735 496.751 61.885 496.391 61.985C496.031 62.085 495.636 62.135 495.206 62.135ZM505.008 54.455V62H503.148L503.208 60.68C502.938 61.14 502.583 61.5 502.143 61.76C501.713 62.01 501.218 62.135 500.658 62.135C499.998 62.135 499.438 61.985 498.978 61.685C498.518 61.375 498.168 60.95 497.928 60.41C497.688 59.87 497.568 59.25 497.568 58.55C497.568 57.71 497.733 56.975 498.063 56.345C498.393 55.705 498.843 55.205 499.413 54.845C499.993 54.485 500.643 54.305 501.363 54.305C501.843 54.305 502.268 54.41 502.638 54.62C503.008 54.82 503.293 55.09 503.493 55.43L503.673 54.455H505.008ZM501.498 55.925C500.878 55.925 500.383 56.16 500.013 56.63C499.643 57.1 499.458 57.715 499.458 58.475C499.458 59.125 499.598 59.63 499.878 59.99C500.158 60.35 500.543 60.53 501.033 60.53C501.433 60.53 501.793 60.415 502.113 60.185C502.443 59.955 502.703 59.635 502.893 59.225C503.083 58.815 503.178 58.345 503.178 57.815C503.178 57.225 503.028 56.765 502.728 56.435C502.428 56.095 502.018 55.925 501.498 55.925ZM510.162 62.135C509.252 62.135 508.542 61.885 508.032 61.385C507.532 60.885 507.287 60.23 507.297 59.42L507.357 55.955H506.067V54.425H507.387L507.402 52.865H509.232L509.202 54.425H511.677V55.955H509.187L509.142 59.225C509.132 59.635 509.232 59.96 509.442 60.2C509.662 60.43 509.987 60.545 510.417 60.545C510.647 60.545 510.862 60.515 511.062 60.455C511.262 60.395 511.472 60.285 511.692 60.125L512.232 61.535C512.002 61.735 511.707 61.885 511.347 61.985C510.987 62.085 510.592 62.135 510.162 62.135ZM514.861 54.425V62H513.031V54.425H514.861ZM513.946 53.225C513.586 53.225 513.301 53.115 513.091 52.895C512.881 52.675 512.776 52.41 512.776 52.1C512.776 51.79 512.881 51.525 513.091 51.305C513.301 51.085 513.586 50.975 513.946 50.975C514.306 50.975 514.591 51.085 514.801 51.305C515.011 51.525 515.116 51.79 515.116 52.1C515.116 52.41 515.011 52.675 514.801 52.895C514.591 53.115 514.306 53.225 513.946 53.225ZM520.365 54.305C521.495 54.305 522.38 54.645 523.02 55.325C523.67 55.995 523.995 56.905 523.995 58.055C523.995 58.835 523.83 59.535 523.5 60.155C523.18 60.765 522.725 61.25 522.135 61.61C521.545 61.96 520.86 62.135 520.08 62.135C518.95 62.135 518.06 61.8 517.41 61.13C516.77 60.46 516.45 59.545 516.45 58.385C516.45 57.605 516.61 56.91 516.93 56.3C517.26 55.68 517.715 55.195 518.295 54.845C518.885 54.485 519.575 54.305 520.365 54.305ZM520.14 60.53C520.73 60.53 521.205 60.305 521.565 59.855C521.925 59.405 522.105 58.805 522.105 58.055C522.105 57.375 521.945 56.85 521.625 56.48C521.315 56.11 520.885 55.925 520.335 55.925C519.725 55.925 519.24 56.15 518.88 56.6C518.52 57.05 518.34 57.645 518.34 58.385C518.34 59.065 518.495 59.595 518.805 59.975C519.125 60.345 519.57 60.53 520.14 60.53ZM525.584 62V54.425H527.414L527.324 56.33C527.614 55.68 528.009 55.18 528.509 54.83C529.009 54.48 529.579 54.305 530.219 54.305C531.069 54.305 531.709 54.6 532.139 55.19C532.579 55.77 532.794 56.605 532.784 57.695L532.754 62H530.924L530.954 57.845C530.964 57.255 530.869 56.805 530.669 56.495C530.479 56.175 530.169 56.015 529.739 56.015C529.409 56.015 529.104 56.11 528.824 56.3C528.544 56.49 528.299 56.815 528.089 57.275C527.879 57.725 527.714 58.34 527.594 59.12C527.474 59.89 527.409 60.85 527.399 62H525.584ZM95.975 87V79.425H97.805L97.715 81.285C98.025 80.595 98.425 80.095 98.915 79.785C99.415 79.465 99.95 79.305 100.52 79.305C101.07 79.305 101.555 79.455 101.975 79.755C102.395 80.055 102.695 80.525 102.875 81.165C103.195 80.535 103.615 80.07 104.135 79.77C104.665 79.46 105.21 79.305 105.77 79.305C106.61 79.305 107.245 79.6 107.675 80.19C108.115 80.77 108.33 81.605 108.32 82.695L108.29 87H106.46L106.49 82.755C106.49 82.205 106.39 81.78 106.19 81.48C105.99 81.17 105.68 81.015 105.26 81.015C104.97 81.015 104.69 81.11 104.42 81.3C104.16 81.48 103.925 81.795 103.715 82.245C103.515 82.695 103.355 83.31 103.235 84.09C103.115 84.86 103.05 85.83 103.04 87H101.225V82.755C101.225 82.205 101.13 81.78 100.94 81.48C100.75 81.17 100.445 81.015 100.025 81.015C99.735 81.015 99.455 81.11 99.185 81.3C98.925 81.48 98.69 81.795 98.48 82.245C98.28 82.695 98.115 83.31 97.985 84.09C97.865 84.86 97.8 85.83 97.79 87H95.975ZM113.784 87.135C112.964 87.135 112.254 86.985 111.654 86.685C111.064 86.375 110.609 85.935 110.289 85.365C109.969 84.795 109.809 84.115 109.809 83.325C109.809 82.535 109.974 81.84 110.304 81.24C110.634 80.63 111.079 80.155 111.639 79.815C112.209 79.475 112.854 79.305 113.574 79.305C114.744 79.305 115.604 79.705 116.154 80.505C116.714 81.295 116.909 82.39 116.739 83.79H111.669C111.709 84.32 111.924 84.745 112.314 85.065C112.704 85.385 113.239 85.545 113.919 85.545C114.239 85.545 114.559 85.475 114.879 85.335C115.209 85.195 115.489 84.98 115.719 84.69L116.784 85.77C116.444 86.2 116.029 86.535 115.539 86.775C115.059 87.015 114.474 87.135 113.784 87.135ZM113.604 80.685C113.094 80.685 112.674 80.845 112.344 81.165C112.014 81.485 111.804 81.915 111.714 82.455H115.164C115.184 81.835 115.049 81.385 114.759 81.105C114.469 80.825 114.084 80.685 113.604 80.685ZM125.394 79.455V87H123.534L123.594 85.68C123.324 86.14 122.969 86.5 122.529 86.76C122.099 87.01 121.604 87.135 121.044 87.135C120.384 87.135 119.824 86.985 119.364 86.685C118.904 86.375 118.554 85.95 118.314 85.41C118.074 84.87 117.954 84.25 117.954 83.55C117.954 82.71 118.119 81.975 118.449 81.345C118.779 80.705 119.229 80.205 119.799 79.845C120.379 79.485 121.029 79.305 121.749 79.305C122.229 79.305 122.654 79.41 123.024 79.62C123.394 79.82 123.679 80.09 123.879 80.43L124.059 79.455H125.394ZM121.884 80.925C121.264 80.925 120.769 81.16 120.399 81.63C120.029 82.1 119.844 82.715 119.844 83.475C119.844 84.125 119.984 84.63 120.264 84.99C120.544 85.35 120.929 85.53 121.419 85.53C121.819 85.53 122.179 85.415 122.499 85.185C122.829 84.955 123.089 84.635 123.279 84.225C123.469 83.815 123.564 83.345 123.564 82.815C123.564 82.225 123.414 81.765 123.114 81.435C122.814 81.095 122.404 80.925 121.884 80.925ZM127.337 87V79.425H129.167L129.077 81.33C129.367 80.68 129.762 80.18 130.262 79.83C130.762 79.48 131.332 79.305 131.972 79.305C132.822 79.305 133.462 79.6 133.892 80.19C134.332 80.77 134.547 81.605 134.537 82.695L134.507 87H132.677L132.707 82.845C132.717 82.255 132.622 81.805 132.422 81.495C132.232 81.175 131.922 81.015 131.492 81.015C131.162 81.015 130.857 81.11 130.577 81.3C130.297 81.49 130.052 81.815 129.842 82.275C129.632 82.725 129.467 83.34 129.347 84.12C129.227 84.89 129.162 85.85 129.152 87H127.337ZM138.205 79.425V87H136.375V79.425H138.205ZM137.29 78.225C136.93 78.225 136.645 78.115 136.435 77.895C136.225 77.675 136.12 77.41 136.12 77.1C136.12 76.79 136.225 76.525 136.435 76.305C136.645 76.085 136.93 75.975 137.29 75.975C137.65 75.975 137.935 76.085 138.145 76.305C138.355 76.525 138.46 76.79 138.46 77.1C138.46 77.41 138.355 77.675 138.145 77.895C137.935 78.115 137.65 78.225 137.29 78.225ZM140.155 87V79.425H141.985L141.895 81.33C142.185 80.68 142.58 80.18 143.08 79.83C143.58 79.48 144.15 79.305 144.79 79.305C145.64 79.305 146.28 79.6 146.71 80.19C147.15 80.77 147.365 81.605 147.355 82.695L147.325 87H145.495L145.525 82.845C145.535 82.255 145.44 81.805 145.24 81.495C145.05 81.175 144.74 81.015 144.31 81.015C143.98 81.015 143.675 81.11 143.395 81.3C143.115 81.49 142.87 81.815 142.66 82.275C142.45 82.725 142.285 83.34 142.165 84.12C142.045 84.89 141.98 85.85 141.97 87H140.155ZM151.923 90.15C151.483 90.15 151.008 90.105 150.498 90.015C149.998 89.925 149.583 89.775 149.253 89.565L149.703 87.975C150.033 88.145 150.388 88.28 150.768 88.38C151.158 88.48 151.573 88.53 152.013 88.53C152.903 88.53 153.533 88.32 153.903 87.9C154.273 87.48 154.478 86.82 154.518 85.92L154.548 85.455C154.268 85.925 153.913 86.285 153.483 86.535C153.063 86.775 152.568 86.895 151.998 86.895C151.318 86.895 150.738 86.75 150.258 86.46C149.788 86.17 149.433 85.765 149.193 85.245C148.953 84.725 148.833 84.13 148.833 83.46C148.833 82.65 148.993 81.935 149.313 81.315C149.643 80.685 150.093 80.195 150.663 79.845C151.243 79.485 151.908 79.305 152.658 79.305C153.158 79.305 153.593 79.41 153.963 79.62C154.333 79.82 154.618 80.09 154.818 80.43L154.998 79.455H156.333V85.695C156.333 87.185 155.943 88.3 155.163 89.04C154.383 89.78 153.303 90.15 151.923 90.15ZM152.793 80.925C152.163 80.925 151.658 81.15 151.278 81.6C150.908 82.05 150.723 82.63 150.723 83.34C150.723 83.96 150.868 84.44 151.158 84.78C151.448 85.12 151.843 85.29 152.343 85.29C152.753 85.29 153.118 85.18 153.438 84.96C153.768 84.73 154.028 84.42 154.218 84.03C154.408 83.64 154.503 83.2 154.503 82.71C154.503 82.15 154.348 81.715 154.038 81.405C153.728 81.085 153.313 80.925 152.793 80.925ZM165.492 79.305C166.622 79.305 167.507 79.645 168.147 80.325C168.797 80.995 169.122 81.905 169.122 83.055C169.122 83.835 168.957 84.535 168.627 85.155C168.307 85.765 167.852 86.25 167.262 86.61C166.672 86.96 165.987 87.135 165.207 87.135C164.077 87.135 163.187 86.8 162.537 86.13C161.897 85.46 161.577 84.545 161.577 83.385C161.577 82.605 161.737 81.91 162.057 81.3C162.387 80.68 162.842 80.195 163.422 79.845C164.012 79.485 164.702 79.305 165.492 79.305ZM165.267 85.53C165.857 85.53 166.332 85.305 166.692 84.855C167.052 84.405 167.232 83.805 167.232 83.055C167.232 82.375 167.072 81.85 166.752 81.48C166.442 81.11 166.012 80.925 165.462 80.925C164.852 80.925 164.367 81.15 164.007 81.6C163.647 82.05 163.467 82.645 163.467 83.385C163.467 84.065 163.622 84.595 163.932 84.975C164.252 85.345 164.697 85.53 165.267 85.53ZM173.126 87.135C172.286 87.135 171.651 86.85 171.221 86.28C170.801 85.71 170.596 84.92 170.606 83.91L170.636 79.425H172.466L172.436 83.745C172.426 84.265 172.516 84.675 172.706 84.975C172.896 85.275 173.196 85.425 173.606 85.425C173.926 85.425 174.221 85.33 174.491 85.14C174.771 84.95 175.011 84.63 175.211 84.18C175.411 83.72 175.566 83.105 175.676 82.335C175.796 81.555 175.856 80.585 175.856 79.425H177.626V87H175.781L175.886 85.275C175.586 85.885 175.196 86.35 174.716 86.67C174.246 86.98 173.716 87.135 173.126 87.135ZM184.434 81.195C184.234 81.125 183.979 81.09 183.669 81.09C183.129 81.09 182.694 81.29 182.364 81.69C182.034 82.08 181.789 82.71 181.629 83.58C181.479 84.44 181.404 85.58 181.404 87H179.589V82.11L179.574 79.425H181.404L181.314 81.54C181.574 80.73 181.934 80.155 182.394 79.815C182.864 79.475 183.364 79.305 183.894 79.305C184.054 79.305 184.204 79.315 184.344 79.335C184.484 79.355 184.614 79.385 184.734 79.425L184.434 81.195ZM192.554 87.135C191.644 87.135 190.934 86.885 190.424 86.385C189.924 85.885 189.679 85.23 189.689 84.42L189.749 80.955H188.459V79.425H189.779L189.794 77.865H191.624L191.594 79.425H194.069V80.955H191.579L191.534 84.225C191.524 84.635 191.624 84.96 191.834 85.2C192.054 85.43 192.379 85.545 192.809 85.545C193.039 85.545 193.254 85.515 193.454 85.455C193.654 85.395 193.864 85.285 194.084 85.125L194.624 86.535C194.394 86.735 194.099 86.885 193.739 86.985C193.379 87.085 192.984 87.135 192.554 87.135ZM198.892 87.135C198.072 87.135 197.362 86.985 196.762 86.685C196.172 86.375 195.717 85.935 195.397 85.365C195.077 84.795 194.917 84.115 194.917 83.325C194.917 82.535 195.082 81.84 195.412 81.24C195.742 80.63 196.187 80.155 196.747 79.815C197.317 79.475 197.962 79.305 198.682 79.305C199.852 79.305 200.712 79.705 201.262 80.505C201.822 81.295 202.017 82.39 201.847 83.79H196.777C196.817 84.32 197.032 84.745 197.422 85.065C197.812 85.385 198.347 85.545 199.027 85.545C199.347 85.545 199.667 85.475 199.987 85.335C200.317 85.195 200.597 84.98 200.827 84.69L201.892 85.77C201.552 86.2 201.137 86.535 200.647 86.775C200.167 87.015 199.582 87.135 198.892 87.135ZM198.712 80.685C198.202 80.685 197.782 80.845 197.452 81.165C197.122 81.485 196.912 81.915 196.822 82.455H200.272C200.292 81.835 200.157 81.385 199.867 81.105C199.577 80.825 199.192 80.685 198.712 80.685ZM210.501 79.455V87H208.641L208.701 85.68C208.431 86.14 208.076 86.5 207.636 86.76C207.206 87.01 206.711 87.135 206.151 87.135C205.491 87.135 204.931 86.985 204.471 86.685C204.011 86.375 203.661 85.95 203.421 85.41C203.181 84.87 203.061 84.25 203.061 83.55C203.061 82.71 203.226 81.975 203.556 81.345C203.886 80.705 204.336 80.205 204.906 79.845C205.486 79.485 206.136 79.305 206.856 79.305C207.336 79.305 207.761 79.41 208.131 79.62C208.501 79.82 208.786 80.09 208.986 80.43L209.166 79.455H210.501ZM206.991 80.925C206.371 80.925 205.876 81.16 205.506 81.63C205.136 82.1 204.951 82.715 204.951 83.475C204.951 84.125 205.091 84.63 205.371 84.99C205.651 85.35 206.036 85.53 206.526 85.53C206.926 85.53 207.286 85.415 207.606 85.185C207.936 84.955 208.196 84.635 208.386 84.225C208.576 83.815 208.671 83.345 208.671 82.815C208.671 82.225 208.521 81.765 208.221 81.435C207.921 81.095 207.511 80.925 206.991 80.925ZM212.445 87V79.425H214.275L214.185 81.285C214.495 80.595 214.895 80.095 215.385 79.785C215.885 79.465 216.42 79.305 216.99 79.305C217.54 79.305 218.025 79.455 218.445 79.755C218.865 80.055 219.165 80.525 219.345 81.165C219.665 80.535 220.085 80.07 220.605 79.77C221.135 79.46 221.68 79.305 222.24 79.305C223.08 79.305 223.715 79.6 224.145 80.19C224.585 80.77 224.8 81.605 224.79 82.695L224.76 87H222.93L222.96 82.755C222.96 82.205 222.86 81.78 222.66 81.48C222.46 81.17 222.15 81.015 221.73 81.015C221.44 81.015 221.16 81.11 220.89 81.3C220.63 81.48 220.395 81.795 220.185 82.245C219.985 82.695 219.825 83.31 219.705 84.09C219.585 84.86 219.52 85.83 219.51 87H217.695V82.755C217.695 82.205 217.6 81.78 217.41 81.48C217.22 81.17 216.915 81.015 216.495 81.015C216.205 81.015 215.925 81.11 215.655 81.3C215.395 81.48 215.16 81.795 214.95 82.245C214.75 82.695 214.585 83.31 214.455 84.09C214.335 84.86 214.27 85.83 214.26 87H212.445ZM229.294 87.135C228.254 87.135 227.459 86.94 226.909 86.55C226.359 86.15 226.039 85.595 225.949 84.885L227.494 84.51C227.554 84.89 227.729 85.185 228.019 85.395C228.309 85.595 228.724 85.695 229.264 85.695C229.704 85.695 230.034 85.625 230.254 85.485C230.484 85.345 230.599 85.155 230.599 84.915C230.599 84.675 230.474 84.49 230.224 84.36C229.984 84.23 229.609 84.115 229.099 84.015C228.529 83.905 228.039 83.765 227.629 83.595C227.229 83.425 226.919 83.195 226.699 82.905C226.489 82.605 226.384 82.215 226.384 81.735C226.384 81.275 226.514 80.865 226.774 80.505C227.034 80.135 227.389 79.845 227.839 79.635C228.299 79.415 228.824 79.305 229.414 79.305C230.204 79.305 230.849 79.49 231.349 79.86C231.859 80.23 232.164 80.705 232.264 81.285L230.749 81.69C230.679 81.4 230.529 81.175 230.299 81.015C230.069 80.845 229.759 80.76 229.369 80.76C228.979 80.76 228.679 80.84 228.469 81C228.269 81.16 228.169 81.36 228.169 81.6C228.169 81.84 228.284 82.03 228.514 82.17C228.754 82.3 229.159 82.425 229.729 82.545C230.259 82.655 230.719 82.795 231.109 82.965C231.509 83.125 231.824 83.35 232.054 83.64C232.284 83.92 232.399 84.3 232.399 84.78C232.399 85.25 232.264 85.665 231.994 86.025C231.734 86.375 231.369 86.65 230.899 86.85C230.429 87.04 229.894 87.135 229.294 87.135ZM244.442 79.455V87H242.582L242.642 85.68C242.372 86.14 242.017 86.5 241.577 86.76C241.147 87.01 240.652 87.135 240.092 87.135C239.432 87.135 238.872 86.985 238.412 86.685C237.952 86.375 237.602 85.95 237.362 85.41C237.122 84.87 237.002 84.25 237.002 83.55C237.002 82.71 237.167 81.975 237.497 81.345C237.827 80.705 238.277 80.205 238.847 79.845C239.427 79.485 240.077 79.305 240.797 79.305C241.277 79.305 241.702 79.41 242.072 79.62C242.442 79.82 242.727 80.09 242.927 80.43L243.107 79.455H244.442ZM240.932 80.925C240.312 80.925 239.817 81.16 239.447 81.63C239.077 82.1 238.892 82.715 238.892 83.475C238.892 84.125 239.032 84.63 239.312 84.99C239.592 85.35 239.977 85.53 240.467 85.53C240.867 85.53 241.227 85.415 241.547 85.185C241.877 84.955 242.137 84.635 242.327 84.225C242.517 83.815 242.612 83.345 242.612 82.815C242.612 82.225 242.462 81.765 242.162 81.435C241.862 81.095 241.452 80.925 240.932 80.925ZM248.575 87.135C247.855 87.135 247.31 86.94 246.94 86.55C246.57 86.16 246.385 85.605 246.385 84.885V75.9H248.215V84.735C248.215 85.275 248.465 85.545 248.965 85.545C249.215 85.545 249.435 85.485 249.625 85.365L250.075 86.7C249.915 86.82 249.7 86.92 249.43 87C249.16 87.09 248.875 87.135 248.575 87.135ZM260.732 79.425H262.547L259.862 87H257.612L256.127 81.945L254.357 87H252.107L249.722 79.425H251.627L253.307 85.215L255.287 79.425H257.087L258.752 85.26L260.732 79.425ZM270.311 79.455V87H268.451L268.511 85.68C268.241 86.14 267.886 86.5 267.446 86.76C267.016 87.01 266.521 87.135 265.961 87.135C265.301 87.135 264.741 86.985 264.281 86.685C263.821 86.375 263.471 85.95 263.231 85.41C262.991 84.87 262.871 84.25 262.871 83.55C262.871 82.71 263.036 81.975 263.366 81.345C263.696 80.705 264.146 80.205 264.716 79.845C265.296 79.485 265.946 79.305 266.666 79.305C267.146 79.305 267.571 79.41 267.941 79.62C268.311 79.82 268.596 80.09 268.796 80.43L268.976 79.455H270.311ZM266.801 80.925C266.181 80.925 265.686 81.16 265.316 81.63C264.946 82.1 264.761 82.715 264.761 83.475C264.761 84.125 264.901 84.63 265.181 84.99C265.461 85.35 265.846 85.53 266.336 85.53C266.736 85.53 267.096 85.415 267.416 85.185C267.746 84.955 268.006 84.635 268.196 84.225C268.386 83.815 268.481 83.345 268.481 82.815C268.481 82.225 268.331 81.765 268.031 81.435C267.731 81.095 267.321 80.925 266.801 80.925ZM274.909 90.15C274.459 90.15 273.979 90.105 273.469 90.015C272.969 89.925 272.554 89.775 272.224 89.565L272.674 87.975C273.014 88.145 273.374 88.28 273.754 88.38C274.134 88.48 274.549 88.53 274.999 88.53C275.879 88.53 276.504 88.32 276.874 87.9C277.244 87.49 277.449 86.83 277.489 85.92L277.549 84.93C277.249 85.57 276.849 86.06 276.349 86.4C275.859 86.73 275.309 86.895 274.699 86.895C273.849 86.895 273.209 86.61 272.779 86.04C272.349 85.47 272.139 84.68 272.149 83.67L272.179 79.425H274.009L273.979 83.52C273.979 84.04 274.069 84.45 274.249 84.75C274.439 85.04 274.744 85.185 275.164 85.185C275.624 85.185 276.024 85.01 276.364 84.66C276.704 84.3 276.969 83.705 277.159 82.875C277.359 82.035 277.464 80.885 277.474 79.425H279.244V85.695C279.244 87.215 278.864 88.335 278.104 89.055C277.344 89.785 276.279 90.15 274.909 90.15ZM283.845 87.135C282.805 87.135 282.01 86.94 281.46 86.55C280.91 86.15 280.59 85.595 280.5 84.885L282.045 84.51C282.105 84.89 282.28 85.185 282.57 85.395C282.86 85.595 283.275 85.695 283.815 85.695C284.255 85.695 284.585 85.625 284.805 85.485C285.035 85.345 285.15 85.155 285.15 84.915C285.15 84.675 285.025 84.49 284.775 84.36C284.535 84.23 284.16 84.115 283.65 84.015C283.08 83.905 282.59 83.765 282.18 83.595C281.78 83.425 281.47 83.195 281.25 82.905C281.04 82.605 280.935 82.215 280.935 81.735C280.935 81.275 281.065 80.865 281.325 80.505C281.585 80.135 281.94 79.845 282.39 79.635C282.85 79.415 283.375 79.305 283.965 79.305C284.755 79.305 285.4 79.49 285.9 79.86C286.41 80.23 286.715 80.705 286.815 81.285L285.3 81.69C285.23 81.4 285.08 81.175 284.85 81.015C284.62 80.845 284.31 80.76 283.92 80.76C283.53 80.76 283.23 80.84 283.02 81C282.82 81.16 282.72 81.36 282.72 81.6C282.72 81.84 282.835 82.03 283.065 82.17C283.305 82.3 283.71 82.425 284.28 82.545C284.81 82.655 285.27 82.795 285.66 82.965C286.06 83.125 286.375 83.35 286.605 83.64C286.835 83.92 286.95 84.3 286.95 84.78C286.95 85.25 286.815 85.665 286.545 86.025C286.285 86.375 285.92 86.65 285.45 86.85C284.98 87.04 284.445 87.135 283.845 87.135ZM298.993 75.9V87H297.133L297.193 85.68C296.923 86.15 296.573 86.51 296.143 86.76C295.713 87.01 295.213 87.135 294.643 87.135C293.983 87.135 293.423 86.985 292.963 86.685C292.503 86.375 292.153 85.95 291.913 85.41C291.673 84.87 291.553 84.25 291.553 83.55C291.553 82.71 291.718 81.975 292.048 81.345C292.378 80.705 292.828 80.205 293.398 79.845C293.978 79.485 294.628 79.305 295.347 79.305C295.728 79.305 296.073 79.37 296.383 79.5C296.703 79.63 296.968 79.81 297.178 80.04L297.163 79.425V75.9H298.993ZM295.483 80.925C294.863 80.925 294.368 81.16 293.998 81.63C293.628 82.1 293.443 82.715 293.443 83.475C293.443 84.125 293.583 84.63 293.863 84.99C294.143 85.35 294.528 85.53 295.018 85.53C295.418 85.53 295.778 85.415 296.098 85.185C296.428 84.955 296.688 84.635 296.878 84.225C297.068 83.815 297.163 83.345 297.163 82.815C297.163 82.225 297.013 81.765 296.713 81.435C296.413 81.095 296.003 80.925 295.483 80.925ZM304.551 87.135C303.731 87.135 303.021 86.985 302.421 86.685C301.831 86.375 301.376 85.935 301.056 85.365C300.736 84.795 300.576 84.115 300.576 83.325C300.576 82.535 300.741 81.84 301.071 81.24C301.401 80.63 301.846 80.155 302.406 79.815C302.976 79.475 303.621 79.305 304.341 79.305C305.511 79.305 306.371 79.705 306.921 80.505C307.481 81.295 307.676 82.39 307.506 83.79H302.436C302.476 84.32 302.691 84.745 303.081 85.065C303.471 85.385 304.006 85.545 304.686 85.545C305.006 85.545 305.326 85.475 305.646 85.335C305.976 85.195 306.256 84.98 306.486 84.69L307.551 85.77C307.211 86.2 306.796 86.535 306.306 86.775C305.826 87.015 305.241 87.135 304.551 87.135ZM304.371 80.685C303.861 80.685 303.441 80.845 303.111 81.165C302.781 81.485 302.571 81.915 302.481 82.455H305.931C305.951 81.835 305.816 81.385 305.526 81.105C305.236 80.825 304.851 80.685 304.371 80.685ZM311.27 87.135C310.55 87.135 310.005 86.94 309.635 86.55C309.265 86.16 309.08 85.605 309.08 84.885V75.9H310.91V84.735C310.91 85.275 311.16 85.545 311.66 85.545C311.91 85.545 312.13 85.485 312.32 85.365L312.77 86.7C312.61 86.82 312.395 86.92 312.125 87C311.855 87.09 311.57 87.135 311.27 87.135ZM315.29 79.425V87H313.46V79.425H315.29ZM314.375 78.225C314.015 78.225 313.73 78.115 313.52 77.895C313.31 77.675 313.205 77.41 313.205 77.1C313.205 76.79 313.31 76.525 313.52 76.305C313.73 76.085 314.015 75.975 314.375 75.975C314.735 75.975 315.02 76.085 315.23 76.305C315.44 76.525 315.545 76.79 315.545 77.1C315.545 77.41 315.44 77.675 315.23 77.895C315.02 78.115 314.735 78.225 314.375 78.225ZM322.475 79.425H324.305L321.47 87H318.86L316.46 79.425H318.44L320.27 85.515L322.475 79.425ZM328.501 87.135C327.681 87.135 326.971 86.985 326.371 86.685C325.781 86.375 325.326 85.935 325.006 85.365C324.686 84.795 324.526 84.115 324.526 83.325C324.526 82.535 324.691 81.84 325.021 81.24C325.351 80.63 325.796 80.155 326.356 79.815C326.926 79.475 327.571 79.305 328.291 79.305C329.461 79.305 330.321 79.705 330.871 80.505C331.431 81.295 331.626 82.39 331.456 83.79H326.386C326.426 84.32 326.641 84.745 327.031 85.065C327.421 85.385 327.956 85.545 328.636 85.545C328.956 85.545 329.276 85.475 329.596 85.335C329.926 85.195 330.206 84.98 330.436 84.69L331.501 85.77C331.161 86.2 330.746 86.535 330.256 86.775C329.776 87.015 329.191 87.135 328.501 87.135ZM328.321 80.685C327.811 80.685 327.391 80.845 327.061 81.165C326.731 81.485 326.521 81.915 326.431 82.455H329.881C329.901 81.835 329.766 81.385 329.476 81.105C329.186 80.825 328.801 80.685 328.321 80.685ZM337.891 81.195C337.691 81.125 337.436 81.09 337.126 81.09C336.586 81.09 336.151 81.29 335.821 81.69C335.491 82.08 335.246 82.71 335.086 83.58C334.936 84.44 334.861 85.58 334.861 87H333.046V82.11L333.031 79.425H334.861L334.771 81.54C335.031 80.73 335.391 80.155 335.851 79.815C336.321 79.475 336.821 79.305 337.351 79.305C337.511 79.305 337.661 79.315 337.801 79.335C337.941 79.355 338.071 79.385 338.191 79.425L337.891 81.195ZM339.583 87.135C339.193 87.135 338.883 87.015 338.653 86.775C338.423 86.535 338.308 86.24 338.308 85.89C338.308 85.54 338.423 85.245 338.653 85.005C338.883 84.765 339.193 84.645 339.583 84.645C339.973 84.645 340.283 84.765 340.513 85.005C340.743 85.245 340.858 85.54 340.858 85.89C340.858 86.24 340.743 86.535 340.513 86.775C340.283 87.015 339.973 87.135 339.583 87.135Z" fill="white"/>
<path d="M104.954 10.758H99.086V13.296H104.576V15.834H99.086V18.462H105.134L104.954 21H96.206V8.22H104.954V10.758ZM115.345 11.874V21H112.573L112.663 19.632C112.003 20.664 111.025 21.18 109.729 21.18C108.913 21.18 108.217 20.994 107.641 20.622C107.065 20.25 106.627 19.734 106.327 19.074C106.027 18.414 105.877 17.658 105.877 16.806C105.877 15.786 106.087 14.892 106.507 14.124C106.927 13.356 107.491 12.762 108.199 12.342C108.907 11.91 109.699 11.694 110.575 11.694C111.151 11.694 111.661 11.814 112.105 12.054C112.549 12.282 112.891 12.588 113.131 12.972L113.365 11.874H115.345ZM110.845 14.088C110.185 14.088 109.663 14.334 109.279 14.826C108.907 15.318 108.721 15.948 108.721 16.716C108.721 17.376 108.865 17.886 109.153 18.246C109.453 18.606 109.855 18.786 110.359 18.786C110.971 18.786 111.493 18.534 111.925 18.03C112.369 17.526 112.591 16.866 112.591 16.05C112.591 15.438 112.435 14.958 112.123 14.61C111.811 14.262 111.385 14.088 110.845 14.088ZM120.838 21.18C119.506 21.18 118.498 20.934 117.814 20.442C117.13 19.938 116.728 19.278 116.608 18.462L118.894 17.886C118.966 18.234 119.164 18.516 119.488 18.732C119.812 18.936 120.256 19.038 120.82 19.038C121.72 19.038 122.17 18.828 122.17 18.408C122.17 18.192 122.038 18.03 121.774 17.922C121.522 17.802 121.108 17.688 120.532 17.58C119.452 17.388 118.612 17.082 118.012 16.662C117.424 16.242 117.13 15.6 117.13 14.736C117.13 14.148 117.298 13.626 117.634 13.17C117.97 12.714 118.432 12.354 119.02 12.09C119.608 11.826 120.286 11.694 121.054 11.694C122.05 11.694 122.872 11.928 123.52 12.396C124.18 12.864 124.57 13.44 124.69 14.124L122.44 14.736C122.356 14.472 122.188 14.256 121.936 14.088C121.696 13.92 121.366 13.836 120.946 13.836C120.55 13.836 120.256 13.902 120.064 14.034C119.884 14.166 119.794 14.322 119.794 14.502C119.794 14.718 119.92 14.892 120.172 15.024C120.424 15.144 120.868 15.27 121.504 15.402C122.152 15.522 122.722 15.69 123.214 15.906C123.718 16.11 124.108 16.398 124.384 16.77C124.672 17.13 124.816 17.622 124.816 18.246C124.816 18.834 124.642 19.35 124.294 19.794C123.958 20.238 123.49 20.58 122.89 20.82C122.29 21.06 121.606 21.18 120.838 21.18ZM129.502 24.78C129.13 24.78 128.734 24.75 128.314 24.69C127.894 24.642 127.486 24.564 127.09 24.456C126.706 24.348 126.382 24.204 126.118 24.024L126.766 21.684C127.186 21.888 127.624 22.05 128.08 22.17C128.548 22.302 129.076 22.368 129.664 22.368C130.66 22.368 131.368 22.14 131.788 21.684C132.22 21.228 132.466 20.514 132.526 19.542L132.58 18.804C132.208 19.44 131.74 19.938 131.176 20.298C130.612 20.646 129.976 20.82 129.268 20.82C128.188 20.82 127.378 20.46 126.838 19.74C126.298 19.02 126.034 18.012 126.046 16.716L126.082 11.838H128.836L128.8 16.518C128.8 17.058 128.896 17.484 129.088 17.796C129.28 18.108 129.592 18.264 130.024 18.264C130.516 18.264 130.942 18.066 131.302 17.67C131.662 17.274 131.944 16.614 132.148 15.69C132.352 14.754 132.466 13.47 132.49 11.838H135.154V19.218C135.154 21.138 134.644 22.542 133.624 23.43C132.616 24.33 131.242 24.78 129.502 24.78ZM145.922 21.18C144.794 21.18 143.9 20.868 143.24 20.244C142.58 19.608 142.256 18.774 142.268 17.742L142.34 14.124H140.828V11.838H142.376L142.394 9.966H145.13L145.112 11.838H147.974V14.124H145.076L145.022 17.436C145.022 17.868 145.136 18.204 145.364 18.444C145.592 18.684 145.934 18.804 146.39 18.804C146.654 18.804 146.906 18.774 147.146 18.714C147.398 18.642 147.656 18.51 147.92 18.318L148.712 20.424C148.1 20.928 147.17 21.18 145.922 21.18ZM153.806 11.694C155.234 11.694 156.35 12.102 157.154 12.918C157.97 13.734 158.378 14.838 158.378 16.23C158.378 17.178 158.174 18.024 157.766 18.768C157.358 19.512 156.782 20.1 156.038 20.532C155.294 20.964 154.418 21.18 153.41 21.18C151.994 21.18 150.878 20.772 150.062 19.956C149.258 19.14 148.856 18.042 148.856 16.662C148.856 15.702 149.06 14.85 149.468 14.106C149.876 13.362 150.452 12.774 151.196 12.342C151.94 11.91 152.81 11.694 153.806 11.694ZM153.536 18.786C154.148 18.786 154.634 18.558 154.994 18.102C155.366 17.634 155.552 17.01 155.552 16.23C155.552 15.558 155.39 15.036 155.066 14.664C154.742 14.28 154.298 14.088 153.734 14.088C153.11 14.088 152.612 14.322 152.24 14.79C151.88 15.246 151.7 15.864 151.7 16.644C151.7 17.316 151.856 17.844 152.168 18.228C152.492 18.6 152.948 18.786 153.536 18.786ZM164.726 21V8.22H167.66V21H164.726ZM169.925 21V11.838H172.661L172.553 13.728C172.937 13.02 173.417 12.504 173.993 12.18C174.569 11.856 175.181 11.694 175.829 11.694C176.465 11.694 177.035 11.856 177.539 12.18C178.043 12.492 178.427 13.002 178.691 13.71C179.099 13.026 179.615 12.522 180.239 12.198C180.875 11.862 181.517 11.694 182.165 11.694C183.245 11.694 184.055 12.066 184.595 12.81C185.135 13.542 185.399 14.598 185.387 15.978L185.351 21H182.597L182.633 16.032C182.633 15.48 182.531 15.048 182.327 14.736C182.123 14.412 181.811 14.25 181.391 14.25C181.067 14.25 180.761 14.352 180.473 14.556C180.197 14.76 179.951 15.114 179.735 15.618C179.519 16.122 179.345 16.812 179.213 17.688C179.093 18.564 179.021 19.668 178.997 21H176.261V16.032C176.261 15.48 176.165 15.048 175.973 14.736C175.781 14.412 175.475 14.25 175.055 14.25C174.731 14.25 174.425 14.352 174.137 14.556C173.861 14.76 173.615 15.114 173.399 15.618C173.183 16.122 173.009 16.812 172.877 17.688C172.745 18.564 172.673 19.668 172.661 21H169.925ZM187.345 24.6V11.838H190.117L190.027 13.242C190.687 12.21 191.665 11.694 192.961 11.694C193.777 11.694 194.473 11.88 195.049 12.252C195.625 12.624 196.063 13.14 196.363 13.8C196.663 14.46 196.813 15.216 196.813 16.068C196.813 17.088 196.603 17.982 196.183 18.75C195.763 19.518 195.199 20.118 194.491 20.55C193.783 20.97 192.991 21.18 192.115 21.18C191.695 21.18 191.311 21.12 190.963 21C190.627 20.88 190.327 20.712 190.063 20.496L190.099 21V24.6H187.345ZM191.827 18.786C192.487 18.786 193.009 18.54 193.393 18.048C193.777 17.544 193.969 16.908 193.969 16.14C193.969 15.492 193.819 14.988 193.519 14.628C193.231 14.268 192.835 14.088 192.331 14.088C191.719 14.088 191.191 14.34 190.747 14.844C190.315 15.348 190.099 16.008 190.099 16.824C190.099 17.424 190.255 17.904 190.567 18.264C190.879 18.612 191.299 18.786 191.827 18.786ZM201.352 21.18C200.428 21.18 199.714 20.928 199.21 20.424C198.718 19.908 198.472 19.164 198.472 18.192V7.68H201.226V17.994C201.226 18.546 201.484 18.822 202 18.822C202.276 18.822 202.51 18.756 202.702 18.624L203.368 20.586C203.164 20.754 202.882 20.892 202.522 21C202.162 21.12 201.772 21.18 201.352 21.18ZM208.457 21.18C207.437 21.18 206.555 20.994 205.811 20.622C205.067 20.238 204.491 19.704 204.083 19.02C203.675 18.324 203.471 17.502 203.471 16.554C203.471 15.594 203.675 14.748 204.083 14.016C204.503 13.284 205.061 12.714 205.757 12.306C206.465 11.898 207.263 11.694 208.151 11.694C209.159 11.694 209.981 11.922 210.617 12.378C211.253 12.834 211.691 13.482 211.931 14.322C212.183 15.15 212.237 16.116 212.093 17.22H206.279C206.351 17.676 206.591 18.06 206.999 18.372C207.407 18.672 207.965 18.822 208.673 18.822C208.997 18.822 209.339 18.756 209.699 18.624C210.059 18.48 210.365 18.27 210.617 17.994L212.147 19.614C211.751 20.094 211.259 20.478 210.671 20.766C210.095 21.042 209.357 21.18 208.457 21.18ZM208.205 13.692C207.725 13.692 207.317 13.836 206.981 14.124C206.657 14.412 206.441 14.814 206.333 15.33H209.771C209.783 14.766 209.645 14.352 209.357 14.088C209.081 13.824 208.697 13.692 208.205 13.692ZM213.783 21V11.838H216.519L216.411 13.728C216.795 13.02 217.275 12.504 217.851 12.18C218.427 11.856 219.039 11.694 219.687 11.694C220.323 11.694 220.893 11.856 221.397 12.18C221.901 12.492 222.285 13.002 222.549 13.71C222.957 13.026 223.473 12.522 224.097 12.198C224.733 11.862 225.375 11.694 226.023 11.694C227.103 11.694 227.913 12.066 228.453 12.81C228.993 13.542 229.257 14.598 229.245 15.978L229.209 21H226.455L226.491 16.032C226.491 15.48 226.389 15.048 226.185 14.736C225.981 14.412 225.669 14.25 225.249 14.25C224.925 14.25 224.619 14.352 224.331 14.556C224.055 14.76 223.809 15.114 223.593 15.618C223.377 16.122 223.203 16.812 223.071 17.688C222.951 18.564 222.879 19.668 222.855 21H220.119V16.032C220.119 15.48 220.023 15.048 219.831 14.736C219.639 14.412 219.333 14.25 218.913 14.25C218.589 14.25 218.283 14.352 217.995 14.556C217.719 14.76 217.473 15.114 217.257 15.618C217.041 16.122 216.867 16.812 216.735 17.688C216.603 18.564 216.531 19.668 216.519 21H213.783ZM235.721 21.18C234.701 21.18 233.819 20.994 233.075 20.622C232.331 20.238 231.755 19.704 231.347 19.02C230.939 18.324 230.735 17.502 230.735 16.554C230.735 15.594 230.939 14.748 231.347 14.016C231.767 13.284 232.325 12.714 233.021 12.306C233.729 11.898 234.527 11.694 235.415 11.694C236.423 11.694 237.245 11.922 237.881 12.378C238.517 12.834 238.955 13.482 239.195 14.322C239.447 15.15 239.501 16.116 239.357 17.22H233.543C233.615 17.676 233.855 18.06 234.263 18.372C234.671 18.672 235.229 18.822 235.937 18.822C236.261 18.822 236.603 18.756 236.963 18.624C237.323 18.48 237.629 18.27 237.881 17.994L239.411 19.614C239.015 20.094 238.523 20.478 237.935 20.766C237.359 21.042 236.621 21.18 235.721 21.18ZM235.469 13.692C234.989 13.692 234.581 13.836 234.245 14.124C233.921 14.412 233.705 14.814 233.597 15.33H237.035C237.047 14.766 236.909 14.352 236.621 14.088C236.345 13.824 235.961 13.692 235.469 13.692ZM241.046 21V11.838H243.782L243.656 13.8C244.028 13.128 244.502 12.612 245.078 12.252C245.666 11.88 246.32 11.694 247.04 11.694C248.132 11.694 248.948 12.066 249.488 12.81C250.028 13.542 250.292 14.598 250.28 15.978L250.244 21H247.49L247.526 16.176C247.538 15.552 247.442 15.078 247.238 14.754C247.046 14.418 246.734 14.25 246.302 14.25C245.942 14.25 245.612 14.358 245.312 14.574C245.012 14.778 244.748 15.132 244.52 15.636C244.304 16.14 244.13 16.83 243.998 17.706C243.866 18.582 243.794 19.68 243.782 21H241.046ZM256.383 21.18C255.255 21.18 254.361 20.868 253.701 20.244C253.041 19.608 252.717 18.774 252.729 17.742L252.801 14.124H251.289V11.838H252.837L252.855 9.966H255.591L255.573 11.838H258.435V14.124H255.537L255.483 17.436C255.483 17.868 255.597 18.204 255.825 18.444C256.053 18.684 256.395 18.804 256.851 18.804C257.115 18.804 257.367 18.774 257.607 18.714C257.859 18.642 258.117 18.51 258.381 18.318L259.173 20.424C258.561 20.928 257.631 21.18 256.383 21.18Z" fill="#F67E7E"/>
</g>
<circle cx="44" cy="44" r="28" fill="#2C6269"/>
<path fill-rule="evenodd" clip-rule="evenodd" d="M33.9062 53.8125C33.9062 55.0186 32.9249 56 31.7188 56H24.2812C23.0751 56 22.0938 55.0186 22.0938 53.8125V50.5471C20.0357 50.0092 18.0717 49.1948 16.2354 48.1177L13.9244 50.4287C13.0712 51.2815 11.6835 51.2815 10.8307 50.4287L5.57129 45.1693C4.71851 44.3165 4.71851 42.9288 5.57129 42.076L7.88226 39.7646C6.80518 37.9283 5.99084 35.9643 5.45294 33.9062H2.1875C0.981384 33.9062 0 32.9249 0 31.7188V24.2812C0 23.0751 0.981384 22.0938 2.1875 22.0938H5.44568C5.98187 20.0323 6.79535 18.0648 7.87244 16.2251L5.57129 13.924C4.71851 13.0712 4.71851 11.6835 5.57129 10.8307L10.8307 5.57129C11.6835 4.71851 13.0712 4.71851 13.9244 5.57129L16.2174 7.86475C18.0588 6.78253 20.0289 5.96478 22.0938 5.42517V2.1875C22.0938 0.981384 23.0751 0 24.2812 0H31.7188C32.9249 0 33.9062 0.981384 33.9062 2.1875V5.41791C35.9741 5.95581 37.948 6.77271 39.7924 7.85449L42.076 5.57129C42.9288 4.71851 44.3165 4.71851 45.1693 5.57129L50.4287 10.8307C51.2815 11.6835 51.2815 13.0712 50.4287 13.9244L48.1455 16.2076C49.2273 18.052 50.0442 20.0259 50.5821 22.0938H53.8125C55.0186 22.0938 56 23.0751 56 24.2812V31.7188C56 32.9249 55.0186 33.9062 53.8125 33.9062H50.5748C50.0352 35.9711 49.217 37.9412 48.1353 39.7826L50.4283 42.076C51.2811 42.9288 51.2811 44.3165 50.4283 45.1693L45.1693 50.4287C44.3165 51.2815 42.9288 51.2815 42.0756 50.4287L39.7749 48.1276C37.9348 49.2047 35.9673 50.0181 33.9062 50.5543V53.8125ZM16.0713 45.641C16.2747 45.641 16.4785 45.6974 16.6596 45.8127C18.7407 47.1415 21.0167 48.0853 23.4238 48.618C23.9249 48.7291 24.2812 49.173 24.2812 49.6862V53.8125H31.7188V49.6921C31.7188 49.1786 32.0759 48.7343 32.5775 48.624C34.988 48.0934 37.2674 47.1509 39.3519 45.823C39.7843 45.5474 40.3504 45.6094 40.7131 45.9721L43.6227 48.8817L48.8817 43.6227L45.9785 40.7195C45.6154 40.3564 45.5538 39.7894 45.8307 39.3566C47.1641 37.2717 48.1118 34.9902 48.6462 32.5762C48.7569 32.0751 49.2012 31.7188 49.7139 31.7188H53.8125V24.2812H49.7199C49.2064 24.2812 48.762 23.9241 48.6518 23.4225C48.1199 21.0051 47.174 18.7202 45.8405 16.6318C45.5645 16.199 45.6265 15.6329 45.9892 15.2698L48.8817 12.3773L43.6227 7.11835L40.7302 10.0108C40.3675 10.3735 39.801 10.4355 39.3682 10.1595C37.2798 8.82605 34.9949 7.88055 32.5775 7.34821C32.0759 7.23798 31.7188 6.79364 31.7188 6.28009V2.1875H24.2812V6.28607C24.2812 6.79919 23.9249 7.2431 23.4242 7.35419C21.0098 7.88867 18.7283 8.83588 16.6434 10.1693C16.211 10.4462 15.6436 10.3846 15.2809 10.0215L12.3773 7.11835L7.11835 12.3773L10.0279 15.2873C10.3906 15.6496 10.4526 16.2157 10.177 16.6481C8.84912 18.7326 7.90662 21.012 7.37598 23.4225C7.26575 23.9241 6.82141 24.2812 6.30786 24.2812H2.1875V31.7188H6.31384C6.82697 31.7188 7.27087 32.0755 7.38196 32.5762C7.91473 34.9838 8.85895 37.2593 10.1873 39.3404C10.4633 39.7732 10.4017 40.3397 10.0386 40.7025L7.11835 43.6227L12.3773 48.8821L15.2975 45.9614C15.509 45.7504 15.7889 45.641 16.0713 45.641ZM16.7083 39.2917C19.8217 42.4046 23.9108 43.9615 28 43.9615C32.0892 43.9615 36.1783 42.4046 39.2917 39.2917C44.1597 34.4241 45.3646 27.0182 42.2901 20.8641C42.0201 20.3237 41.363 20.1041 40.8229 20.3741C40.2825 20.6441 40.0633 21.3012 40.3333 21.8417C42.9865 27.1528 41.9462 33.5439 37.7451 37.7451C35.0581 40.432 31.5295 41.7753 28 41.7748C24.4714 41.7744 20.9419 40.4312 18.2554 37.7451C12.8819 32.3716 12.8819 23.6284 18.2554 18.2554C22.6026 13.9077 29.38 12.9691 34.736 15.9726C35.2628 16.2682 35.9293 16.0807 36.2249 15.5535C36.5201 15.0267 36.3326 14.3602 35.8058 14.0649C32.8296 12.3961 29.3181 11.7219 25.9167 12.1671C22.4039 12.6268 19.2197 14.1974 16.7083 16.7083C10.4821 22.9346 10.4821 33.0654 16.7083 39.2917ZM38.7572 18.8138C38.4684 18.8138 38.1873 18.6976 37.9826 18.4929C37.7792 18.2896 37.6635 18.0084 37.6635 17.72C37.6635 17.4321 37.7792 17.1501 37.9826 16.9467C38.186 16.7429 38.4684 16.6263 38.7572 16.6263C39.0447 16.6263 39.3267 16.7429 39.5305 16.9467C39.7339 17.1501 39.851 17.4321 39.851 17.72C39.851 18.0084 39.7339 18.2896 39.5305 18.4929C39.3259 18.6976 39.0447 18.8138 38.7572 18.8138ZM26.4564 36.0574C26.1663 36.0574 25.8881 35.9421 25.683 35.737L18.7664 28.8199C18.3391 28.3931 18.3391 27.7005 18.7664 27.2733L22.6893 23.3499C22.8944 23.1448 23.1725 23.0298 23.4626 23.0298C23.7527 23.0298 24.0313 23.1448 24.2364 23.3499L26.4564 25.5703L31.764 20.263C32.1909 19.8358 32.8834 19.8358 33.3107 20.263L37.2341 24.1864C37.6609 24.6132 37.6609 25.3058 37.2341 25.733L27.2301 35.737C27.0246 35.9421 26.7465 36.0574 26.4564 36.0574ZM21.0863 28.0466L26.4564 33.4166L34.9137 24.9597L32.5374 22.5834L27.2301 27.8906C27.025 28.0957 26.7465 28.2111 26.4564 28.2111C26.1663 28.2111 25.8881 28.0957 25.683 27.8906L23.4626 25.6702L21.0863 28.0466Z" fill="#79C8C7"/>
<defs>
<clipPath id="clip0_0_4333">
<rect width="445" height="94" fill="white" transform="translate(95)"/>
</clipPath>
</defs>
</svg>
